<svg width="35" height="36" viewBox="0 0 35 36" fill="none" xmlns="http://www.w3.org/2000/svg">
<path d="M33.075 0H1.925C1.41446 0 0.924827 0.208607 0.56382 0.579929C0.202812 0.951251 0 1.45487 0 1.98V34.02C0 34.28 0.0497918 34.5375 0.146532 34.7777C0.243272 35.0179 0.385067 35.2362 0.56382 35.4201C0.742572 35.6039 0.954783 35.7498 1.18833 35.8493C1.42189 35.9488 1.67221 36 1.925 36H18.69V22.05H14.14V16.65H18.69V12.6C18.5958 11.6492 18.7049 10.6886 19.0098 9.78577C19.3146 8.88291 19.8078 8.05958 20.4548 7.37354C21.1018 6.6875 21.8869 6.15535 22.7549 5.81443C23.623 5.4735 24.5531 5.33205 25.48 5.4C26.8421 5.39138 28.2035 5.4635 29.5575 5.616V10.476H26.775C24.57 10.476 24.15 11.556 24.15 13.122V16.596H29.4L28.7175 21.996H24.15V36H33.075C33.3278 36 33.5781 35.9488 33.8117 35.8493C34.0452 35.7498 34.2574 35.6039 34.4362 35.4201C34.6149 35.2362 34.7567 35.0179 34.8535 34.7777C34.9502 34.5375 35 34.28 35 34.02V1.98C35 1.71998 34.9502 1.46251 34.8535 1.22229C34.7567 0.982062 34.6149 0.763789 34.4362 0.579929C34.2574 0.396069 34.0452 0.250223 33.8117 0.150719C33.5781 0.0512144 33.3278 0 33.075 0Z" fill="white"/>
</svg>
