<svg width="35" height="35" viewBox="0 0 35 35" fill="none" xmlns="http://www.w3.org/2000/svg">
<path fill-rule="evenodd" clip-rule="evenodd" d="M35 2C35 0.895431 34.1046 0 33 0H2C0.895431 0 0 0.89543 0 2V33C0 34.1046 0.89543 35 2 35H33C34.1046 35 35 34.1046 35 33V2ZM7.0085 10.6912C7.52683 11.1752 8.18814 11.4173 8.99245 11.4173C9.77888 11.4173 10.4223 11.1752 10.9228 10.6912C11.4411 10.1885 11.7003 9.57415 11.7003 8.84808C11.7003 8.10339 11.4411 7.48902 10.9228 7.00497C10.4223 6.50231 9.77888 6.25098 8.99245 6.25098C8.18814 6.25098 7.52683 6.50231 7.0085 7.00497C6.50804 7.48902 6.25781 8.10339 6.25781 8.84808C6.25781 9.57415 6.50804 10.1885 7.0085 10.6912ZM9.27131 28.6196C10.3759 28.6196 11.2713 27.7242 11.2713 26.6196V15.037C11.2713 13.9324 10.3759 13.037 9.27131 13.037H8.68678C7.58221 13.037 6.68678 13.9324 6.68678 15.037V26.6196C6.68678 27.7242 7.58221 28.6196 8.68678 28.6196H9.27131ZM26.551 14.6567C25.5144 13.4652 24.1202 12.8694 22.3686 12.8694C21.3856 12.8694 20.5009 13.0742 19.7144 13.4838C19.4307 13.6248 19.1679 13.7852 18.9261 13.9651C18.543 14.2499 17.8377 13.9983 17.8377 13.5209C17.8377 13.2536 17.6211 13.037 17.3538 13.037H15.2532C14.1486 13.037 13.2532 13.9324 13.2532 15.037V26.6196C13.2532 27.7242 14.1486 28.6196 15.2532 28.6196H15.8377C16.9423 28.6196 17.8377 27.7242 17.8377 26.6196V20.1581C17.8377 19.1155 18.0969 18.3056 18.6152 17.7285C19.1335 17.1514 19.8306 16.8628 20.7064 16.8628C21.5822 16.8628 22.2793 17.1514 22.7976 17.7285C23.3159 18.3056 23.5751 19.1155 23.5751 20.1581V26.6196C23.5751 27.7242 24.4705 28.6196 25.5751 28.6196H26.1328C27.2374 28.6196 28.1328 27.7242 28.1328 26.6196V19.5158C28.1328 17.4492 27.6055 15.8295 26.551 14.6567Z" fill="white"/>
</svg>
