<svg width="35" height="30" viewBox="0 0 35 30" fill="none" xmlns="http://www.w3.org/2000/svg">
<path d="M35 3.51587C33.6846 4.10364 32.2935 4.49219 30.87 4.66944C32.3718 3.74536 33.4972 2.29161 34.0375 0.577867C32.6262 1.44316 31.0813 2.05281 29.47 2.38032C28.393 1.17731 26.9587 0.376526 25.3922 0.103554C23.8256 -0.169418 22.2155 0.100863 20.8141 0.872009C19.4128 1.64315 18.2996 2.87155 17.6492 4.36453C16.9987 5.85751 16.8478 7.53063 17.22 9.1215C14.3665 8.97284 11.5753 8.20757 9.02765 6.87539C6.48002 5.54321 4.23298 3.67393 2.4325 1.38897C1.80099 2.52482 1.46916 3.81115 1.47 5.12005C1.46776 6.33559 1.75738 7.53285 2.31307 8.60521C2.86876 9.67758 3.67328 10.5918 4.655 11.2664C3.51396 11.2344 2.3973 10.9191 1.4 10.3472V10.4373C1.40855 12.1404 1.98799 13.7882 3.0403 15.102C4.09261 16.4157 5.5532 17.3148 7.175 17.6471C6.5507 17.8428 5.90253 17.946 5.25 17.9535C4.79831 17.9481 4.34774 17.9059 3.9025 17.8273C4.36434 19.2924 5.25809 20.5727 6.45938 21.4902C7.66067 22.4077 9.10976 22.9167 10.605 22.9463C8.0801 24.9926 4.9628 26.1094 1.75 26.1186C1.16504 26.1206 0.580537 26.0845 0 26.0105C3.28025 28.1919 7.10292 29.3499 11.0075 29.345C13.702 29.3738 16.375 28.8494 18.8705 27.8023C21.3659 26.7552 23.6338 25.2064 25.5416 23.2464C27.4494 21.2865 28.9589 18.9546 29.982 16.387C31.005 13.8195 31.5211 11.0677 31.5 8.29237C31.5 7.98595 31.5 7.66151 31.5 7.33707C32.8732 6.28229 34.0576 4.98924 35 3.51587Z" fill="white"/>
</svg>
