<svg width="35" height="36" viewBox="0 0 35 36" fill="none" xmlns="http://www.w3.org/2000/svg">
<path fill-rule="evenodd" clip-rule="evenodd" d="M35 2C35 0.895431 34.1046 0 33 0H2C0.895431 0 0 0.895431 0 2V34C0 35.1046 0.89543 36 2 36H33C34.1046 36 35 35.1046 35 34V2ZM8.05 7H26.95C28.0241 7 29.0543 7.44721 29.8138 8.24325C30.5733 9.03928 31 10.1189 31 11.2447V25.3937C31 26.5195 30.5733 27.5992 29.8138 28.3952C29.0543 29.1913 28.0241 29.6385 26.95 29.6385H8.05C6.97587 29.6385 5.94574 29.1913 5.18622 28.3952C4.4267 27.5992 4 26.5195 4 25.3937V11.2447C4 10.1189 4.4267 9.03928 5.18622 8.24325C5.94574 7.44721 6.97587 7 8.05 7ZM18.31 15.9139L21.5039 13.4018C22.9964 12.2279 22.1664 9.82981 20.2675 9.82981H14.7325C12.8336 9.82981 12.0036 12.2279 13.4961 13.4018L16.69 15.9139C16.9237 16.0976 17.2079 16.1969 17.5 16.1969C17.7921 16.1969 18.0763 16.0976 18.31 15.9139ZM7.09541 26.3942C7.34858 26.6596 7.69196 26.8087 8.05 26.8087H26.95C27.308 26.8087 27.6514 26.6596 27.9046 26.3942C28.1578 26.1289 28.3 25.769 28.3 25.3937V15.7145C28.3 14.0454 26.3762 13.1106 25.064 14.1421L19.93 18.1777C19.229 18.7288 18.3763 19.0267 17.5 19.0267C16.6237 19.0267 15.771 18.7288 15.07 18.1777L9.93598 14.1421C8.62378 13.1106 6.7 14.0454 6.7 15.7145V25.3937C6.7 25.769 6.84223 26.1289 7.09541 26.3942Z" fill="white"/>
</svg>
