<svg width="35" height="36" viewBox="0 0 35 36" fill="none" xmlns="http://www.w3.org/2000/svg">
<g clip-path="url(#clip0_0_1107)">
<rect width="35" height="36" rx="2" fill="white"/>
<path fill-rule="evenodd" clip-rule="evenodd" d="M35 36H0V0H35V36ZM23.7067 28.278C24.0202 28.5075 24.4227 28.5645 24.7829 28.4235C25.1417 28.284 25.4071 27.9675 25.4873 27.5835C26.3317 23.5005 28.3821 13.1625 29.1506 9.4485C29.2075 9.168 29.1112 8.877 28.8983 8.6895C28.684 8.5035 28.3865 8.4495 28.1225 8.55C24.0465 10.101 11.4917 14.946 6.35979 16.9005C6.03458 17.0235 5.82313 17.346 5.83333 17.7C5.845 18.0525 6.07688 18.36 6.40938 18.4635C8.71062 19.17 11.7323 20.1555 11.7323 20.1555C11.7323 20.1555 13.1425 24.5415 13.879 26.7705C13.9708 27.051 14.1852 27.2715 14.4652 27.3465C14.7467 27.4215 15.0442 27.3435 15.2542 27.1395C16.4369 25.992 18.2642 24.2175 18.2642 24.2175C18.2642 24.2175 21.7365 26.8365 23.7067 28.278ZM13.0025 19.602L14.6344 25.14L14.9975 21.633C14.9975 21.633 21.3033 15.783 24.8996 12.447C25.0046 12.3495 25.0192 12.186 24.9317 12.0705C24.8442 11.955 24.6852 11.928 24.5656 12.006C20.3992 14.7435 13.0025 19.602 13.0025 19.602Z" fill="url(#paint0_linear_0_1107)"/>
</g>
<defs>
<linearGradient id="paint0_linear_0_1107" x1="17.5" y1="0" x2="17.5" y2="36" gradientUnits="userSpaceOnUse">
<stop offset="0.432292" stop-color="#4B9CD8"/>
<stop offset="1" stop-color="#64B6F0"/>
</linearGradient>
<clipPath id="clip0_0_1107">
<rect width="35" height="36" rx="2" fill="white"/>
</clipPath>
</defs>
</svg>
