<svg width="153" height="43" viewBox="0 0 153 43" fill="none" xmlns="http://www.w3.org/2000/svg">
<path d="M123.843 43C123.547 43 123.257 42.9336 123.011 42.8094C122.764 42.6851 122.572 42.5085 122.458 42.3019C122.345 42.0953 122.315 41.8679 122.372 41.6484C122.43 41.429 122.572 41.2273 122.781 41.0688L148.722 21.4925L122.784 1.91837C122.511 1.70488 122.36 1.41894 122.363 1.12214C122.367 0.825338 122.525 0.541425 122.803 0.331548C123.081 0.12167 123.457 0.0026221 123.85 4.3055e-05C124.244 -0.00253599 124.622 0.111561 124.905 0.317759L151.905 20.6933C152.186 20.9056 152.344 21.1935 152.344 21.4936C152.344 21.7938 152.186 22.0816 151.905 22.2939L124.905 42.6695C124.623 42.8812 124.241 43 123.843 43Z" fill="#CBBE9C"/>
<path d="M146.875 22.4063L3.125 22.4063C2.2962 22.4063 1.50134 22.3009 0.915291 22.1134C0.32924 21.9258 -2.21217e-07 21.6715 -1.74846e-07 21.4062C-1.28474e-07 21.141 0.32924 20.8867 0.915291 20.6991C1.50134 20.5116 2.2962 20.4063 3.125 20.4063L146.875 20.4063C147.704 20.4063 148.499 20.5116 149.085 20.6992C149.671 20.8867 150 21.1411 150 21.4063C150 21.6715 149.671 21.9258 149.085 22.1134C148.499 22.3009 147.704 22.4063 146.875 22.4063Z" fill="#CBBE9C"/>
</svg>
