<svg width="67" height="19" viewBox="0 0 67 19" fill="none" xmlns="http://www.w3.org/2000/svg">
<path d="M53.9304 18.7259C53.8013 18.7259 53.6751 18.697 53.5678 18.6429C53.4604 18.5888 53.3767 18.5119 53.3272 18.4219C53.2777 18.332 53.2647 18.2329 53.2897 18.1374C53.3148 18.0418 53.3768 17.954 53.4679 17.885L64.7646 9.3597L53.4693 0.835426C53.3503 0.742453 53.2844 0.617929 53.2859 0.488677C53.2874 0.359424 53.3561 0.235784 53.4772 0.144385C53.5983 0.0529859 53.7622 0.00114189 53.9334 1.87499e-05C54.1047 -0.00110439 54.2697 0.0485833 54.3929 0.13838L66.1507 9.01167C66.2732 9.10411 66.342 9.22948 66.342 9.36019C66.342 9.49091 66.2732 9.61627 66.1507 9.70872L54.3929 18.582C54.27 18.6742 54.1037 18.726 53.9304 18.7259Z" fill="#283340"/>
<path d="M63.9622 9.7577L1.3609 9.75769C0.999965 9.75769 0.653815 9.71181 0.398598 9.63014C0.14338 9.54847 -9.63374e-08 9.4377 -7.6143e-08 9.32221C-5.59486e-08 9.20671 0.14338 9.09594 0.398598 9.01427C0.653815 8.9326 0.999965 8.88672 1.3609 8.88672L63.9622 8.88673C64.3231 8.88673 64.6693 8.93261 64.9245 9.01428C65.1797 9.09595 65.3231 9.20672 65.3231 9.32222C65.3231 9.43772 65.1797 9.54848 64.9245 9.63015C64.6693 9.71182 64.3231 9.7577 63.9622 9.7577Z" fill="#283340"/>
</svg>
