<svg width="68" height="19" viewBox="0 0 68 19" fill="none" xmlns="http://www.w3.org/2000/svg">
<path d="M13.4094 18.7259C13.5385 18.7259 13.6647 18.697 13.7721 18.6429C13.8794 18.5888 13.9631 18.5119 14.0126 18.4219C14.0621 18.332 14.0751 18.2329 14.0501 18.1374C14.025 18.0418 13.963 17.954 13.8719 17.885L2.57559 9.3597L13.8706 0.835426C13.9896 0.742453 14.0554 0.617929 14.0539 0.488677C14.0524 0.359424 13.9838 0.235784 13.8626 0.144385C13.7415 0.0529858 13.5777 0.00114172 13.4064 1.85205e-05C13.2352 -0.00110468 13.0702 0.0485829 12.947 0.13838L1.18951 9.01167C1.06706 9.10411 0.998268 9.22947 0.998268 9.36019C0.998268 9.4909 1.06706 9.61627 1.18951 9.70871L12.947 18.582C13.0699 18.6742 13.2361 18.726 13.4094 18.7259Z" fill="#283340"/>
<path d="M3.37956 9.75768L65.979 9.75769C66.3399 9.75769 66.686 9.71181 66.9413 9.63014C67.1965 9.54847 67.3398 9.4377 67.3398 9.32221C67.3398 9.20671 67.1965 9.09594 66.9413 9.01427C66.686 8.9326 66.3399 8.88672 65.979 8.88672L3.37956 8.88671C3.01864 8.88671 2.67249 8.93259 2.41729 9.01426C2.16208 9.09593 2.0187 9.2067 2.0187 9.32219C2.0187 9.43769 2.16208 9.54846 2.41729 9.63013C2.67249 9.7118 3.01864 9.75768 3.37956 9.75768Z" fill="#283340"/>
</svg>
