<svg width="33" height="12" viewBox="0 0 33 12" fill="none" xmlns="http://www.w3.org/2000/svg">
<path d="M0.469673 5.46967C0.176777 5.76256 0.176777 6.23743 0.469673 6.53033L5.24264 11.3033C5.53554 11.5962 6.01041 11.5962 6.3033 11.3033C6.59619 11.0104 6.59619 10.5355 6.3033 10.2426L2.06066 6L6.3033 1.75736C6.5962 1.46446 6.5962 0.98959 6.3033 0.696697C6.01041 0.403803 5.53554 0.403803 5.24264 0.696697L0.469673 5.46967ZM33 5.25L1 5.25L1 6.75L33 6.75L33 5.25Z" fill="#283340"/>
<path d="M0.469673 5.46967C0.176777 5.76256 0.176777 6.23743 0.469673 6.53033L5.24264 11.3033C5.53554 11.5962 6.01041 11.5962 6.3033 11.3033C6.59619 11.0104 6.59619 10.5355 6.3033 10.2426L2.06066 6L6.3033 1.75736C6.5962 1.46446 6.5962 0.98959 6.3033 0.696697C6.01041 0.403803 5.53554 0.403803 5.24264 0.696697L0.469673 5.46967ZM33 5.25L1 5.25L1 6.75L33 6.75L33 5.25Z" fill="#F5F2F0"/>
</svg>
