<svg width="227" height="179" viewBox="0 0 227 179" fill="none" xmlns="http://www.w3.org/2000/svg">
<g id="cashyou">
<g id="Group 2155" filter="url(#filter0_bf_0_666)">
<path id="CashYou 1 (Traced)" fill-rule="evenodd" clip-rule="evenodd" d="M152.329 3.01363C148.883 4.67873 148.534 5.90922 149.412 13.3244C150.081 18.9707 149.547 23.3937 147.788 26.7507L145.165 31.7568L141.056 23.2685C138.229 17.4272 134.41 13.1742 128.807 9.62038C119.838 3.93113 108.847 2.5665 108.847 7.13972C108.847 11.9919 102.317 16.4775 93.4374 17.7259C71.0524 20.8719 55.6712 30.8393 46.6374 48.0555C42.5131 55.9124 41.8281 59.3839 41.8281 72.4203C41.8281 85.4568 42.5131 88.9283 46.6374 96.7852C49.2808 101.825 55.1507 109.21 59.6775 113.195C72.9357 124.867 78.8431 126.076 122.579 126.076H160.714V120.952C160.714 114.878 154.841 106.801 148.735 104.479C145.252 103.156 144.628 102.015 145.63 98.7991C149.114 87.6191 149.836 86.7284 155.422 86.7284C158.462 86.7284 162.497 85.9004 164.389 84.8863C168.735 82.5612 173.234 73.9925 173.234 68.0385C173.234 64.1628 172.427 63.4778 167.868 63.4778C159.966 63.4778 161.331 60.2764 170.998 56.1324C182.77 51.087 185.753 47.9374 185.753 40.5545C185.753 31.1916 178.431 20.1207 168.889 15.0592C163.715 12.3139 160.138 8.95685 159.044 5.81444C158.097 3.10126 157.08 0.933592 156.783 1.00156C156.486 1.06773 154.481 1.97272 152.329 3.01363Z" fill="#EF9840"/>
<path id="CashYou 3 (Traced)" fill-rule="evenodd" clip-rule="evenodd" d="M112.981 7.79655C113.976 14.5786 108.285 22.318 99.1174 25.0652C88.4453 28.263 75.5412 41.684 71.5314 53.7583C64.9872 73.4641 71.7442 99.3081 87.4098 114.493L94.6737 122.903L90.5898 107.118C88.5437 97.0223 88.3541 91.2758 89.7438 81.4981C92.7378 60.4491 102.607 49.4712 123.364 44.1075C135.51 40.9668 142.823 36.3239 143.492 31.3268C142.69 20.9517 130.804 7.03286 117.037 4.72703C112.433 4.50781 112.327 3.33242 112.981 7.79655Z" fill="#F15B01"/>
</g>
<g id="Vector">
<path d="M22.3276 165.82H31.3204C31.2005 168.423 30.4982 170.718 29.2135 172.705C27.9288 174.692 26.1474 176.242 23.8693 177.356C21.6082 178.452 18.9361 179 15.8529 179C13.3521 179 11.1167 178.581 9.14688 177.741C7.19418 176.902 5.53267 175.694 4.16235 174.119C2.80916 172.543 1.77285 170.633 1.05343 168.389C0.351144 166.145 0 163.618 0 160.809V158.779C0 155.97 0.368273 153.444 1.10482 151.2C1.8585 148.939 2.92049 147.02 4.29081 145.445C5.67826 143.852 7.33978 142.635 9.27535 141.796C11.2109 140.957 13.3606 140.537 15.7244 140.537C18.9789 140.537 21.7281 141.119 23.972 142.284C26.2159 143.449 27.9545 145.051 29.1878 147.089C30.4211 149.11 31.1491 151.414 31.3718 154H22.379C22.3448 152.596 22.105 151.423 21.6596 150.48C21.2143 149.521 20.512 148.802 19.5527 148.322C18.5935 147.843 17.3174 147.603 15.7244 147.603C14.611 147.603 13.6432 147.808 12.8211 148.219C11.9989 148.631 11.3137 149.281 10.7656 150.172C10.2174 151.063 9.80635 152.219 9.53229 153.641C9.27535 155.045 9.14688 156.741 9.14688 158.728V160.809C9.14688 162.796 9.26679 164.492 9.50659 165.897C9.7464 167.301 10.1318 168.449 10.6628 169.34C11.1938 170.23 11.879 170.89 12.7183 171.318C13.5747 171.729 14.6196 171.935 15.8529 171.935C17.2232 171.935 18.3794 171.72 19.3215 171.292C20.2636 170.847 20.9916 170.179 21.5055 169.288C22.0193 168.38 22.2934 167.224 22.3276 165.82Z" fill="#F15A01"/>
<path d="M48.8485 149.057L39.7273 178.605H30.0408L43.7869 141.195H49.9276L48.8485 149.057ZM56.4024 178.605L47.2555 149.057L46.0736 141.195H52.2914L66.1145 178.605H56.4024ZM52.0834 164.653L54.2389 171.616H41.8846L44.0341 164.653H52.0834Z" fill="#F15A01"/>
<path d="M85.4617 168.543C85.4617 167.961 85.3761 167.438 85.2048 166.976C85.0335 166.496 84.7166 166.051 84.2541 165.64C83.7916 165.229 83.1236 164.817 82.25 164.406C81.3936 163.978 80.2631 163.533 78.8585 163.07C77.2141 162.522 75.6297 161.906 74.1052 161.22C72.5807 160.518 71.2189 159.704 70.0199 158.779C68.8209 157.837 67.8702 156.741 67.1679 155.491C66.4656 154.223 66.1145 152.75 66.1145 151.071C66.1145 149.461 66.4742 148.014 67.1936 146.729C67.913 145.427 68.9151 144.323 70.1998 143.415C71.5016 142.49 73.0261 141.788 74.7732 141.308C76.5204 140.811 78.4303 140.563 80.5029 140.563C83.2435 140.563 85.6587 141.042 87.7484 142.002C89.8553 142.944 91.4997 144.288 92.6816 146.036C93.8806 147.766 94.4801 149.812 94.4801 152.176H85.5131C85.5131 151.234 85.3161 150.403 84.9221 149.684C84.5453 148.965 83.9715 148.399 83.2007 147.988C82.4299 147.577 81.4621 147.372 80.2973 147.372C79.1668 147.372 78.2161 147.543 77.4453 147.885C76.6745 148.228 76.0921 148.691 75.6982 149.273C75.3042 149.838 75.1072 150.463 75.1072 151.149C75.1072 151.714 75.2614 152.228 75.5697 152.69C75.8952 153.135 76.3491 153.555 76.9315 153.949C77.531 154.343 78.2504 154.72 79.0897 155.08C79.9462 155.439 80.9054 155.79 81.9674 156.133C83.9544 156.767 85.7186 157.478 87.2602 158.266C88.819 159.036 90.1294 159.919 91.1914 160.912C92.2705 161.888 93.0841 163.002 93.6322 164.252C94.1975 165.503 94.4801 166.916 94.4801 168.492C94.4801 170.17 94.1547 171.66 93.5038 172.962C92.8529 174.264 91.9193 175.369 90.7032 176.277C89.487 177.167 88.0311 177.844 86.3353 178.307C84.6395 178.769 82.7468 179 80.657 179C78.7386 179 76.8458 178.76 74.9788 178.281C73.1288 177.784 71.4502 177.03 69.9428 176.02C68.4355 174.992 67.2279 173.682 66.32 172.089C65.4293 170.479 64.984 168.569 64.984 166.359H74.0281C74.0281 167.455 74.1737 168.38 74.4649 169.134C74.7561 169.888 75.1843 170.496 75.7496 170.958C76.3148 171.404 77.0085 171.729 77.8307 171.935C78.6529 172.123 79.595 172.217 80.657 172.217C81.8047 172.217 82.7296 172.054 83.4319 171.729C84.1342 171.386 84.6481 170.941 84.9735 170.393C85.299 169.828 85.4617 169.211 85.4617 168.543Z" fill="#F15A01"/>
<path d="M118.776 155.928V162.865H105.518V155.928H118.776ZM105.518 141.077V178.486H96.4996V141.077H105.518ZM127.769 141.077V178.486H118.776V141.077H127.769Z" fill="#F15A01"/>
<path d="M140.483 141.077L147.369 157.315L154.281 141.077H163.993L151.968 165.049V178.486H142.796V165.049L130.746 141.077H140.483Z" fill="#3D3E40"/>
<path d="M194.995 159.036V160.552C194.995 163.413 194.592 165.982 193.787 168.26C192.999 170.521 191.877 172.457 190.421 174.067C188.965 175.66 187.244 176.885 185.257 177.741C183.27 178.581 181.077 179 178.679 179C176.264 179 174.055 178.581 172.05 177.741C170.064 176.885 168.333 175.66 166.86 174.067C165.404 172.457 164.274 170.521 163.469 168.26C162.681 165.982 162.287 163.413 162.287 160.552V159.036C162.287 156.176 162.681 153.607 163.469 151.328C164.274 149.05 165.396 147.115 166.835 145.522C168.291 143.912 170.012 142.687 171.999 141.847C174.003 140.991 176.213 140.563 178.628 140.563C181.026 140.563 183.219 140.991 185.206 141.847C187.21 142.687 188.94 143.912 190.396 145.522C191.852 147.115 192.982 149.05 193.787 151.328C194.592 153.607 194.995 156.176 194.995 159.036ZM185.848 160.552V158.985C185.848 157.135 185.685 155.508 185.36 154.103C185.051 152.682 184.589 151.491 183.972 150.532C183.356 149.573 182.593 148.853 181.686 148.374C180.795 147.877 179.776 147.629 178.628 147.629C177.429 147.629 176.384 147.877 175.493 148.374C174.603 148.853 173.858 149.573 173.258 150.532C172.659 151.491 172.205 152.682 171.896 154.103C171.605 155.508 171.46 157.135 171.46 158.985V160.552C171.46 162.385 171.605 164.012 171.896 165.434C172.205 166.839 172.659 168.029 173.258 169.005C173.875 169.982 174.628 170.718 175.519 171.215C176.427 171.712 177.48 171.96 178.679 171.96C179.827 171.96 180.846 171.712 181.737 171.215C182.628 170.718 183.373 169.982 183.972 169.005C184.589 168.029 185.051 166.839 185.36 165.434C185.685 164.012 185.848 162.385 185.848 160.552Z" fill="#3D3E40"/>
<path d="M217.338 141.077H226.356V165.511C226.356 168.423 225.748 170.89 224.532 172.911C223.316 174.915 221.612 176.431 219.419 177.459C217.227 178.486 214.649 179 211.685 179C208.756 179 206.178 178.486 203.952 177.459C201.742 176.431 200.012 174.915 198.761 172.911C197.528 170.89 196.912 168.423 196.912 165.511V141.077H205.956V165.511C205.956 167.053 206.178 168.312 206.624 169.288C207.069 170.247 207.72 170.95 208.576 171.395C209.433 171.84 210.469 172.063 211.685 172.063C212.919 172.063 213.955 171.84 214.794 171.395C215.634 170.95 216.267 170.247 216.696 169.288C217.124 168.312 217.338 167.053 217.338 165.511V141.077Z" fill="#3D3E40"/>
<path d="M44.902 141.195H50.8217V151.609H45.1212L44.902 141.195Z" fill="#F15A01"/>
</g>
</g>
<defs>
<filter id="filter0_bf_0_666" x="37.8281" y="-3" width="151.925" height="133.075" filterUnits="userSpaceOnUse" color-interpolation-filters="sRGB">
<feFlood flood-opacity="0" result="BackgroundImageFix"/>
<feGaussianBlur in="BackgroundImageFix" stdDeviation="2"/>
<feComposite in2="SourceAlpha" operator="in" result="effect1_backgroundBlur_0_666"/>
<feBlend mode="normal" in="SourceGraphic" in2="effect1_backgroundBlur_0_666" result="shape"/>
<feGaussianBlur stdDeviation="0.5" result="effect2_foregroundBlur_0_666"/>
</filter>
</defs>
</svg>
