<svg width="98" height="90" viewBox="0 0 98 90" fill="none" xmlns="http://www.w3.org/2000/svg">
<path d="M48.4956 90C68.3933 90 73.8727 89.1469 88.375 72.9385L67.9012 60.5689C62.8461 69.5564 37.8914 69.1705 32.7137 60.1424L5.20019 60.1424C11.6429 77.8112 28.5979 90 48.4956 90Z" fill="url(#paint0_linear_0_595)"/>
<g filter="url(#filter0_d_0_595)">
<rect x="6.88672" y="59.292" width="27.1194" height="0.853075" fill="#02FF95"/>
</g>
<path d="M7.30994 29.8594C5.52663 34.7822 4.34375 39.6708 4.34375 45.2147C4.34375 50.5989 5.19977 55.3407 6.8862 60.1435H34.8531L32.3107 55.4516L94.1769 55.8782C97.3782 45.9844 97.3629 40.621 93.3294 29.8594H66.21C67.9843 32.0971 68.8537 33.7376 68.7524 35.8309H32.3107C32.6471 33.4524 33.6881 31.8315 35.2769 29.8594H7.30994Z" fill="url(#paint1_linear_0_595)"/>
<g filter="url(#filter1_d_0_595)">
<rect x="6.0625" y="29.0049" width="27.2984" height="0.853075" fill="#02FF95"/>
</g>
<g filter="url(#filter2_d_0_595)">
<rect x="64.9141" y="29.0049" width="26.4453" height="0.853075" fill="#02FF95"/>
</g>
<path d="M48.4948 0C28.5971 0 11.6459 12.1888 5.20312 29.8576H33.566C38.6211 20.8702 59.099 20.8295 64.2767 29.8576H91.7902C85.3475 12.1888 68.3925 0 48.4948 0Z" fill="url(#paint2_linear_0_595)"/>
<defs>
<filter id="filter0_d_0_595" x="0.886719" y="53.292" width="39.1194" height="12.8535" filterUnits="userSpaceOnUse" color-interpolation-filters="sRGB">
<feFlood flood-opacity="0" result="BackgroundImageFix"/>
<feColorMatrix in="SourceAlpha" type="matrix" values="0 0 0 0 0 0 0 0 0 0 0 0 0 0 0 0 0 0 127 0" result="hardAlpha"/>
<feMorphology radius="1" operator="dilate" in="SourceAlpha" result="effect1_dropShadow_0_595"/>
<feOffset/>
<feGaussianBlur stdDeviation="2.5"/>
<feComposite in2="hardAlpha" operator="out"/>
<feColorMatrix type="matrix" values="0 0 0 0 0 0 0 0 0 0 0 0 0 0 0 0 0 0 0.25 0"/>
<feBlend mode="normal" in2="BackgroundImageFix" result="effect1_dropShadow_0_595"/>
<feBlend mode="normal" in="SourceGraphic" in2="effect1_dropShadow_0_595" result="shape"/>
</filter>
<filter id="filter1_d_0_595" x="0.0625" y="23.0049" width="39.2984" height="12.8535" filterUnits="userSpaceOnUse" color-interpolation-filters="sRGB">
<feFlood flood-opacity="0" result="BackgroundImageFix"/>
<feColorMatrix in="SourceAlpha" type="matrix" values="0 0 0 0 0 0 0 0 0 0 0 0 0 0 0 0 0 0 127 0" result="hardAlpha"/>
<feMorphology radius="1" operator="dilate" in="SourceAlpha" result="effect1_dropShadow_0_595"/>
<feOffset/>
<feGaussianBlur stdDeviation="2.5"/>
<feComposite in2="hardAlpha" operator="out"/>
<feColorMatrix type="matrix" values="0 0 0 0 0 0 0 0 0 0 0 0 0 0 0 0 0 0 0.25 0"/>
<feBlend mode="normal" in2="BackgroundImageFix" result="effect1_dropShadow_0_595"/>
<feBlend mode="normal" in="SourceGraphic" in2="effect1_dropShadow_0_595" result="shape"/>
</filter>
<filter id="filter2_d_0_595" x="58.9141" y="23.0049" width="38.4453" height="12.8535" filterUnits="userSpaceOnUse" color-interpolation-filters="sRGB">
<feFlood flood-opacity="0" result="BackgroundImageFix"/>
<feColorMatrix in="SourceAlpha" type="matrix" values="0 0 0 0 0 0 0 0 0 0 0 0 0 0 0 0 0 0 127 0" result="hardAlpha"/>
<feMorphology radius="1" operator="dilate" in="SourceAlpha" result="effect1_dropShadow_0_595"/>
<feOffset/>
<feGaussianBlur stdDeviation="2.5"/>
<feComposite in2="hardAlpha" operator="out"/>
<feColorMatrix type="matrix" values="0 0 0 0 0 0 0 0 0 0 0 0 0 0 0 0 0 0 0.25 0"/>
<feBlend mode="normal" in2="BackgroundImageFix" result="effect1_dropShadow_0_595"/>
<feBlend mode="normal" in="SourceGraphic" in2="effect1_dropShadow_0_595" result="shape"/>
</filter>
<linearGradient id="paint0_linear_0_595" x1="13.3044" y1="75.4977" x2="84.5362" y2="71.2323" gradientUnits="userSpaceOnUse">
<stop stop-color="#274256"/>
<stop offset="1" stop-color="#6497C2"/>
</linearGradient>
<linearGradient id="paint1_linear_0_595" x1="4.34375" y1="45.2147" x2="96.7194" y2="45.2147" gradientUnits="userSpaceOnUse">
<stop stop-color="#C64651"/>
<stop offset="1" stop-color="#F77581"/>
</linearGradient>
<linearGradient id="paint2_linear_0_595" x1="12.8808" y1="17.488" x2="84.1126" y2="17.0615" gradientUnits="userSpaceOnUse">
<stop stop-color="#974073"/>
<stop offset="0.565623" stop-color="#BD6199"/>
<stop offset="1" stop-color="#DA7BB6"/>
</linearGradient>
</defs>
</svg>
