<svg width="133" height="130" viewBox="0 0 133 130" fill="none" xmlns="http://www.w3.org/2000/svg">
<path fill-rule="evenodd" clip-rule="evenodd" d="M11.7862 1.31019C7.63984 3.121 3.92033 6.89522 1.84764 11.3953C0.119609 15.1462 0.0232895 17.9555 0.00345962 64.9341C-0.0192031 119.032 -0.0853115 118.321 5.46233 124.076C10.0902 128.877 11.9845 129.343 26.8672 129.343H40.6254L38.6915 125.608C37.6282 123.554 33.6387 116.54 29.8257 110.022C22.956 98.2768 15.0911 83.4414 15.0911 82.228C15.0911 81.8819 15.8343 82.2373 16.7436 83.0189C21.3281 86.9588 22.5689 86.3447 18.3007 82.2485C11.908 76.1116 9.97882 71.0533 10.5699 61.9778C11.0732 54.2479 15.1695 44.4253 21.3508 36.1268C24.482 31.9246 24.8465 31.6984 26.0268 33.232C27.2043 34.7617 27.3092 34.692 27.3365 32.3573C27.3554 30.7493 28.1722 29.2995 29.565 28.4007C32.3374 26.6103 41.9143 24.8237 44.4639 25.6212C46.2995 26.1953 46.3137 26.307 44.7528 28.0061C43.8529 28.986 43.3364 30.0049 43.6055 30.2701C43.8746 30.5353 44.6319 30.1138 45.2892 29.334C45.9464 28.5542 47.1503 27.9159 47.9652 27.9159C49.1522 27.9159 49.0823 28.1894 47.613 29.2949C45.9058 30.58 45.9936 30.6349 48.9067 30.0979C51.5809 29.6048 52.5139 29.977 55.3627 32.6737C57.1937 34.4072 59.5515 37.0015 60.6025 38.4392C62.4505 40.9674 62.4562 41.0949 60.7744 42.3065C59.1814 43.4547 59.2437 43.5199 61.5308 43.0891C64.3117 42.5652 66.5298 45.2246 65.5052 47.8552C64.7885 49.6949 64.2852 49.6884 62.1785 47.8096C61.2484 46.9796 59.8178 46.5534 59.001 46.8623C57.8112 47.3127 57.6337 48.314 58.1134 51.8779C58.6063 55.5349 58.3712 56.7436 56.799 58.64C54.4619 61.4595 53.6508 60.7793 51.4761 54.1744C48.173 44.1424 41.9861 40.6269 34.5046 44.5314C29.9022 46.9331 28.5292 47.0094 26.261 44.9864C25.3111 44.1396 24.5339 43.8995 24.5339 44.4532C24.5339 45.0078 25.6151 46.2984 26.9362 47.323L29.3384 49.1849L27.7728 53.9009C25.7341 60.0433 26.5103 65.0616 30.8105 73.5322C35.2147 82.2066 42.768 90.0724 53.1937 96.841L61.7026 102.365L55.63 101.912C50.02 101.496 49.8453 101.536 53.3344 102.451C76.1208 108.423 87.0688 114.214 95.827 124.923L99.4417 129.343H109.248C119.893 129.343 122.396 128.586 126.644 124.076C131.798 118.604 132.182 116.842 132.182 98.583C132.182 82.8589 132.067 81.7339 130.529 82.3527C129.621 82.7184 122.928 83.2079 115.657 83.4396C103.846 83.8164 101.581 84.1691 94.4105 86.742C85.7015 89.8676 82.9744 91.2876 79.2105 94.6562C77.8611 95.863 75.524 96.9387 74.017 97.0457C71.66 97.2132 71.2332 96.8754 70.9735 94.6422C70.339 89.1986 77.9319 80.1138 84.7742 78.129C86.6986 77.5707 91.0272 75.9879 94.3945 74.6107C99.4993 72.5226 100.879 71.4599 102.695 68.2161C103.892 66.0768 105.121 62.2579 105.425 59.7306C105.97 55.1915 105.919 55.0798 101.283 50.5984C98.7013 48.1027 94.5824 44.684 92.1292 43.0006L87.6693 39.9411L84.473 41.8877C82.7147 42.9588 80.2955 45.5912 79.0962 47.7389C77.4371 50.7119 76.2681 51.7178 74.1992 51.9514C70.7979 52.3357 69.6619 50.7315 70.3588 46.5264C71.5996 39.0366 72.4948 37.7571 79.7799 33.0607C83.6722 30.552 86.8563 28.1587 86.8563 27.7418C86.8563 26.0139 92.4587 27.177 96.5994 29.7648C101.691 32.9463 108.575 36.5065 108.575 35.9575C108.575 35.7537 106.238 34.1913 103.381 32.4857C100.525 30.7791 98.1876 29.0539 98.1876 28.65C98.1876 27.2031 100.836 27.968 107.016 31.1997C113.682 34.6864 115.331 34.9665 110.227 31.745C105.991 29.0716 108.589 29.2809 114.156 32.0614C116.673 33.3176 118.974 34.1076 119.271 33.8154C119.566 33.5241 122.624 34.8362 126.065 36.7326L132.32 40.1802L132.015 26.2148C131.713 12.4123 131.676 12.2029 128.877 8.29007C127.319 6.11171 124.171 3.35548 121.882 2.16534L117.72 0L66.17 0.036292C25.397 0.0651384 14.0269 0.331272 11.7862 1.31019Z" fill="#D94100"/>
</svg>
