<svg width="145" height="128" viewBox="0 0 145 128" fill="#CBBE9C" xmlns="http://www.w3.org/2000/svg">
<path d="M-46.8473 111.203L-46.8453 111.205C-37.7089 121.933 -24.7957 127.274 -8.17897 127.274C2.34085 127.274 11.8999 124.901 20.4874 120.148L20.4925 120.145C29.0929 115.253 35.9243 107.918 40.9907 98.1636C43.9066 92.689 46.0013 86.5176 47.2796 79.6533C48.5099 73.9561 49.1234 67.7358 49.1234 60.9954C49.1234 41.9945 44.8747 27.4706 36.298 17.5043C35.2191 16.2164 34.0797 15.0111 32.88 13.8882C24.1551 5.08006 12.1888 0.696213 -2.95819 0.696213C-13.477 0.696213 -23.0985 3.06885 -31.8126 7.81961C-40.5465 12.4501 -47.5095 19.656 -52.7062 29.4113C-57.9115 39.0519 -60.5 50.977 -60.5 65.1626C-60.5 84.9852 -55.9725 100.355 -46.8473 111.203ZM12.0183 35.2282L12.0183 35.2282L12.0199 35.2366C13.4291 42.5169 14.1378 52.357 14.1378 64.7702C14.1378 81.3656 12.4614 93.6468 9.14825 101.664C8.64687 102.877 8.10756 103.995 7.53085 105.018C6.87393 105.786 6.18011 106.461 5.45003 107.042C3.11846 108.899 0.390659 109.83 -2.75562 109.83C-6.15839 109.83 -9.05745 108.908 -11.4779 107.081C-13.9034 105.25 -15.8814 102.484 -17.392 98.745C-20.4238 91.1145 -21.9601 78.6756 -21.9601 61.3691C-21.9601 46.0034 -20.3333 34.545 -17.1195 26.9458C-15.5148 23.1513 -13.5254 20.3453 -11.1704 18.4892C-8.82294 16.6389 -6.08657 15.7116 -2.93978 15.7116C-1.31548 15.7116 0.187366 15.9023 1.57113 16.2825C3.14695 17.086 4.53945 18.1846 5.75293 19.5766L5.75285 19.5767L5.7594 19.5839C8.63104 22.7513 10.7356 27.9391 12.0183 35.2282ZM65.7343 37.013C66.0083 36.9877 66.2947 36.9588 66.5935 36.9263L66.6114 37.0569L67.0877 37.013C69.813 36.7616 73.8218 36.135 79.1046 35.1378L79.1134 35.1359C83.8626 34.1502 87.3458 33.354 89.552 32.748V105.97L68.8354 107.963L68.3833 108.007V108.461V111.483L67.5741 111.561L67.122 111.604V112.058V124.812V125.312H67.622H144H144.5V124.812V112.058V111.611L144.056 111.561L142.124 111.344V108.461V108.014L141.68 107.964L123.617 105.927V3.3546V2.91769L123.184 2.85911L105.781 0.504515L105.748 0.5H105.714H105.521H105.337L105.197 0.619068C100.469 4.63874 94.1271 8.6073 86.1577 12.5204C78.1965 16.4294 70.6322 19.0948 63.4636 20.5237L63.002 20.6157L63.066 21.082L65.193 36.5831L65.258 37.0569L65.7343 37.013Z" stroke="#283340" stroke-opacity="0.5"/>
</svg>
