<svg width="38" height="12" viewBox="0 0 38 12" fill="none" xmlns="http://www.w3.org/2000/svg">
<path d="M37.7631 6.70025C38.056 6.40736 38.056 5.93249 37.7631 5.63959L32.9901 0.866621C32.6972 0.573728 32.2223 0.573728 31.9294 0.866621C31.6366 1.15951 31.6366 1.63439 31.9294 1.92728L36.1721 6.16992L31.9294 10.4126C31.6366 10.7055 31.6366 11.1803 31.9294 11.4732C32.2223 11.7661 32.6972 11.7661 32.9901 11.4732L37.7631 6.70025ZM0.609375 6.91992H37.2327V5.41992H0.609375V6.91992Z" fill="#283340"/>
<path d="M37.7631 6.70025C38.056 6.40736 38.056 5.93249 37.7631 5.63959L32.9901 0.866621C32.6972 0.573728 32.2223 0.573728 31.9294 0.866621C31.6366 1.15951 31.6366 1.63439 31.9294 1.92728L36.1721 6.16992L31.9294 10.4126C31.6366 10.7055 31.6366 11.1803 31.9294 11.4732C32.2223 11.7661 32.6972 11.7661 32.9901 11.4732L37.7631 6.70025ZM0.609375 6.91992H37.2327V5.41992H0.609375V6.91992Z" fill="#CBBE9C"/>
</svg>
