<svg width="201" height="85" viewBox="0 0 201 85" fill="none" xmlns="http://www.w3.org/2000/svg">
<path d="M94.7383 20H98.6846V29.2578L103.707 20H107.653L102.954 28.0653L107.725 41.9677H103.6L100.263 32.1764L98.6846 34.9694V41.9677H94.7383V20Z" fill="#101010"/>
<path d="M111.746 20H115.692V28.944H119.925V20H123.871V41.9677H119.925V32.0822H115.692V41.9677H111.746V20Z" fill="#101010"/>
<path d="M132.012 20H137.358L141.448 41.9677H137.501L136.784 37.6055V37.6683H132.299L131.582 41.9677H127.923L132.012 20ZM136.317 34.687L134.56 23.8287H134.488L132.766 34.687H136.317Z" fill="#101010"/>
<path d="M145.515 20H151.362C153.395 20 154.878 20.4184 155.811 21.2553C156.744 22.0712 157.21 23.337 157.21 25.0526V26.402C157.21 28.6825 156.349 30.126 154.627 30.7328V30.7955C155.584 31.0466 156.253 31.5592 156.636 32.3333C157.043 33.1074 157.246 34.143 157.246 35.4401V39.3002C157.246 39.9278 157.27 40.4404 157.318 40.8379C157.366 41.2145 157.485 41.5911 157.677 41.9677H153.659C153.515 41.612 153.419 41.2772 153.372 40.9634C153.324 40.6496 153.3 40.0847 153.3 39.2688V35.2518C153.3 34.2476 153.108 33.5467 152.726 33.1492C152.367 32.7517 151.733 32.5529 150.824 32.5529H149.461V41.9677H145.515V20ZM150.896 29.4147C151.685 29.4147 152.271 29.2369 152.654 28.8812C153.061 28.5255 153.264 27.9293 153.264 27.0924V25.3978C153.264 24.6027 153.096 24.0274 152.762 23.6717C152.451 23.3161 151.948 23.1382 151.255 23.1382H149.461V29.4147H150.896Z" fill="#101010"/>
<path d="M162.137 20H166.083V29.2578L171.105 20H175.052L170.352 28.0653L175.124 41.9677H170.998L167.661 32.1764L166.083 34.9694V41.9677H162.137V20Z" fill="#101010"/>
<path d="M179.144 20H183.09V41.9677H179.144V20Z" fill="#101010"/>
<path d="M187.158 20H191.14L193.723 37.0406H193.795L196.378 20H200.001L196.198 41.9677H190.961L187.158 20Z" fill="#101010"/>
<path d="M125.079 69.0916L132.469 53.3498H125.441V50.214H136.743V53.2871L129.353 69.0289H136.743V72.1647H125.079V69.0916Z" fill="#101010"/>
<path d="M146.934 72.4783C144.977 72.4783 143.48 71.9975 142.442 71.0358C141.403 70.0742 140.884 68.7153 140.884 66.9593V55.4195C140.884 53.6634 141.403 52.3045 142.442 51.3429C143.48 50.3812 144.977 49.9004 146.934 49.9004C148.89 49.9004 150.387 50.3812 151.425 51.3429C152.464 52.3045 152.983 53.6634 152.983 55.4195V66.9593C152.983 68.7153 152.464 70.0742 151.425 71.0358C150.387 71.9975 148.89 72.4783 146.934 72.4783ZM146.934 69.3425C148.31 69.3425 148.998 68.6212 148.998 67.1788V55.2C148.998 53.7575 148.31 53.0362 146.934 53.0362C145.557 53.0362 144.869 53.7575 144.869 55.2V67.1788C144.869 68.6212 145.557 69.3425 146.934 69.3425Z" fill="#101010"/>
<path d="M163.611 72.4783C161.655 72.4783 160.158 71.9975 159.119 71.0358C158.081 70.0742 157.562 68.7153 157.562 66.9593V55.4195C157.562 53.6634 158.081 52.3045 159.119 51.3429C160.158 50.3812 161.655 49.9004 163.611 49.9004C165.567 49.9004 167.065 50.3812 168.103 51.3429C169.142 52.3045 169.661 53.6634 169.661 55.4195V66.9593C169.661 68.7153 169.142 70.0742 168.103 71.0358C167.065 71.9975 165.567 72.4783 163.611 72.4783ZM163.611 69.3425C164.988 69.3425 165.676 68.6212 165.676 67.1788V55.2C165.676 53.7575 164.988 53.0362 163.611 53.0362C162.235 53.0362 161.546 53.7575 161.546 55.2V67.1788C161.546 68.6212 162.235 69.3425 163.611 69.3425Z" fill="#101010"/>
<path fill-rule="evenodd" clip-rule="evenodd" d="M7.72902 0.859182C5.00998 2.04666 2.57084 4.52168 1.21163 7.47267C0.0784358 9.93244 0.0152725 11.7747 0.00226871 42.5819C-0.0125928 78.0578 -0.0559447 77.5916 3.58203 81.3652C6.61687 84.5138 7.85905 84.8196 17.6187 84.8196H26.6409L25.3727 82.3702C24.6755 81.0228 22.0592 76.4237 19.5588 72.1491C15.0539 64.447 9.89632 54.7184 9.89632 53.9227C9.89632 53.6957 10.3837 53.9288 10.98 54.4413C13.9863 57.025 14.8 56.6223 12.0011 53.9361C7.8089 49.9117 6.54381 46.5946 6.93145 40.6432C7.2615 35.5742 9.94771 29.1328 14.0012 23.6909C16.0546 20.9352 16.2936 20.7869 17.0676 21.7925C17.8398 22.7957 17.9085 22.7499 17.9265 21.2189C17.9389 20.1645 18.4745 19.2138 19.3879 18.6243C21.2059 17.4503 27.4862 16.2786 29.1581 16.8016C30.3619 17.1781 30.3712 17.2513 29.3476 18.3656C28.7574 19.0081 28.4187 19.6763 28.5952 19.8502C28.7717 20.0241 29.2683 19.7477 29.6993 19.2363C30.1303 18.725 30.9198 18.3064 31.4542 18.3064C32.2326 18.3064 32.1867 18.4858 31.2232 19.2107C30.1036 20.0534 30.1612 20.0894 32.0716 19.7373C33.8252 19.4139 34.437 19.658 36.3052 21.4264C37.5059 22.5632 39.0521 24.2645 39.7413 25.2073C40.9532 26.8652 40.9569 26.9488 39.854 27.7433C38.8094 28.4963 38.8503 28.539 40.35 28.2565C42.1737 27.913 43.6282 29.6569 42.9564 31.382C42.4864 32.5884 42.1563 32.5841 40.7748 31.3521C40.1649 30.8078 39.2268 30.5283 38.6911 30.7309C37.9109 31.0263 37.7945 31.6829 38.109 34.02C38.4323 36.4181 38.2781 37.2108 37.2471 38.4544C35.7145 40.3033 35.1826 39.8573 33.7565 35.526C31.5904 28.9473 27.5332 26.6419 22.6271 29.2023C19.6089 30.7773 18.7086 30.8273 17.2212 29.5007C16.5982 28.9454 16.0886 28.788 16.0886 29.1511C16.0886 29.5148 16.7976 30.3611 17.6639 31.033L19.2393 32.254L18.2126 35.3466C16.8757 39.3746 17.3847 42.6655 20.2046 48.2202C23.0927 53.9086 28.0459 59.0668 34.8829 63.5055L40.4627 67.1277L36.4805 66.8311C32.8016 66.5577 32.6871 66.5846 34.9751 67.1844C49.9178 71.1008 57.0971 74.8981 62.8405 81.9211L65.2109 84.8196H71.6416C78.6222 84.8196 80.2637 84.3229 83.0496 81.3652C86.4294 77.7771 86.6808 76.6214 86.6808 64.6478C86.6808 54.3364 86.6059 53.5987 85.5972 54.0044C85.0015 54.2443 80.6124 54.5652 75.8443 54.7172C68.099 54.9643 66.614 55.1956 61.9116 56.8828C56.2005 58.9325 54.4121 59.8637 51.9439 62.0727C51.059 62.8641 49.5264 63.5695 48.5381 63.6397C46.9925 63.7495 46.7126 63.528 46.5423 62.0635C46.1262 58.4938 51.1054 52.5363 55.5924 51.2347C56.8544 50.8686 59.6929 49.8306 61.9011 48.9275C65.2486 47.5582 66.1533 46.8613 67.3441 44.7341C68.1293 43.3312 68.9349 40.8269 69.1343 39.1696C69.4922 36.1929 69.4588 36.1197 66.4184 33.1809C64.7254 31.5443 62.0243 29.3024 60.4156 28.1985L57.4909 26.1922L55.3949 27.4687C54.2418 28.1711 52.6554 29.8974 51.869 31.3057C50.781 33.2554 50.0144 33.915 48.6576 34.0682C46.4272 34.3202 45.6822 33.2682 46.1392 30.5106C46.9529 25.599 47.5399 24.76 52.3173 21.6803C54.8697 20.0351 56.9578 18.4657 56.9578 18.1923C56.9578 17.0591 60.6317 17.8219 63.347 19.5189C66.6859 21.6052 71.2001 23.9399 71.2001 23.5798C71.2001 23.4462 69.6675 22.4217 67.7943 21.3031C65.9211 20.184 64.3885 19.0527 64.3885 18.7878C64.3885 17.839 66.1255 18.3406 70.1777 20.4598C74.5495 22.7463 75.6307 22.93 72.2837 20.8174C69.5059 19.0643 71.2094 19.2016 74.8603 21.0249C76.5106 21.8487 78.0196 22.3667 78.2141 22.1751C78.4079 21.9841 80.413 22.8445 82.6694 24.0882L86.7718 26.349L86.5712 17.1909C86.3737 8.13963 86.3495 8.00233 84.5135 5.43638C83.4918 4.00788 81.4279 2.20042 79.9269 1.41996L77.1973 0L43.3923 0.0237992C16.6546 0.0427158 9.19845 0.217239 7.72902 0.859182Z" fill="#D94100"/>
</svg>
