<svg width="94" height="69" viewBox="0 0 94 69" fill="none" xmlns="http://www.w3.org/2000/svg">
<path d="M0 68.2591V0.580104H2.05764L15.5793 54.4332L29.1009 0.580104H31.1585V68.2591H26.0144V21.1739L16.6081 58.5907H14.5504L5.14409 21.1739V68.2591H0Z" fill="black"/>
<path d="M37.1741 68.2591L48.6381 0.580104H50.6957L60.8369 68.2591H55.6928L52.6064 46.0217H42.9061L39.2317 68.2591H37.1741ZM43.2 44.5714H52.4594L48.3441 14.5026L43.2 44.5714Z" fill="black"/>
<path d="M78.7999 0.580104C85.3648 0.837929 88.6472 2.83607 88.6472 6.57453V27.9418C88.6472 30.7778 87.0305 32.6148 83.797 33.4528C87.0305 34.3551 88.6472 36.0955 88.6472 38.6737V68.2591H83.5031V39.0604C83.5031 37.3201 83.1111 36.1277 82.3273 35.4831C81.5434 34.7741 80.1717 34.3551 78.212 34.2262H71.5982V68.2591H66.4541V0.580104H78.7999ZM71.5982 2.03037V32.776H77.9181C80.2696 32.776 81.7884 32.3892 82.4743 31.6158C83.1601 30.8423 83.5031 29.5209 83.5031 27.6517V6.86458C83.5031 5.12426 83.1111 3.93182 82.3273 3.28726C81.5434 2.57825 80.1717 2.15928 78.212 2.03037H71.5982Z" fill="black"/>
<path d="M94.7294 0.580104H99.8735V66.8088H114.13V68.2591H94.7294V0.580104Z" fill="black"/>
<path d="M141.897 62.7481C141.897 66.7444 138.173 68.7425 130.727 68.7425C123.378 68.7425 119.703 66.6799 119.703 62.5547V0.580104H124.848V62.2647C124.848 64.1339 125.19 65.4552 125.876 66.2287C126.562 67.0022 128.081 67.3889 130.433 67.3889C132.784 67.3889 134.401 67.0344 135.283 66.3254C136.263 65.6164 136.752 64.3273 136.752 62.458V0.580104H141.897V62.7481Z" fill="black"/>
<path d="M174.965 0.580104C181.529 0.837929 184.812 2.83607 184.812 6.57453V62.0713C184.812 66.1965 181.235 68.2591 174.083 68.2591H162.619V0.580104H174.965ZM167.763 2.03037V66.9055H174.083C176.434 66.9055 177.953 66.5188 178.639 65.7453C179.325 64.9718 179.668 63.6505 179.668 61.7812V6.86458C179.668 5.12426 179.276 3.93182 178.492 3.28726C177.708 2.57825 176.336 2.15928 174.377 2.03037H167.763Z" fill="black"/>
<path d="M213.675 0.580104V2.03037H196.038V31.4224H210.736V32.8726H196.038V66.8088H213.675V68.2591H190.894V0.580104H213.675Z" fill="black"/>
<path d="M219.89 6.09111C219.89 2.03037 223.565 0 230.913 0C238.36 0 242.083 2.12705 242.083 6.38116V19.917H236.939V6.47784C236.939 4.60861 236.547 3.25504 235.764 2.4171C234.98 1.51472 233.412 1.06352 231.06 1.06352C228.709 1.06352 227.092 1.51472 226.21 2.4171C225.426 3.25504 225.035 4.60861 225.035 6.47784V18.08C225.035 20.5293 225.524 22.3341 226.504 23.4943C227.876 25.2346 229.542 26.8138 231.501 28.2318C233.559 29.6498 235.127 30.8423 236.205 31.8091C237.282 32.7115 238.262 33.775 239.144 34.9997C241.104 37.7069 242.083 40.8974 242.083 44.5714V62.6514C242.083 66.7121 238.36 68.7425 230.913 68.7425C223.565 68.7425 219.89 66.6155 219.89 62.3613V48.9222H225.035V62.2647C225.035 64.1339 225.426 65.5197 226.21 66.4221C226.994 67.26 228.562 67.679 230.913 67.679C233.265 67.679 234.833 67.26 235.617 66.4221C236.498 65.5197 236.939 64.1339 236.939 62.2647V45.3449C236.939 41.6709 236.449 39.0927 235.47 37.6102C234.098 35.4187 232.383 33.5817 230.326 32.0992C228.366 30.6167 226.847 29.4565 225.769 28.6185C224.692 27.7806 223.712 26.8782 222.83 25.9114C220.87 23.6554 219.89 21.2061 219.89 18.5634V6.09111Z" fill="black"/>
<path d="M253.163 0.580104V68.2591H248.019V0.580104H253.163Z" fill="black"/>
<path d="M259.214 5.99442C259.214 1.99814 262.888 0 270.237 0C277.684 0 281.407 2.0626 281.407 6.18779V19.917H276.263V6.57453C276.263 4.64084 275.92 3.31949 275.234 2.61048C274.548 1.837 273.03 1.45026 270.678 1.45026C268.326 1.45026 266.661 1.80477 265.681 2.51379C264.799 3.15835 264.358 4.41525 264.358 6.28448V62.2647C264.358 64.1339 264.701 65.4552 265.387 66.2287C266.073 67.0022 267.592 67.3889 269.943 67.3889C272.295 67.3889 273.911 67.0344 274.793 66.3254C275.773 65.6164 276.263 64.3273 276.263 62.458V39.1571H270.384V37.7069H281.407V62.7481C281.407 66.7444 277.684 68.7425 270.237 68.7425C262.888 68.7425 259.214 66.6799 259.214 62.5547V5.99442Z" fill="black"/>
<path d="M287.489 68.2591V0.580104H289.547L305.126 48.1488V0.580104H310.27V68.2591H305.126V54.6266L292.633 16.3396V68.2591H287.489Z" fill="black"/>
</svg>
