<svg width="221" height="67" viewBox="0 0 221 67" fill="none" xmlns="http://www.w3.org/2000/svg">
<g id="Group 2255">
<g id="Group 2254">
<path id="121729852_178620333749218_6953029677510861171_n 1 (Traced)" fill-rule="evenodd" clip-rule="evenodd" d="M25.5556 3.91179C16.8965 5.61081 9.48608 11.5332 5.91468 19.6087C3.95349 24.0437 3.35858 27.0016 3.1511 33.3521C2.92267 40.3367 3.4567 44.1888 5.32985 49.0672C7.95537 55.9071 13.1032 61.5359 19.1982 64.2312C22.5248 65.7026 27.5746 66.7656 31.3186 66.783C38.6495 66.8172 42.7669 63.9287 53.3842 51.3049C55.215 49.1273 56.7776 47.4097 56.8555 47.488C56.9339 47.5663 57.0056 51.7474 57.0153 56.7793L57.0331 65.9287H60.869H64.7049L64.6037 50.9008L64.5021 35.8729L49.4742 35.7713L34.4463 35.6701V39.7464V43.8231H42.5905C47.0697 43.8231 50.7346 43.962 50.7346 44.1318C50.7346 44.7558 40.0379 55.6023 37.6105 57.4401C34.6429 59.6868 32.7954 60.2669 29.4567 60.0017C24.1494 59.5801 17.2909 54.7956 14.1255 49.3065C11.7614 45.2076 11.0083 41.8352 10.9947 35.2912C10.9819 28.9543 11.3844 26.784 13.339 22.6491C16.5246 15.9097 22.4787 11.5595 29.9864 10.4864C34.1624 9.88959 57.0486 9.47346 57.0936 10.0831C57.113 10.3499 57.0483 11.4889 57.0936 12.0222C57.139 12.5554 57.2104 16.3576 57.2519 20.4719V27.7288H60.8862H64.5021L64.5754 15.6095L64.6491 3.49023L45.9602 3.53289C35.6815 3.55616 26.4996 3.7268 25.5556 3.91179Z" fill="#FDCE03" fill-opacity="0.8"/>
<path id="121729852_178620333749218_6953029677510861171_n 1 (Traced)_2" fill-rule="evenodd" clip-rule="evenodd" d="M22.4541 0.421556C13.7949 2.12058 6.38451 8.04292 2.81311 16.1184C0.851927 20.5535 0.257017 23.5114 0.0495355 29.8619C-0.178888 36.8464 0.355133 40.6986 2.22829 45.577C4.8538 52.4169 10.0017 58.0456 16.0966 60.741C19.4233 62.2123 24.473 63.2753 28.217 63.2928C35.5479 63.3269 39.6654 60.4385 50.2826 47.8147C52.1135 45.6371 53.676 43.9194 53.754 43.9978C53.8323 44.0761 53.904 48.2571 53.9137 53.2891L53.9316 62.4384H57.7675H61.6034L61.5021 47.4105L61.4005 32.3827L46.3726 32.2811L31.3448 32.1798V36.2562V40.3329H39.4889C43.9682 40.3329 47.633 40.4717 47.633 40.6416C47.633 41.2656 36.9363 52.112 34.509 53.9499C31.5414 56.1965 29.6938 56.7767 26.3551 56.5114C21.0479 56.0899 14.1893 51.3054 11.024 45.8162C8.65983 41.7174 7.90669 38.345 7.89312 31.8009C7.88032 25.464 8.28287 23.2938 10.2375 19.1589C13.423 12.4194 19.3771 8.06929 26.8849 6.99621C31.0609 6.39936 53.9471 5.98323 53.9921 6.59288C54.0115 6.85969 53.9467 7.99871 53.9921 8.53196C54.0374 9.06521 54.1088 12.8674 54.1503 16.9817V24.2385H57.7846H61.4005L61.4738 12.1193L61.5475 0L42.8586 0.04266C32.58 0.065929 23.398 0.236567 22.4541 0.421556Z" fill="black" fill-opacity="0.8"/>
</g>
<g id="avangard building">
<path d="M91.6654 27.9232H88.1585L86.8519 22.1126L87.2645 22.4564H78.1876L78.6002 22.1126L77.1218 27.9232H73.8555L78.8065 9.5287C79.0816 8.58892 79.3566 7.8669 79.6317 7.36263C79.9067 6.83543 80.2964 6.46869 80.8007 6.2624C81.3279 6.0561 82.0499 5.96442 82.9667 5.98734L86.5425 6.09049L91.6654 27.9232ZM81.8665 9.49432L79.1847 19.809L78.9096 19.4652H86.6113L86.3362 19.809L83.8951 9.11612H82.2791C82.1416 9.11612 82.0499 9.1505 82.004 9.21926C81.9582 9.26511 81.9124 9.35679 81.8665 9.49432Z" fill="black" fill-opacity="0.8"/>
<path d="M105.009 24.4162C104.757 25.4018 104.493 26.1582 104.218 26.6854C103.966 27.1897 103.599 27.545 103.118 27.7513C102.636 27.9346 101.949 28.0149 101.055 27.9919L97.3071 27.9232L92.2529 6.09049H95.7255L100.023 24.8632H101.433C101.57 24.8632 101.662 24.8402 101.708 24.7944C101.754 24.7256 101.788 24.6225 101.811 24.485L106.418 6.09049H109.719L105.009 24.4162Z" fill="black" fill-opacity="0.8"/>
<path d="M127.29 27.9232H123.783L122.476 22.1126L122.889 22.4564H113.812L114.225 22.1126L112.746 27.9232H109.48L114.431 9.5287C114.706 8.58892 114.981 7.8669 115.256 7.36263C115.531 6.83543 115.921 6.46869 116.425 6.2624C116.952 6.0561 117.674 5.96442 118.591 5.98734L122.167 6.09049L127.29 27.9232ZM117.491 9.49432L114.809 19.809L114.534 19.4652H122.236L121.961 19.809L119.52 9.11612H117.904C117.766 9.11612 117.674 9.1505 117.629 9.21926C117.583 9.26511 117.537 9.35679 117.491 9.49432Z" fill="black" fill-opacity="0.8"/>
<path d="M142.284 22.7658V6.09049H145.344V27.9232H142.902L132.175 11.4197L132.828 11.2134V27.9232H129.803V6.09049H132.244L142.937 22.5252L142.284 22.7658Z" fill="black" fill-opacity="0.8"/>
<path d="M159.374 28.1982H154.526C152.876 28.1982 151.638 27.8429 150.813 27.1324C150.011 26.4218 149.61 25.2987 149.61 23.7629V10.2507C149.61 8.69207 150.011 7.56892 150.813 6.88128C151.638 6.17071 152.876 5.81543 154.526 5.81543H163.913V8.97859H153.564C153.311 8.97859 153.185 9.10466 153.185 9.35679V24.6569C153.185 24.909 153.311 25.0351 153.564 25.0351H160.543C160.772 25.0351 160.887 24.909 160.887 24.6569V18.5712L161.3 19.1557H157.483V16.1988H164.291V23.7629C164.291 25.2987 163.89 26.4218 163.087 27.1324C162.285 27.8429 161.047 28.1982 159.374 28.1982Z" fill="black" fill-opacity="0.8"/>
<path d="M183.866 27.9232H180.359L179.053 22.1126L179.465 22.4564H170.388L170.801 22.1126L169.322 27.9232H166.056L171.007 9.5287C171.282 8.58892 171.557 7.8669 171.832 7.36263C172.107 6.83543 172.497 6.46869 173.001 6.2624C173.529 6.0561 174.251 5.96442 175.167 5.98734L178.743 6.09049L183.866 27.9232ZM174.067 9.49432L171.385 19.809L171.11 19.4652H178.812L178.537 19.809L176.096 9.11612H174.48C174.342 9.11612 174.251 9.1505 174.205 9.21926C174.159 9.26511 174.113 9.35679 174.067 9.49432Z" fill="black" fill-opacity="0.8"/>
<path d="M190.195 27.9232H186.654V6.09049L195.868 5.95296C197.588 5.90711 198.883 6.28532 199.754 7.08757C200.625 7.88982 201.06 9.08174 201.06 10.6633V14.5485C201.06 15.855 200.716 16.9209 200.029 17.746C199.341 18.5483 198.298 19.0526 196.9 19.2589L196.934 18.5368C197.576 18.6744 198.08 18.9494 198.447 19.362C198.837 19.7517 199.169 20.3476 199.444 21.1499L201.817 27.9232H198.275L195.525 19.809C195.479 19.6485 195.421 19.5339 195.353 19.4652C195.284 19.3964 195.158 19.362 194.974 19.362H189.508L190.161 18.7431L190.195 27.9232ZM190.161 8.35971V16.9209L189.611 16.3364H197.037C197.335 16.3364 197.484 16.1874 197.484 15.8894V9.45994C197.484 9.16196 197.335 9.01297 197.037 9.01297H189.645L190.161 8.35971Z" fill="black" fill-opacity="0.8"/>
<path d="M215.98 8.97859H208.794V25.0351H215.98C216.278 25.0351 216.427 24.8861 216.427 24.5881V9.42556C216.427 9.12758 216.278 8.97859 215.98 8.97859ZM205.287 27.9232V6.09049L214.811 5.91858C216.576 5.87273 217.883 6.23948 218.731 7.0188C219.579 7.77521 220.003 8.99005 220.003 10.6633V23.3503C220.003 25.0236 219.567 26.2384 218.696 26.9949C217.825 27.7513 216.507 28.118 214.742 28.0951L205.287 27.9232Z" fill="black" fill-opacity="0.8"/>
<path d="M87.3161 52.7812C87.3161 53.9655 86.9723 54.8728 86.2846 55.5031C85.597 56.1334 84.6037 56.4391 83.3048 56.42L75.5402 56.3053V38.1114L82.961 37.9968C84.2599 37.9777 85.2341 38.2643 85.8835 38.8564C86.552 39.4485 86.8863 40.3558 86.8863 41.5783V44.3575C86.8863 45.4845 86.5425 46.2868 85.8548 46.7643C85.1672 47.2418 84.1739 47.4806 82.8751 47.4806L83.2475 46.6497C84.6228 46.6306 85.6447 46.8598 86.3133 47.3373C86.9818 47.7958 87.3161 48.6267 87.3161 49.83V52.7812ZM77.861 47.5665V54.7581L77.4312 54.357H84.5369C84.7661 54.357 84.8807 54.2329 84.8807 53.9846V48.3688C84.8807 48.1396 84.7661 48.025 84.5369 48.025H77.4599L77.861 47.5665ZM77.861 39.544V46.5064L77.4599 46.0766H84.1071C84.3363 46.0766 84.4509 45.9525 84.4509 45.7042V40.3749C84.4509 40.1266 84.3363 40.0025 84.1071 40.0025H77.4885L77.861 39.544Z" fill="black" fill-opacity="0.8"/>
<path d="M99.5775 56.5059H94.4775C93.2359 56.5059 92.319 56.2576 91.7269 55.761C91.1348 55.2452 90.8387 54.3952 90.8387 53.211V38.1114H93.2454V54.0992C93.2454 54.2902 93.3314 54.3857 93.5033 54.3857H100.552C100.743 54.3857 100.838 54.2902 100.838 54.0992V38.1114H103.245V53.211C103.245 54.3952 102.949 55.2452 102.357 55.761C101.765 56.2576 100.838 56.5059 99.5775 56.5059Z" fill="black" fill-opacity="0.8"/>
<path d="M109.739 56.3053H107.418V38.1114H109.739V56.3053Z" fill="black" fill-opacity="0.8"/>
<path d="M123.377 54.2711V56.3053H114.237V38.1114H116.558V54.7008L116.128 54.2711H123.377Z" fill="black" fill-opacity="0.8"/>
<path d="M134.594 40.0311H127.918V54.3857H134.594C134.823 54.3857 134.937 54.2615 134.937 54.0132V40.4036C134.937 40.1553 134.823 40.0311 134.594 40.0311ZM125.597 56.334V38.1114L133.448 37.9682C134.785 37.9491 135.768 38.2261 136.399 38.7991C137.048 39.3721 137.373 40.2985 137.373 41.5783V52.8385C137.373 54.1183 137.029 55.0447 136.341 55.6177C135.673 56.1907 134.68 56.4677 133.362 56.4486L125.597 56.334Z" fill="black" fill-opacity="0.8"/>
<path d="M143.875 56.3053H141.554V38.1114H143.875V56.3053Z" fill="black" fill-opacity="0.8"/>
<path d="M158.688 52.9531V38.1114H160.722V56.3053H159.117L149.777 41.6929L150.293 41.4351V56.3053H148.23V38.1114H149.863L159.203 52.6952L158.688 52.9531Z" fill="black" fill-opacity="0.8"/>
<path d="M172.707 56.5059H168.094C166.852 56.5059 165.935 56.2576 165.343 55.761C164.751 55.2452 164.455 54.3952 164.455 53.211V41.2058C164.455 40.0216 164.751 39.1811 165.343 38.6845C165.935 38.1687 166.852 37.9109 168.094 37.9109H176.03V40.0311H167.119C166.948 40.0311 166.862 40.1266 166.862 40.3176V54.0992C166.862 54.2902 166.948 54.3857 167.119 54.3857H173.767C173.958 54.3857 174.053 54.2902 174.053 54.0992V48.3401L174.34 48.7413H170.816V46.7643H176.345V53.211C176.345 54.3952 176.049 55.2452 175.457 55.761C174.865 56.2576 173.948 56.5059 172.707 56.5059Z" fill="black" fill-opacity="0.8"/>
</g>
</g>
</svg>
