<svg width="220" height="72" viewBox="0 0 220 72" fill="none" xmlns="http://www.w3.org/2000/svg">
<path d="M154.245 21.6758C145.623 20.6637 139.434 21.2496 128.512 24.2703C141.907 22.5046 148.131 22.0671 152.53 22.5406C152.222 24.4455 151.044 26.5689 147.383 32.0539C151.007 28.3671 152.524 26.1005 154.245 21.6758Z" fill="#797979"/>
<path d="M108.474 0.911436C97.2 -1.68368 89.9789 1.0211 79.856 12.158L85.0592 11.293C76.755 15.7659 73.3966 19.1342 70.3167 26.0001C78.1642 21.2129 87.0175 19.279 92.864 17.3491C74.7945 24.8194 65.0164 30.3273 49.5039 38.9771C92.5908 24.2815 124.083 16.4839 160.506 17.3491C156.861 27.6931 153.094 33.1916 143.162 42.4376C158.808 30.6541 164.844 23.6744 170.045 10.4281C139.391 10.8093 134.645 13.7549 112.81 16.4839C122.854 12.5918 128.878 11.3031 139.693 10.4281C135.076 3.29364 122.97 7.21949 98.0672 12.1583L123.216 4.37219C119.922 0.837038 115.411 0.911691 101.536 3.50706L108.474 0.911436Z" fill="#E0B974"/>
<path d="M1.01579 71.7831C0.684721 71.7831 0.428891 71.7003 0.248305 71.5348C0.0827685 71.3542 0 71.0984 0 70.7673V56.8847C0 56.5537 0.0827685 56.3054 0.248305 56.1398C0.428891 55.9592 0.684721 55.8689 1.01579 55.8689H6.36565C7.46421 55.8689 8.38971 56.0345 9.14215 56.3656C9.90964 56.6816 10.4965 57.1481 10.9029 57.7651C11.3092 58.3821 11.5123 59.1345 11.5123 60.0224C11.5123 61.0156 11.2189 61.8433 10.632 62.5055C10.0601 63.1676 9.27759 63.604 8.28437 63.8147V63.4987C9.41303 63.6341 10.2934 64.0405 10.9254 64.7177C11.5725 65.3948 11.8961 66.2903 11.8961 67.4039C11.8961 68.8185 11.4371 69.902 10.5191 70.6544C9.60114 71.4069 8.30694 71.7831 6.63653 71.7831H1.01579ZM1.80586 70.2932H6.45594C7.65985 70.2932 8.56277 70.0525 9.16473 69.5709C9.76668 69.0893 10.0677 68.3595 10.0677 67.3813C10.0677 66.3881 9.76668 65.6582 9.16473 65.1917C8.56277 64.7101 7.65985 64.4693 6.45594 64.4693H1.80586V70.2932ZM1.80586 62.9795H6.09477C7.26858 62.9795 8.15646 62.7387 8.75841 62.2572C9.37541 61.7756 9.68391 61.0834 9.68391 60.1804C9.68391 59.2474 9.37541 58.5476 8.75841 58.0811C8.15646 57.5996 7.26858 57.3588 6.09477 57.3588H1.80586V62.9795Z" fill="black"/>
<path d="M26.3606 71.7831C26.0596 71.7831 25.8263 71.7003 25.6608 71.5348C25.4953 71.3542 25.4125 71.1134 25.4125 70.8124V56.7267C25.4125 56.4107 25.4877 56.1699 25.6382 56.0044C25.8038 55.8389 26.037 55.7561 26.338 55.7561C26.639 55.7561 26.8647 55.8389 27.0152 56.0044C27.1807 56.1699 27.2635 56.4107 27.2635 56.7267V70.1578H34.6675C34.9384 70.1578 35.1491 70.233 35.2996 70.3835C35.4501 70.519 35.5253 70.7146 35.5253 70.9704C35.5253 71.2263 35.4501 71.4294 35.2996 71.5799C35.1491 71.7154 34.9384 71.7831 34.6675 71.7831H26.3606Z" fill="black"/>
<path d="M53.5072 71.9862C52.4538 71.9862 51.5282 71.8508 50.7307 71.5799C49.9481 71.294 49.286 70.8801 48.7442 70.3384C48.2025 69.7816 47.7961 69.0969 47.5253 68.2842C47.2544 67.4716 47.1189 66.5386 47.1189 65.4851V56.659C47.1189 56.343 47.1942 56.1097 47.3447 55.9592C47.5102 55.7937 47.7435 55.7109 48.0444 55.7109C48.3454 55.7109 48.5712 55.7937 48.7216 55.9592C48.8872 56.1097 48.97 56.343 48.97 56.659V65.3948C48.97 67.0502 49.3537 68.2917 50.1212 69.1194C50.8887 69.9321 52.0173 70.3384 53.5072 70.3384C54.997 70.3384 56.1181 69.9321 56.8706 69.1194C57.623 68.2917 57.9992 67.0502 57.9992 65.3948V56.659C57.9992 56.343 58.082 56.1097 58.2475 55.9592C58.4131 55.7937 58.6463 55.7109 58.9473 55.7109C59.2332 55.7109 59.4515 55.7937 59.6019 55.9592C59.7675 56.1097 59.8502 56.343 59.8502 56.659V65.4851C59.8502 66.8847 59.6095 68.0735 59.1279 69.0517C58.6614 70.0299 57.9541 70.7673 57.006 71.2639C56.0579 71.7454 54.8917 71.9862 53.5072 71.9862Z" fill="black"/>
<path d="M74.8285 71.7831C74.4974 71.7831 74.2416 71.7003 74.061 71.5348C73.8954 71.3542 73.8127 71.0984 73.8127 70.7673V56.8847C73.8127 56.5537 73.8954 56.3054 74.061 56.1398C74.2416 55.9592 74.4974 55.8689 74.8285 55.8689H83.2257C83.4815 55.8689 83.6772 55.9367 83.8126 56.0721C83.948 56.2075 84.0158 56.3957 84.0158 56.6364C84.0158 56.8923 83.948 57.0879 83.8126 57.2233C83.6772 57.3588 83.4815 57.4265 83.2257 57.4265H73.8127V62.9344H82.7517C83.0075 62.9344 83.2031 63.0021 83.3386 63.1375C83.474 63.2579 83.5417 63.446 83.5417 63.7019C83.5417 63.9577 83.474 64.1533 83.3386 64.2888C83.2031 64.4242 83.0075 64.4919 82.7517 64.4919H75.6185V70.2255H83.2257C83.4815 70.2255 83.6772 70.2932 83.8126 70.4287C83.948 70.5641 84.0158 70.7522 84.0158 70.993C84.0158 71.2488 83.948 71.4445 83.8126 71.5799C83.6772 71.7154 83.4815 71.7831 83.2257 71.7831H74.8285Z" fill="black"/>
<path d="M115.597 71.9411C115.296 71.9411 115.063 71.8583 114.898 71.6928C114.747 71.5122 114.672 71.2714 114.672 70.9704V56.817C114.672 56.501 114.755 56.2677 114.92 56.1173C115.086 55.9517 115.319 55.8689 115.62 55.8689H120.97C122.67 55.8689 123.98 56.2903 124.898 57.133C125.816 57.9607 126.275 59.1345 126.275 60.6545C126.275 62.1594 125.816 63.3332 124.898 64.1759C123.98 65.0186 122.67 65.44 120.97 65.44H116.523V70.9704C116.523 71.2714 116.448 71.5122 116.297 71.6928C116.147 71.8583 115.913 71.9411 115.597 71.9411ZM116.523 63.8824H120.744C121.963 63.8824 122.881 63.6116 123.498 63.0698C124.13 62.513 124.446 61.7079 124.446 60.6545C124.446 59.586 124.13 58.7809 123.498 58.2391C122.881 57.6823 121.963 57.4039 120.744 57.4039H116.523V63.8824Z" fill="black"/>
<path d="M140.04 71.9411C139.739 71.9411 139.506 71.8583 139.34 71.6928C139.19 71.5122 139.115 71.2714 139.115 70.9704V56.817C139.115 56.501 139.197 56.2677 139.363 56.1173C139.528 55.9517 139.762 55.8689 140.063 55.8689H145.412C147.113 55.8689 148.422 56.2677 149.34 57.0653C150.258 57.8629 150.717 58.9991 150.717 60.4739C150.717 61.4069 150.506 62.2195 150.085 62.9118C149.679 63.589 149.077 64.1082 148.279 64.4693C147.482 64.8155 146.526 64.9885 145.412 64.9885L145.638 64.6951H146.09C146.677 64.6951 147.188 64.8456 147.625 65.1465C148.061 65.4475 148.46 65.9291 148.821 66.5912L150.988 70.6318C151.108 70.8425 151.161 71.0532 151.146 71.2639C151.146 71.4595 151.078 71.6251 150.943 71.7605C150.807 71.8809 150.612 71.9411 150.356 71.9411C150.1 71.9411 149.889 71.8809 149.724 71.7605C149.558 71.6401 149.415 71.467 149.295 71.2413L146.835 66.6815C146.488 66.0344 146.09 65.6055 145.638 65.3948C145.187 65.1691 144.592 65.0563 143.855 65.0563H140.966V70.9704C140.966 71.2714 140.89 71.5122 140.74 71.6928C140.589 71.8583 140.356 71.9411 140.04 71.9411ZM140.966 63.589H145.142C146.376 63.589 147.309 63.3332 147.941 62.8215C148.573 62.2948 148.889 61.5123 148.889 60.4739C148.889 59.4656 148.573 58.7057 147.941 58.194C147.309 57.6673 146.376 57.4039 145.142 57.4039H140.966V63.589Z" fill="black"/>
<path d="M165.298 71.9411C164.997 71.9411 164.764 71.8583 164.598 71.6928C164.448 71.5122 164.373 71.2714 164.373 70.9704V56.6816C164.373 56.3656 164.448 56.1248 164.598 55.9592C164.764 55.7937 164.997 55.7109 165.298 55.7109C165.599 55.7109 165.825 55.7937 165.975 55.9592C166.141 56.1248 166.224 56.3656 166.224 56.6816V70.9704C166.224 71.2714 166.148 71.5122 165.998 71.6928C165.847 71.8583 165.614 71.9411 165.298 71.9411Z" fill="black"/>
<path d="M181.231 71.9411C180.96 71.9411 180.75 71.8658 180.599 71.7154C180.449 71.5498 180.373 71.3241 180.373 71.0382V56.6139C180.373 56.3129 180.449 56.0872 180.599 55.9367C180.75 55.7862 180.96 55.7109 181.231 55.7109C181.472 55.7109 181.66 55.7636 181.796 55.8689C181.946 55.9592 182.081 56.1173 182.202 56.343L188.387 67.9908H187.71L193.872 56.343C193.993 56.1173 194.12 55.9592 194.256 55.8689C194.391 55.7636 194.587 55.7109 194.843 55.7109C195.099 55.7109 195.302 55.7862 195.452 55.9367C195.603 56.0872 195.678 56.3129 195.678 56.6139V71.0382C195.678 71.3241 195.603 71.5498 195.452 71.7154C195.317 71.8658 195.106 71.9411 194.82 71.9411C194.549 71.9411 194.339 71.8658 194.188 71.7154C194.038 71.5498 193.962 71.3241 193.962 71.0382V58.352H194.504L188.861 68.9388C188.756 69.1345 188.643 69.2774 188.522 69.3677C188.417 69.443 188.259 69.4806 188.048 69.4806C187.838 69.4806 187.672 69.4355 187.552 69.3452C187.431 69.2549 187.326 69.1194 187.236 68.9388L181.525 58.3294H182.066V71.0382C182.066 71.3241 181.991 71.5498 181.841 71.7154C181.705 71.8658 181.502 71.9411 181.231 71.9411Z" fill="black"/>
<path d="M210.813 71.7831C210.482 71.7831 210.226 71.7003 210.045 71.5348C209.88 71.3542 209.797 71.0984 209.797 70.7673V56.8847C209.797 56.5537 209.88 56.3054 210.045 56.1398C210.226 55.9592 210.482 55.8689 210.813 55.8689H219.21C219.466 55.8689 219.661 55.9367 219.797 56.0721C219.932 56.2075 220 56.3957 220 56.6364C220 56.8923 219.932 57.0879 219.797 57.2233C219.661 57.3588 219.466 57.4265 219.21 57.4265H209.797V62.9344H218.736C218.992 62.9344 219.187 63.0021 219.323 63.1375C219.458 63.2579 219.526 63.446 219.526 63.7019C219.526 63.9577 219.458 64.1533 219.323 64.2888C219.187 64.4242 218.992 64.4919 218.736 64.4919H211.603V70.2255H219.21C219.466 70.2255 219.661 70.2932 219.797 70.4287C219.932 70.5641 220 70.7522 220 70.993C220 71.2488 219.932 71.4445 219.797 71.5799C219.661 71.7154 219.466 71.7831 219.21 71.7831H210.813Z" fill="black"/>
</svg>
