<svg width="128" height="100" viewBox="0 0 128 100" fill="none" xmlns="http://www.w3.org/2000/svg">
<g id="cashyou">
<g id="Group 2155" filter="url(#filter0_b_0_166)">
<path id="CashYou 1 (Traced)" fill-rule="evenodd" clip-rule="evenodd" d="M85.5795 1.13125C83.6433 2.06671 83.4473 2.75799 83.9407 6.92382C84.3165 10.0959 84.016 12.5807 83.0283 14.4667L81.5543 17.2791L79.2463 12.5104C77.6578 9.2288 75.5126 6.83942 72.3646 4.84292C67.3256 1.64671 61.1512 0.880055 61.1512 3.44928C61.1512 6.17526 57.4827 8.69525 52.494 9.39659C39.9181 11.164 31.277 16.7637 26.2019 26.4357C23.8848 30.8497 23.5 32.8 23.5 40.1238C23.5 47.4477 23.8848 49.398 26.2019 53.812C27.6869 56.6435 30.9846 60.7922 33.5277 63.0309C40.9762 69.5881 44.295 70.2673 68.8659 70.2673H90.2899V67.3886C90.2899 63.9764 86.9902 59.4388 83.5599 58.1346C81.6036 57.391 81.2529 56.75 81.8156 54.9434C83.7729 48.6625 84.1788 48.1621 87.3167 48.1621C89.0249 48.1621 91.2917 47.6969 92.3547 47.1272C94.7963 45.8209 97.3234 41.007 97.3234 37.6621C97.3234 35.4848 96.8702 35.0999 94.309 35.0999C89.8699 35.0999 90.6365 33.3014 96.0674 30.9733C102.681 28.1388 104.357 26.3694 104.357 22.2216C104.357 16.9616 100.243 10.742 94.8827 7.89846C91.9759 6.35612 89.9664 4.47014 89.3514 2.70474C88.8199 1.18049 88.2482 -0.0373078 88.0814 0.000873908C87.9146 0.0380509 86.7882 0.546471 85.5795 1.13125Z" fill="#EF9840"/>
<path id="CashYou 3 (Traced)" fill-rule="evenodd" clip-rule="evenodd" d="M63.4713 3.81807C64.0299 7.6282 60.8331 11.9762 55.6826 13.5196C49.6871 15.3161 42.4376 22.856 40.1849 29.6393C36.5084 40.71 40.3044 55.2291 49.1053 63.7597L53.1862 68.4849L50.8918 59.617C49.7424 53.945 49.6359 50.7166 50.4166 45.2235C52.0986 33.3982 57.643 27.2308 69.3045 24.2175C76.1279 22.4531 80.2365 19.8447 80.6123 17.0373C80.1615 11.2086 73.4841 3.38903 65.75 2.09362C63.1633 1.97046 63.1035 1.31013 63.4713 3.81807Z" fill="#F15B01"/>
</g>
<g id="Vector">
<path d="M12.5436 92.5952H17.5957C17.5284 94.0579 17.1338 95.3474 16.4121 96.4637C15.6904 97.5799 14.6896 98.4508 13.4097 99.0763C12.1395 99.6922 10.6383 100 8.90613 100C7.50116 100 6.24535 99.7644 5.1387 99.2928C4.04168 98.8213 3.10824 98.1429 2.3384 97.2576C1.57818 96.3723 0.995985 95.2993 0.591817 94.0387C0.197272 92.778 0 91.3586 0 89.7805V88.6401C0 87.062 0.206895 85.6426 0.620686 84.3819C1.0441 83.1117 1.64073 82.0339 2.41057 81.1486C3.19004 80.2537 4.12347 79.5704 5.21088 79.0989C6.29828 78.6274 7.50597 78.3916 8.83395 78.3916C10.6623 78.3916 12.2068 78.7188 13.4674 79.3732C14.7281 80.0275 15.7048 80.9273 16.3977 82.0724C17.0905 83.2079 17.4995 84.5022 17.6246 85.9553H12.5725C12.5533 85.1662 12.4185 84.507 12.1683 83.9778C11.9181 83.4389 11.5236 83.0347 10.9847 82.7653C10.4458 82.4958 9.7289 82.3611 8.83395 82.3611C8.20846 82.3611 7.66475 82.4766 7.20285 82.7075C6.74094 82.9385 6.35602 83.3042 6.04808 83.8046C5.74014 84.305 5.50919 84.9545 5.35522 85.7532C5.21088 86.5423 5.1387 87.495 5.1387 88.6113V89.7805C5.1387 90.8967 5.20607 91.8494 5.34079 92.6385C5.47551 93.4276 5.69203 94.0723 5.99034 94.5727C6.28866 95.0731 6.67358 95.4436 7.14511 95.6842C7.62626 95.9152 8.21327 96.0306 8.90613 96.0306C9.67597 96.0306 10.3255 95.9103 10.8548 95.6698C11.3841 95.4196 11.793 95.0443 12.0817 94.5439C12.3704 94.0339 12.5244 93.3843 12.5436 92.5952Z" fill="#F15A01"/>
<path d="M27.443 83.1781L22.3187 99.7778H16.8769L24.5994 78.7611H28.0492L27.443 83.1781ZM31.6868 99.7778L26.548 83.1781L25.8841 78.7611H29.3772L37.143 99.7778H31.6868ZM29.2604 91.9399L30.4713 95.8516H23.5307L24.7383 91.9399H29.2604Z" fill="#F15A01"/>
<path d="M48.0122 94.1253C48.0122 93.7981 47.9641 93.5046 47.8679 93.2448C47.7717 92.9753 47.5936 92.7251 47.3338 92.4942C47.074 92.2632 46.6987 92.0323 46.2079 91.8013C45.7268 91.5607 45.0916 91.3105 44.3026 91.0507C43.3787 90.7428 42.4886 90.3963 41.6322 90.0114C40.7757 89.6169 40.0107 89.1598 39.3371 88.6401C38.6635 88.1109 38.1294 87.495 37.7348 86.7925C37.3403 86.0804 37.143 85.2528 37.143 84.3098C37.143 83.4052 37.3451 82.5921 37.7493 81.8703C38.1534 81.139 38.7164 80.5183 39.4381 80.0083C40.1695 79.4886 41.0259 79.0941 42.0075 78.8246C42.989 78.5456 44.062 78.406 45.2264 78.406C46.7661 78.406 48.1229 78.6755 49.2969 79.2144C50.4806 79.7436 51.4044 80.499 52.0684 81.4806C52.742 82.4525 53.0788 83.6025 53.0788 84.9305H48.0411C48.0411 84.4012 47.9304 83.9345 47.7091 83.5303C47.4974 83.1261 47.175 82.8086 46.742 82.5776C46.309 82.3467 45.7653 82.2312 45.1109 82.2312C44.4758 82.2312 43.9417 82.3274 43.5087 82.5199C43.0756 82.7123 42.7484 82.9722 42.5271 83.2994C42.3058 83.6169 42.1951 83.9682 42.1951 84.3531C42.1951 84.6706 42.2817 84.9593 42.4549 85.2191C42.6378 85.4693 42.8928 85.7051 43.22 85.9264C43.5568 86.1478 43.9609 86.3595 44.4325 86.5616C44.9136 86.7636 45.4525 86.9609 46.0491 87.1534C47.1654 87.5094 48.1566 87.9088 49.0227 88.3514C49.8984 88.7845 50.6345 89.2801 51.2312 89.8382C51.8374 90.3867 52.2945 91.0122 52.6024 91.7147C52.92 92.4172 53.0788 93.2111 53.0788 94.0964C53.0788 95.0395 52.8959 95.8767 52.5303 96.608C52.1646 97.3394 51.6401 97.9601 50.9569 98.4701C50.2737 98.9705 49.4557 99.3506 48.503 99.6104C47.5503 99.8702 46.487 100 45.313 100C44.2352 100 43.1719 99.8654 42.1229 99.596C41.0837 99.3169 40.1406 98.8935 39.2938 98.3257C38.4469 97.7483 37.7685 97.0122 37.2585 96.1172C36.7581 95.2127 36.5079 94.1397 36.5079 92.8983H41.5889C41.5889 93.5142 41.6707 94.0339 41.8343 94.4573C41.9978 94.8807 42.2384 95.2223 42.556 95.4821C42.8735 95.7323 43.2633 95.9152 43.7252 96.0306C44.1871 96.1365 44.7164 96.1894 45.313 96.1894C45.9577 96.1894 46.4774 96.098 46.8719 95.9152C47.2665 95.7227 47.5551 95.4725 47.738 95.1646C47.9208 94.847 48.0122 94.5006 48.0122 94.1253Z" fill="#F15A01"/>
<path d="M66.7281 87.0379V90.9352H59.2799V87.0379H66.7281ZM59.2799 78.6947V99.7114H54.2133V78.6947H59.2799ZM71.7802 78.6947V99.7114H66.7281V78.6947H71.7802Z" fill="#F15A01"/>
<path d="M78.9234 78.6947L82.7918 87.8174L86.6747 78.6947H92.131L85.3756 92.1622V99.7114H80.2225V92.1622L73.4527 78.6947H78.9234Z" fill="#3D3E40"/>
<path d="M109.548 88.7845V89.6361C109.548 91.2432 109.322 92.6866 108.869 93.9665C108.427 95.2367 107.796 96.3241 106.978 97.2287C106.16 98.1236 105.193 98.8117 104.077 99.2928C102.961 99.7644 101.729 100 100.382 100C99.0249 100 97.7836 99.7644 96.6577 99.2928C95.5414 98.8117 94.5695 98.1236 93.7419 97.2287C92.9239 96.3241 92.2888 95.2367 91.8365 93.9665C91.3939 92.6866 91.1725 91.2432 91.1725 89.6361V88.7845C91.1725 87.1774 91.3939 85.734 91.8365 84.4541C92.2888 83.1743 92.9191 82.0868 93.7275 81.1919C94.5454 80.2873 95.5125 79.5993 96.6288 79.1278C97.7547 78.6466 98.9961 78.406 100.353 78.406C101.7 78.406 102.932 78.6466 104.048 79.1278C105.174 79.5993 106.146 80.2873 106.964 81.1919C107.782 82.0868 108.417 83.1743 108.869 84.4541C109.322 85.734 109.548 87.1774 109.548 88.7845ZM104.409 89.6361V88.7556C104.409 87.7163 104.318 86.8021 104.135 86.0131C103.962 85.2143 103.702 84.5455 103.355 84.0066C103.009 83.4678 102.581 83.0636 102.071 82.7941C101.57 82.5151 100.998 82.3755 100.353 82.3755C99.6793 82.3755 99.0923 82.5151 98.5919 82.7941C98.0915 83.0636 97.6729 83.4678 97.3361 84.0066C96.9993 84.5455 96.7443 85.2143 96.5711 86.0131C96.4075 86.8021 96.3257 87.7163 96.3257 88.7556V89.6361C96.3257 90.6658 96.4075 91.58 96.5711 92.3787C96.7443 93.1678 96.9993 93.8366 97.3361 94.3851C97.6825 94.9336 98.1059 95.3474 98.6063 95.6265C99.1164 95.9055 99.7082 96.0451 100.382 96.0451C101.027 96.0451 101.599 95.9055 102.1 95.6265C102.6 95.3474 103.019 94.9336 103.355 94.3851C103.702 93.8366 103.962 93.1678 104.135 92.3787C104.318 91.58 104.409 90.6658 104.409 89.6361Z" fill="#3D3E40"/>
<path d="M122.1 78.6947H127.167V92.422C127.167 94.0579 126.825 95.4436 126.142 96.5791C125.458 97.705 124.501 98.5567 123.269 99.1341C122.037 99.7114 120.589 100 118.924 100C117.279 100 115.831 99.7114 114.58 99.1341C113.338 98.5567 112.366 97.705 111.664 96.5791C110.971 95.4436 110.625 94.0579 110.625 92.422V78.6947H115.706V92.422C115.706 93.2881 115.831 93.9954 116.081 94.5439C116.331 95.0828 116.697 95.4773 117.178 95.7275C117.659 95.9777 118.241 96.1028 118.924 96.1028C119.617 96.1028 120.199 95.9777 120.671 95.7275C121.143 95.4773 121.499 95.0828 121.739 94.5439C121.98 93.9954 122.1 93.2881 122.1 92.422V78.6947Z" fill="#3D3E40"/>
<path d="M25.2258 78.7611H28.5516V84.6119H25.349L25.2258 78.7611Z" fill="#F15A01"/>
</g>
</g>
<defs>
<filter id="filter0_b_0_166" x="19.5" y="-4" width="88.8568" height="78.2671" filterUnits="userSpaceOnUse" color-interpolation-filters="sRGB">
<feFlood flood-opacity="0" result="BackgroundImageFix"/>
<feGaussianBlur in="BackgroundImageFix" stdDeviation="2"/>
<feComposite in2="SourceAlpha" operator="in" result="effect1_backgroundBlur_0_166"/>
<feBlend mode="normal" in="SourceGraphic" in2="effect1_backgroundBlur_0_166" result="shape"/>
</filter>
</defs>
</svg>
