<svg width="129" height="100" viewBox="0 0 129 100" fill="none" xmlns="http://www.w3.org/2000/svg">
<path d="M66.9018 73.2394V4.92958L23.2399 28.8732V69.3662H38.3807V62.6761H29.2258V42.9577L56.6906 29.5775V25.7042L38.3807 34.2009V28.169L61.268 17.2535V72.8873H55.6342V45.4225H43.6624V49.2958H51.761V78.169L48.9441 78.2085V72.8873H19.7188V26.7606L67.9582 0L97.8878 15.1408V27.8169L77.8173 17.9577V22.1831L107.747 36.9718V59.507H97.8878V72.8873H91.1976V56.338H104.578V39.0845L97.8878 35.5634L97.9195 52.1127H77.4652V33.8028L86.9723 38.7324V50H91.1976V36.6197L73.2399 27.4648V55.9859H87.3244V78.169H83.8033V73.2394H66.9018Z" fill="#26114A"/>
<path d="M4.91247 100C3.93266 100 3.07365 99.7722 2.33544 99.3159C1.59722 98.8427 1.02008 98.192 0.603992 97.3638C0.201331 96.5187 0 95.5384 0 94.4229V86.5638C0 85.4314 0.201331 84.4511 0.603992 83.6229C1.02008 82.7948 1.59722 82.1525 2.33544 81.6962C3.07365 81.2229 3.93266 80.9863 4.91247 80.9863C5.9057 80.9863 6.76471 81.2229 7.4895 81.6962C8.22772 82.1525 8.79815 82.7948 9.20081 83.6229C9.6169 84.4511 9.82494 85.4314 9.82494 86.5638H6.80498C6.80498 85.8201 6.6372 85.2539 6.30165 84.8652C5.97952 84.4765 5.51646 84.2821 4.91247 84.2821C4.30848 84.2821 3.83871 84.4765 3.50315 84.8652C3.18103 85.2539 3.01996 85.8201 3.01996 86.5638V94.4229C3.01996 95.1497 3.18103 95.7159 3.50315 96.1215C3.83871 96.5103 4.30848 96.7046 4.91247 96.7046C5.51646 96.7046 5.97952 96.5103 6.30165 96.1215C6.6372 95.7159 6.80498 95.1497 6.80498 94.4229V92.8258H4.63061V89.606H9.82494V94.4229C9.82494 95.5384 9.6169 96.5187 9.20081 97.3638C8.79815 98.192 8.22772 98.8427 7.4895 99.3159C6.76471 99.7722 5.9057 100 4.91247 100Z" fill="#26114A"/>
<path d="M12.5753 99.7469V81.2398H15.5953V96.1976H21.5345V99.7469H12.5753Z" fill="#26114A"/>
<path d="M24.144 99.7469V81.2398H33.2038V84.4849H27.1035V88.6427H32.4992V91.8877H27.1035V96.5018H33.2038V99.7469H24.144Z" fill="#26114A"/>
<path d="M34.9073 99.7469L38.5111 81.2398H42.3364L45.9805 99.7469H42.9001L42.1955 95.5638H38.6923L37.9876 99.7469H34.9073ZM39.1956 92.5215H41.672L40.9673 88.0596C40.8734 87.4173 40.7727 86.7835 40.6653 86.1582C40.5714 85.5159 40.4976 85.0173 40.4439 84.6624C40.3902 85.0173 40.3164 85.5075 40.2224 86.1328C40.1419 86.7582 40.0479 87.392 39.9406 88.0342L39.1956 92.5215Z" fill="#26114A"/>
<path d="M47.1202 99.7469V81.2398H50.5227L51.8716 87.0708C52.0192 87.6793 52.1266 88.2117 52.1937 88.668C52.2743 89.1244 52.3212 89.4455 52.3347 89.6314C52.3481 89.4455 52.3884 89.1244 52.4555 88.668C52.536 88.2117 52.6434 87.6793 52.7776 87.0708L54.1064 81.2398H57.5089V99.7469H54.7506V94.6765C54.7506 93.7469 54.7641 92.7751 54.7909 91.761C54.8312 90.73 54.8781 89.7075 54.9318 88.6934C54.9855 87.6793 55.0459 86.7328 55.113 85.8539C55.1801 84.9582 55.2405 84.1807 55.2942 83.5215L53.603 91.8877H51.0461L49.2744 83.5215C49.3415 84.1469 49.4087 84.899 49.4758 85.7779C49.5429 86.6398 49.6033 87.5779 49.657 88.592C49.7241 89.5891 49.7778 90.6117 49.818 91.6596C49.8583 92.7075 49.8784 93.7131 49.8784 94.6765V99.7469H47.1202Z" fill="#26114A"/>
<path d="M71.3447 99.7469V81.2398H74.3646V88.3384H77.747V81.2398H80.767V99.7469H77.747V91.8877H74.3646V99.7469H71.3447Z" fill="#26114A"/>
<path d="M87.9265 100C86.9467 100 86.0944 99.7722 85.3696 99.3159C84.6448 98.8427 84.081 98.192 83.6784 97.3638C83.2891 96.5187 83.0945 95.5384 83.0945 94.4229V86.5638C83.0945 85.4483 83.2891 84.4765 83.6784 83.6483C84.081 82.8032 84.6448 82.1525 85.3696 81.6962C86.0944 81.2229 86.9467 80.9863 87.9265 80.9863C88.9197 80.9863 89.772 81.2229 90.4834 81.6962C91.2082 82.1525 91.7652 82.8032 92.1544 83.6483C92.5571 84.4765 92.7584 85.4483 92.7584 86.5638V94.4229C92.7584 95.5384 92.5571 96.5187 92.1544 97.3638C91.7652 98.192 91.2082 98.8427 90.4834 99.3159C89.772 99.7722 88.9197 100 87.9265 100ZM87.9265 96.7046C88.5305 96.7046 88.9801 96.5103 89.2754 96.1215C89.5841 95.7159 89.7384 95.1497 89.7384 94.4229V86.5638C89.7384 85.8201 89.5908 85.2539 89.2955 84.8652C89.0002 84.4765 88.5439 84.2821 87.9265 84.2821C87.3091 84.2821 86.8527 84.4765 86.5574 84.8652C86.2621 85.2539 86.1145 85.8201 86.1145 86.5638V94.4229C86.1145 95.1497 86.2621 95.7159 86.5574 96.1215C86.8661 96.5103 87.3225 96.7046 87.9265 96.7046Z" fill="#26114A"/>
<path d="M99.7971 100C98.3073 100 97.1261 99.4934 96.2537 98.4793C95.3947 97.4652 94.9652 96.0793 94.9652 94.3215V81.2398H97.9851V94.2962C97.9851 95.0737 98.1395 95.6737 98.4482 96.0962C98.7703 96.5018 99.22 96.7046 99.7971 96.7046C100.361 96.7046 100.804 96.5018 101.126 96.0962C101.448 95.6737 101.609 95.0737 101.609 94.2962V81.2398H104.629V94.3215C104.629 96.0624 104.193 97.4483 103.32 98.4793C102.461 99.4934 101.287 100 99.7971 100Z" fill="#26114A"/>
<path d="M111.668 100C110.634 100 109.735 99.7807 108.97 99.3413C108.205 98.9018 107.614 98.2849 107.198 97.4906C106.782 96.6962 106.574 95.7582 106.574 94.6765H109.594C109.594 95.3018 109.782 95.8004 110.158 96.1722C110.547 96.5272 111.07 96.7046 111.728 96.7046C112.359 96.7046 112.849 96.5272 113.198 96.1722C113.56 95.8173 113.741 95.3272 113.741 94.7018C113.741 94.161 113.607 93.6962 113.339 93.3075C113.07 92.9187 112.695 92.6567 112.211 92.5215L110.722 92.0906C109.473 91.7187 108.5 91.0342 107.802 90.037C107.118 89.0229 106.775 87.7891 106.775 86.3356C106.775 85.2539 106.97 84.3159 107.359 83.5215C107.762 82.7103 108.326 82.0849 109.05 81.6455C109.775 81.206 110.634 80.9863 111.627 80.9863C113.131 80.9863 114.319 81.4596 115.191 82.406C116.077 83.3356 116.52 84.5948 116.52 86.1835H113.5C113.5 85.592 113.332 85.1272 112.997 84.7891C112.674 84.4511 112.205 84.2821 111.587 84.2821C111.01 84.2821 110.567 84.4511 110.258 84.7891C109.95 85.1103 109.795 85.5751 109.795 86.1835C109.795 86.7244 109.916 87.1891 110.158 87.5779C110.413 87.9497 110.768 88.2032 111.225 88.3384L112.795 88.7948C114.097 89.1666 115.084 89.8427 115.755 90.8229C116.426 91.7863 116.761 93.0201 116.761 94.5244C116.761 95.606 116.547 96.561 116.117 97.3891C115.701 98.2173 115.111 98.8596 114.345 99.3159C113.594 99.7722 112.701 100 111.668 100Z" fill="#26114A"/>
<path d="M119.109 99.7469V81.2398H128.169V84.4849H122.069V88.6427H127.464V91.8877H122.069V96.5018H128.169V99.7469H119.109Z" fill="#26114A"/>
</svg>
