<svg width="156" height="33" viewBox="0 0 156 33" fill="none" xmlns="http://www.w3.org/2000/svg">
<g id="intericco">
<g id="Group 2163">
<path id="Ellipse 56" d="M61.7943 32.2847C68.9318 32.2847 70.8973 31.9787 76.0994 26.1645L68.7553 21.7275C66.942 24.9513 57.9905 24.8129 56.1332 21.5745L46.2638 21.5744C48.5749 27.9124 54.6568 32.2847 61.7943 32.2847Z" fill="url(#paint0_linear_0_699)"/>
<g id="Group 2162">
<g id="Rectangle 708" filter="url(#filter0_d_0_699)">
<rect x="46.8699" y="21.2695" width="9.728" height="0.306006" fill="#02FF95"/>
</g>
<path id="Ellipse 55" d="M47.0217 10.7119C46.382 12.4778 45.9577 14.2314 45.9577 16.22C45.9577 18.1514 46.2647 19.8523 46.8697 21.5751H56.9017L55.9897 19.8921L78.1817 20.0451C79.33 16.4961 79.3245 14.5722 77.8777 10.7119H68.1497C68.7861 11.5146 69.098 12.1031 69.0617 12.854H55.9897C56.1104 12.0008 56.4838 11.4193 57.0537 10.7119H47.0217Z" fill="url(#paint1_linear_0_699)"/>
</g>
<g id="Group 2161">
<g id="Rectangle 706" filter="url(#filter1_d_0_699)">
<rect x="46.5739" y="10.4053" width="9.7922" height="0.306006" fill="#02FF95"/>
</g>
<g id="Rectangle 707" filter="url(#filter2_d_0_699)">
<rect x="67.6845" y="10.4053" width="9.48619" height="0.306006" fill="#02FF95"/>
</g>
<path id="Ellipse 54" d="M61.7948 0.000976562C54.6573 0.000976562 48.5767 4.37323 46.2656 10.7112H56.4397C58.253 7.48731 65.5986 7.47271 67.4559 10.7112H77.3253C75.0142 4.37323 68.9323 0.000976562 61.7948 0.000976562Z" fill="url(#paint2_linear_0_699)"/>
</g>
</g>
<g id="Vector">
<path d="M2.291 23.9913C1.96459 23.9913 1.71979 23.9015 1.55658 23.722C1.39338 23.5262 1.31178 23.2569 1.31178 22.9142V12.9016C1.31178 12.5589 1.39338 12.2978 1.55658 12.1183C1.71979 11.9387 1.96459 11.849 2.291 11.849C2.60108 11.849 2.84589 11.9387 3.02541 12.1183C3.20494 12.2978 3.2947 12.5589 3.2947 12.9016V22.9142C3.2947 23.2569 3.20494 23.5262 3.02541 23.722C2.86221 23.9015 2.6174 23.9913 2.291 23.9913ZM2.291 9.10716C1.88299 9.10716 1.56474 9.00108 1.33626 8.78892C1.10777 8.56043 0.99353 8.2585 0.99353 7.88314C0.99353 7.49145 1.10777 7.19768 1.33626 7.00184C1.56474 6.78968 1.88299 6.68359 2.291 6.68359C2.71533 6.68359 3.03357 6.78968 3.24574 7.00184C3.47422 7.19768 3.58846 7.49145 3.58846 7.88314C3.58846 8.2585 3.47422 8.56043 3.24574 8.78892C3.03357 9.00108 2.71533 9.10716 2.291 9.10716Z" fill="#F5F2F0"/>
<path d="M12.8769 24.0403C12.5505 24.0403 12.3057 23.9505 12.1425 23.771C11.9793 23.5915 11.8977 23.3385 11.8977 23.0121V12.8037C11.8977 12.4773 11.9793 12.2325 12.1425 12.0693C12.3057 11.8898 12.5423 11.8 12.8524 11.8C13.1625 11.8 13.3991 11.8898 13.5624 12.0693C13.7419 12.2325 13.8316 12.4773 13.8316 12.8037V14.909L13.5624 14.6153C13.9051 13.6687 14.46 12.9588 15.227 12.4855C16.0104 11.9959 16.908 11.7511 17.9199 11.7511C18.8665 11.7511 19.6498 11.9224 20.27 12.2651C20.9065 12.6079 21.3798 13.1301 21.6899 13.8319C22 14.5174 22.155 15.3905 22.155 16.4513V23.0121C22.155 23.3385 22.0652 23.5915 21.8857 23.771C21.7225 23.9505 21.4859 24.0403 21.1758 24.0403C20.8494 24.0403 20.5964 23.9505 20.4169 23.771C20.2537 23.5915 20.1721 23.3385 20.1721 23.0121V16.5737C20.1721 15.4639 19.9518 14.6561 19.5111 14.1501C19.0868 13.6279 18.4013 13.3668 17.4548 13.3668C16.3613 13.3668 15.4882 13.7095 14.8353 14.3949C14.1988 15.0641 13.8806 15.9617 13.8806 17.0878V23.0121C13.8806 23.6975 13.546 24.0403 12.8769 24.0403Z" fill="#F5F2F0"/>
<path d="M35.4812 24.0892C34.5509 24.0892 33.7676 23.926 33.1311 23.5996C32.5109 23.2569 32.0458 22.7673 31.7357 22.1308C31.4256 21.478 31.2705 20.6864 31.2705 19.7562V13.5137H29.6304C29.3529 13.5137 29.1407 13.4484 28.9939 13.3178C28.847 13.1709 28.7735 12.9751 28.7735 12.7303C28.7735 12.4855 28.847 12.2978 28.9939 12.1672C29.1407 12.0367 29.3529 11.9714 29.6304 11.9714H31.2705V9.15612C31.2705 8.82972 31.3603 8.58491 31.5398 8.42171C31.7194 8.24219 31.9642 8.15242 32.2743 8.15242C32.5843 8.15242 32.821 8.24219 32.9842 8.42171C33.1637 8.58491 33.2535 8.82972 33.2535 9.15612V11.9714H36.338C36.6155 11.9714 36.8276 12.0367 36.9745 12.1672C37.1214 12.2978 37.1948 12.4855 37.1948 12.7303C37.1948 12.9751 37.1214 13.1709 36.9745 13.3178C36.8276 13.4484 36.6155 13.5137 36.338 13.5137H33.2535V19.5603C33.2535 20.4906 33.4493 21.2005 33.841 21.6901C34.2327 22.1634 34.8692 22.4001 35.7505 22.4001C36.0606 22.4001 36.3217 22.3674 36.5339 22.3021C36.7623 22.2369 36.95 22.2042 37.0969 22.2042C37.2438 22.1879 37.3662 22.2369 37.4641 22.3511C37.562 22.4654 37.611 22.6612 37.611 22.9386C37.611 23.1345 37.5702 23.314 37.4886 23.4772C37.4233 23.6404 37.3009 23.7547 37.1214 23.8199C36.9255 23.8852 36.6644 23.9423 36.338 23.9913C36.0279 24.0566 35.7423 24.0892 35.4812 24.0892Z" fill="#F5F2F0"/>
<path d="M90.1393 24.0403C89.8129 24.0403 89.5599 23.9505 89.3804 23.771C89.2172 23.5915 89.1356 23.3385 89.1356 23.0121V12.8037C89.1356 12.4773 89.2172 12.2325 89.3804 12.0693C89.5436 11.8898 89.7802 11.8 90.0903 11.8C90.4004 11.8 90.637 11.8898 90.8002 12.0693C90.9798 12.2325 91.0695 12.4773 91.0695 12.8037V14.7866H90.8247C91.0858 13.8237 91.5836 13.0812 92.318 12.5589C93.0524 12.0367 93.9582 11.7592 95.0354 11.7266C95.2802 11.7103 95.476 11.7674 95.6229 11.8979C95.7698 12.0122 95.8514 12.2162 95.8677 12.51C95.884 12.7874 95.8187 13.0077 95.6719 13.1709C95.525 13.3341 95.2965 13.4321 94.9864 13.4647L94.5947 13.5137C93.4849 13.6116 92.6281 13.9706 92.0243 14.5908C91.4367 15.1946 91.143 16.027 91.143 17.0878V23.0121C91.143 23.3385 91.0532 23.5915 90.8737 23.771C90.7105 23.9505 90.4657 24.0403 90.1393 24.0403Z" fill="#F5F2F0"/>
<path d="M103.785 23.9913C103.458 23.9913 103.213 23.9015 103.05 23.722C102.887 23.5262 102.805 23.2569 102.805 22.9142V12.9016C102.805 12.5589 102.887 12.2978 103.05 12.1183C103.213 11.9387 103.458 11.849 103.785 11.849C104.095 11.849 104.34 11.9387 104.519 12.1183C104.699 12.2978 104.788 12.5589 104.788 12.9016V22.9142C104.788 23.2569 104.699 23.5262 104.519 23.722C104.356 23.9015 104.111 23.9913 103.785 23.9913ZM103.785 9.10716C103.377 9.10716 103.058 9.00108 102.83 8.78892C102.601 8.56043 102.487 8.2585 102.487 7.88314C102.487 7.49145 102.601 7.19768 102.83 7.00184C103.058 6.78968 103.377 6.68359 103.785 6.68359C104.209 6.68359 104.527 6.78968 104.739 7.00184C104.968 7.19768 105.082 7.49145 105.082 7.88314C105.082 8.2585 104.968 8.56043 104.739 8.78892C104.527 9.00108 104.209 9.10716 103.785 9.10716Z" fill="#F5F2F0"/>
<path d="M118.434 24.0892C117.243 24.0892 116.215 23.8281 115.35 23.3059C114.485 22.7836 113.816 22.0573 113.342 21.1271C112.885 20.1805 112.657 19.087 112.657 17.8467C112.657 16.9001 112.787 16.0515 113.049 15.3007C113.31 14.55 113.693 13.9135 114.199 13.3912C114.705 12.8527 115.309 12.4447 116.011 12.1672C116.729 11.8898 117.537 11.7511 118.434 11.7511C119.022 11.7511 119.634 11.8408 120.27 12.0203C120.907 12.1999 121.486 12.51 122.008 12.9506C122.172 13.0648 122.278 13.2036 122.327 13.3668C122.376 13.53 122.376 13.6932 122.327 13.8564C122.278 14.0033 122.196 14.1338 122.082 14.2481C121.968 14.346 121.821 14.4031 121.641 14.4194C121.478 14.4358 121.307 14.3786 121.127 14.2481C120.703 13.9217 120.27 13.6932 119.83 13.5626C119.389 13.4321 118.965 13.3668 118.557 13.3668C117.92 13.3668 117.365 13.4729 116.892 13.685C116.419 13.8809 116.019 14.1665 115.693 14.5418C115.366 14.9172 115.113 15.3823 114.934 15.9372C114.77 16.4921 114.689 17.1368 114.689 17.8712C114.689 19.291 115.023 20.4172 115.693 21.2495C116.362 22.0655 117.316 22.4735 118.557 22.4735C118.965 22.4735 119.381 22.4082 119.805 22.2777C120.246 22.1471 120.687 21.9186 121.127 21.5922C121.307 21.4617 121.478 21.4045 121.641 21.4209C121.804 21.4372 121.943 21.5025 122.057 21.6167C122.172 21.7146 122.245 21.8452 122.278 22.0084C122.327 22.1716 122.327 22.3348 122.278 22.498C122.229 22.6449 122.123 22.7754 121.96 22.8897C121.437 23.314 120.866 23.6241 120.246 23.8199C119.626 23.9995 119.022 24.0892 118.434 24.0892Z" fill="#F5F2F0"/>
<path d="M134.423 24.0892C133.232 24.0892 132.204 23.8281 131.339 23.3059C130.474 22.7836 129.804 22.0573 129.331 21.1271C128.874 20.1805 128.646 19.087 128.646 17.8467C128.646 16.9001 128.776 16.0515 129.037 15.3007C129.299 14.55 129.682 13.9135 130.188 13.3912C130.694 12.8527 131.298 12.4447 132 12.1672C132.718 11.8898 133.526 11.7511 134.423 11.7511C135.011 11.7511 135.623 11.8408 136.259 12.0203C136.896 12.1999 137.475 12.51 137.997 12.9506C138.161 13.0648 138.267 13.2036 138.316 13.3668C138.365 13.53 138.365 13.6932 138.316 13.8564C138.267 14.0033 138.185 14.1338 138.071 14.2481C137.956 14.346 137.81 14.4031 137.63 14.4194C137.467 14.4358 137.296 14.3786 137.116 14.2481C136.692 13.9217 136.259 13.6932 135.819 13.5626C135.378 13.4321 134.954 13.3668 134.546 13.3668C133.909 13.3668 133.354 13.4729 132.881 13.685C132.408 13.8809 132.008 14.1665 131.681 14.5418C131.355 14.9172 131.102 15.3823 130.922 15.9372C130.759 16.4921 130.678 17.1368 130.678 17.8712C130.678 19.291 131.012 20.4172 131.681 21.2495C132.35 22.0655 133.305 22.4735 134.546 22.4735C134.954 22.4735 135.37 22.4082 135.794 22.2777C136.235 22.1471 136.675 21.9186 137.116 21.5922C137.296 21.4617 137.467 21.4045 137.63 21.4209C137.793 21.4372 137.932 21.5025 138.046 21.6167C138.16 21.7146 138.234 21.8452 138.267 22.0084C138.316 22.1716 138.316 22.3348 138.267 22.498C138.218 22.6449 138.112 22.7754 137.948 22.8897C137.426 23.314 136.855 23.6241 136.235 23.8199C135.615 23.9995 135.011 24.0892 134.423 24.0892Z" fill="#F5F2F0"/>
<path d="M150.314 24.0892C149.155 24.0892 148.152 23.8363 147.303 23.3303C146.454 22.8244 145.793 22.1145 145.32 21.2005C144.863 20.2703 144.635 19.1768 144.635 17.9201C144.635 16.9736 144.765 16.1249 145.026 15.3742C145.287 14.6071 145.671 13.9543 146.177 13.4157C146.683 12.8772 147.278 12.4692 147.964 12.1917C148.666 11.8979 149.449 11.7511 150.314 11.7511C151.473 11.7511 152.477 12.004 153.325 12.51C154.174 13.0159 154.827 13.734 155.284 14.6642C155.757 15.5782 155.994 16.6635 155.994 17.9201C155.994 18.8667 155.863 19.7154 155.602 20.4661C155.341 21.2168 154.957 21.8697 154.451 22.4246C153.945 22.9631 153.341 23.3793 152.64 23.6731C151.954 23.9505 151.179 24.0892 150.314 24.0892ZM150.314 22.498C151.048 22.498 151.693 22.3185 152.248 21.9594C152.803 21.6004 153.227 21.0781 153.521 20.3927C153.831 19.7072 153.986 18.883 153.986 17.9201C153.986 16.435 153.652 15.3007 152.982 14.5174C152.33 13.734 151.44 13.3423 150.314 13.3423C149.563 13.3423 148.91 13.5218 148.356 13.8809C147.817 14.2236 147.393 14.7377 147.083 15.4231C146.789 16.0923 146.642 16.9246 146.642 17.9201C146.642 19.389 146.977 20.5232 147.646 21.3229C148.315 22.1063 149.204 22.498 150.314 22.498Z" fill="#F5F2F0"/>
</g>
</g>
<defs>
<filter id="filter0_d_0_699" x="40.8699" y="15.2695" width="21.728" height="12.3062" filterUnits="userSpaceOnUse" color-interpolation-filters="sRGB">
<feFlood flood-opacity="0" result="BackgroundImageFix"/>
<feColorMatrix in="SourceAlpha" type="matrix" values="0 0 0 0 0 0 0 0 0 0 0 0 0 0 0 0 0 0 127 0" result="hardAlpha"/>
<feMorphology radius="1" operator="dilate" in="SourceAlpha" result="effect1_dropShadow_0_699"/>
<feOffset/>
<feGaussianBlur stdDeviation="2.5"/>
<feComposite in2="hardAlpha" operator="out"/>
<feColorMatrix type="matrix" values="0 0 0 0 0 0 0 0 0 0 0 0 0 0 0 0 0 0 0.25 0"/>
<feBlend mode="normal" in2="BackgroundImageFix" result="effect1_dropShadow_0_699"/>
<feBlend mode="normal" in="SourceGraphic" in2="effect1_dropShadow_0_699" result="shape"/>
</filter>
<filter id="filter1_d_0_699" x="40.5739" y="4.40527" width="21.7922" height="12.3062" filterUnits="userSpaceOnUse" color-interpolation-filters="sRGB">
<feFlood flood-opacity="0" result="BackgroundImageFix"/>
<feColorMatrix in="SourceAlpha" type="matrix" values="0 0 0 0 0 0 0 0 0 0 0 0 0 0 0 0 0 0 127 0" result="hardAlpha"/>
<feMorphology radius="1" operator="dilate" in="SourceAlpha" result="effect1_dropShadow_0_699"/>
<feOffset/>
<feGaussianBlur stdDeviation="2.5"/>
<feComposite in2="hardAlpha" operator="out"/>
<feColorMatrix type="matrix" values="0 0 0 0 0 0 0 0 0 0 0 0 0 0 0 0 0 0 0.25 0"/>
<feBlend mode="normal" in2="BackgroundImageFix" result="effect1_dropShadow_0_699"/>
<feBlend mode="normal" in="SourceGraphic" in2="effect1_dropShadow_0_699" result="shape"/>
</filter>
<filter id="filter2_d_0_699" x="61.6845" y="4.40527" width="21.4862" height="12.3062" filterUnits="userSpaceOnUse" color-interpolation-filters="sRGB">
<feFlood flood-opacity="0" result="BackgroundImageFix"/>
<feColorMatrix in="SourceAlpha" type="matrix" values="0 0 0 0 0 0 0 0 0 0 0 0 0 0 0 0 0 0 127 0" result="hardAlpha"/>
<feMorphology radius="1" operator="dilate" in="SourceAlpha" result="effect1_dropShadow_0_699"/>
<feOffset/>
<feGaussianBlur stdDeviation="2.5"/>
<feComposite in2="hardAlpha" operator="out"/>
<feColorMatrix type="matrix" values="0 0 0 0 0 0 0 0 0 0 0 0 0 0 0 0 0 0 0.25 0"/>
<feBlend mode="normal" in2="BackgroundImageFix" result="effect1_dropShadow_0_699"/>
<feBlend mode="normal" in="SourceGraphic" in2="effect1_dropShadow_0_699" result="shape"/>
</filter>
<linearGradient id="paint0_linear_0_699" x1="49.1709" y1="27.0826" x2="74.7224" y2="25.5525" gradientUnits="userSpaceOnUse">
<stop stop-color="#274256"/>
<stop offset="1" stop-color="#6497C2"/>
</linearGradient>
<linearGradient id="paint1_linear_0_699" x1="45.9577" y1="16.22" x2="79.0937" y2="16.22" gradientUnits="userSpaceOnUse">
<stop stop-color="#C64651"/>
<stop offset="1" stop-color="#F77581"/>
</linearGradient>
<linearGradient id="paint2_linear_0_699" x1="49.0197" y1="6.2741" x2="74.5712" y2="6.1211" gradientUnits="userSpaceOnUse">
<stop stop-color="#974073"/>
<stop offset="0.565623" stop-color="#BD6199"/>
<stop offset="1" stop-color="#DA7BB6"/>
</linearGradient>
</defs>
</svg>
