<svg width="220" height="46" viewBox="0 0 220 46" fill="none" xmlns="http://www.w3.org/2000/svg">
<g id="intericco">
<g id="Group 2163">
<path id="Ellipse 56" d="M86.2975 45.8223C96.4282 45.8223 99.2179 45.3879 106.602 37.1356L96.1776 30.8378C93.6039 35.4137 80.8985 35.2172 78.2624 30.6207L64.2543 30.6207C67.5345 39.6165 76.1669 45.8223 86.2975 45.8223Z" fill="url(#paint0_linear_0_179)"/>
<g id="Group 2162">
<g id="Rectangle 708" filter="url(#filter0_d_0_179)">
<rect x="65.1133" y="30.1875" width="13.8075" height="0.434331" fill="#02FF95"/>
</g>
<path id="Ellipse 55" d="M65.3305 15.2021C64.4226 17.7086 63.8203 20.1975 63.8203 23.0201C63.8203 25.7614 64.2561 28.1756 65.1148 30.6209H79.3537L78.0593 28.2321L109.558 28.4493C111.188 23.412 111.18 20.6813 109.126 15.2021H95.3187C96.222 16.3414 96.6646 17.1767 96.6131 18.2425H78.0593C78.2306 17.0315 78.7606 16.2062 79.5695 15.2021H65.3305Z" fill="url(#paint1_linear_0_179)"/>
</g>
<g id="Group 2161">
<g id="Rectangle 706" filter="url(#filter1_d_0_179)">
<rect x="64.6953" y="14.7676" width="13.8986" height="0.434331" fill="#02FF95"/>
</g>
<g id="Rectangle 707" filter="url(#filter2_d_0_179)">
<rect x="94.6602" y="14.7676" width="13.4643" height="0.434331" fill="#02FF95"/>
</g>
<path id="Ellipse 54" d="M86.2992 0C76.1685 0 67.538 6.20578 64.2578 15.2016H78.6984C81.2721 10.6258 91.6982 10.605 94.3343 15.2016H108.342C105.062 6.20578 96.4298 0 86.2992 0Z" fill="url(#paint2_linear_0_179)"/>
</g>
</g>
<g id="Vector">
<path d="M1.84157 34.0511C1.37828 34.0511 1.03081 33.9237 0.79917 33.6689C0.567527 33.391 0.451705 33.0087 0.451705 32.5223V18.311C0.451705 17.8245 0.567527 17.4539 0.79917 17.1991C1.03081 16.9443 1.37828 16.8169 1.84157 16.8169C2.28169 16.8169 2.62915 16.9443 2.88396 17.1991C3.13877 17.4539 3.26617 17.8245 3.26617 18.311V32.5223C3.26617 33.0087 3.13877 33.391 2.88396 33.6689C2.65232 33.9237 2.30485 34.0511 1.84157 34.0511ZM1.84157 12.9253C1.26246 12.9253 0.810752 12.7747 0.486451 12.4736C0.16215 12.1492 0 11.7207 0 11.1879C0 10.632 0.16215 10.215 0.486451 9.93706C0.810752 9.63592 1.26246 9.48535 1.84157 9.48535C2.44384 9.48535 2.89554 9.63592 3.19668 9.93706C3.52098 10.215 3.68313 10.632 3.68313 11.1879C3.68313 11.7207 3.52098 12.1492 3.19668 12.4736C2.89554 12.7747 2.44384 12.9253 1.84157 12.9253Z" fill="black"/>
<path d="M16.8667 34.1206C16.4034 34.1206 16.056 33.9932 15.8243 33.7384C15.5927 33.4836 15.4769 33.1246 15.4769 32.6613V18.172C15.4769 17.7087 15.5927 17.3612 15.8243 17.1296C16.056 16.8748 16.3918 16.7474 16.832 16.7474C17.2721 16.7474 17.608 16.8748 17.8396 17.1296C18.0944 17.3612 18.2218 17.7087 18.2218 18.172V21.1602L17.8396 20.7432C18.3261 19.3997 19.1137 18.392 20.2024 17.7203C21.3143 17.0253 22.5883 16.6779 24.0245 16.6779C25.368 16.6779 26.4799 16.9211 27.3602 17.4076C28.2636 17.894 28.9353 18.6353 29.3755 19.6313C29.8156 20.6042 30.0356 21.8435 30.0356 23.3492V32.6613C30.0356 33.1246 29.9082 33.4836 29.6534 33.7384C29.4218 33.9932 29.0859 34.1206 28.6458 34.1206C28.1825 34.1206 27.8235 33.9932 27.5686 33.7384C27.337 33.4836 27.2212 33.1246 27.2212 32.6613V23.5229C27.2212 21.9478 26.9085 20.8011 26.283 20.083C25.6808 19.3418 24.7078 18.9711 23.3643 18.9711C21.8123 18.9711 20.573 19.4576 19.6464 20.4305C18.743 21.3802 18.2913 22.6543 18.2913 24.2526V32.6613C18.2913 33.6342 17.8165 34.1206 16.8667 34.1206Z" fill="black"/>
<path d="M48.9502 34.1901C47.6299 34.1901 46.518 33.9585 45.6146 33.4952C44.7343 33.0087 44.0741 32.3138 43.634 31.4104C43.1939 30.4838 42.9738 29.3604 42.9738 28.04V19.1796H40.6458C40.252 19.1796 39.9509 19.087 39.7424 18.9017C39.5339 18.6932 39.4297 18.4152 39.4297 18.0677C39.4297 17.7203 39.5339 17.4539 39.7424 17.2686C39.9509 17.0833 40.252 16.9906 40.6458 16.9906H42.9738V12.9947C42.9738 12.5315 43.1012 12.184 43.356 11.9524C43.6109 11.6975 43.9583 11.5701 44.3984 11.5701C44.8386 11.5701 45.1744 11.6975 45.4061 11.9524C45.6609 12.184 45.7883 12.5315 45.7883 12.9947V16.9906H50.1664C50.5602 16.9906 50.8613 17.0833 51.0698 17.2686C51.2783 17.4539 51.3825 17.7203 51.3825 18.0677C51.3825 18.4152 51.2783 18.6932 51.0698 18.9017C50.8613 19.087 50.5602 19.1796 50.1664 19.1796H45.7883V27.762C45.7883 29.0824 46.0663 30.09 46.6222 30.785C47.1782 31.4567 48.0816 31.7926 49.3324 31.7926C49.7726 31.7926 50.1432 31.7463 50.4443 31.6536C50.7686 31.561 51.035 31.5146 51.2435 31.5146C51.452 31.4915 51.6257 31.561 51.7647 31.7231C51.9037 31.8853 51.9732 32.1632 51.9732 32.557C51.9732 32.835 51.9153 33.0898 51.7995 33.3215C51.7068 33.5531 51.5331 33.7153 51.2783 33.8079C51.0003 33.9006 50.6297 33.9816 50.1664 34.0511C49.7262 34.1438 49.3209 34.1901 48.9502 34.1901Z" fill="black"/>
<path d="M126.529 34.1206C126.066 34.1206 125.707 33.9932 125.452 33.7384C125.221 33.4836 125.105 33.1246 125.105 32.6613V18.172C125.105 17.7087 125.221 17.3612 125.452 17.1296C125.684 16.8748 126.02 16.7474 126.46 16.7474C126.9 16.7474 127.236 16.8748 127.468 17.1296C127.722 17.3612 127.85 17.7087 127.85 18.172V20.9864H127.502C127.873 19.6198 128.579 18.5658 129.622 17.8245C130.664 17.0833 131.95 16.6895 133.479 16.6431C133.826 16.62 134.104 16.701 134.313 16.8864C134.521 17.0485 134.637 17.3381 134.66 17.755C134.683 18.1488 134.591 18.4615 134.382 18.6932C134.174 18.9248 133.849 19.0638 133.409 19.1101L132.853 19.1796C131.278 19.3186 130.062 19.8282 129.205 20.7085C128.371 21.5656 127.954 22.7469 127.954 24.2526V32.6613C127.954 33.1246 127.827 33.4836 127.572 33.7384C127.34 33.9932 126.993 34.1206 126.529 34.1206Z" fill="black"/>
<path d="M145.897 34.0511C145.434 34.0511 145.086 33.9237 144.855 33.6689C144.623 33.391 144.507 33.0087 144.507 32.5223V18.311C144.507 17.8245 144.623 17.4539 144.855 17.1991C145.086 16.9443 145.434 16.8169 145.897 16.8169C146.337 16.8169 146.685 16.9443 146.939 17.1991C147.194 17.4539 147.322 17.8245 147.322 18.311V32.5223C147.322 33.0087 147.194 33.391 146.939 33.6689C146.708 33.9237 146.36 34.0511 145.897 34.0511ZM145.897 12.9253C145.318 12.9253 144.866 12.7747 144.542 12.4736C144.218 12.1492 144.056 11.7207 144.056 11.1879C144.056 10.632 144.218 10.215 144.542 9.93706C144.866 9.63592 145.318 9.48535 145.897 9.48535C146.499 9.48535 146.951 9.63592 147.252 9.93706C147.576 10.215 147.739 10.632 147.739 11.1879C147.739 11.7207 147.576 12.1492 147.252 12.4736C146.951 12.7747 146.499 12.9253 145.897 12.9253Z" fill="black"/>
<path d="M166.69 34.1901C164.999 34.1901 163.54 33.8195 162.312 33.0782C161.084 32.337 160.135 31.3062 159.463 29.9858C158.814 28.6423 158.49 27.0903 158.49 25.3298C158.49 23.9862 158.675 22.7817 159.046 21.7161C159.417 20.6506 159.961 19.7472 160.679 19.0059C161.397 18.2415 162.254 17.6624 163.25 17.2686C164.269 16.8748 165.416 16.6779 166.69 16.6779C167.524 16.6779 168.393 16.8053 169.296 17.0601C170.2 17.3149 171.022 17.755 171.763 18.3805C171.995 18.5426 172.145 18.7395 172.215 18.9711C172.284 19.2028 172.284 19.4344 172.215 19.6661C172.145 19.8746 172.03 20.0599 171.867 20.222C171.705 20.361 171.497 20.4421 171.242 20.4653C171.01 20.4884 170.767 20.4073 170.512 20.222C169.91 19.7587 169.296 19.4344 168.671 19.2491C168.045 19.0638 167.443 18.9711 166.864 18.9711C165.96 18.9711 165.173 19.1217 164.501 19.4229C163.829 19.7008 163.262 20.1062 162.799 20.639C162.335 21.1718 161.976 21.8319 161.721 22.6195C161.49 23.4071 161.374 24.3221 161.374 25.3645C161.374 27.3798 161.849 28.9781 162.799 30.1595C163.748 31.3177 165.103 31.8969 166.864 31.8969C167.443 31.8969 168.034 31.8042 168.636 31.6189C169.261 31.4336 169.887 31.1093 170.512 30.646C170.767 30.4607 171.01 30.3796 171.242 30.4028C171.474 30.4259 171.67 30.5186 171.833 30.6807C171.995 30.8197 172.099 31.005 172.145 31.2367C172.215 31.4683 172.215 31.7 172.145 31.9316C172.076 32.1401 171.925 32.3254 171.694 32.4875C170.952 33.0898 170.142 33.5299 169.261 33.8079C168.381 34.0627 167.524 34.1901 166.69 34.1901Z" fill="black"/>
<path d="M189.384 34.1901C187.693 34.1901 186.234 33.8195 185.006 33.0782C183.778 32.337 182.828 31.3062 182.157 29.9858C181.508 28.6423 181.184 27.0903 181.184 25.3298C181.184 23.9862 181.369 22.7817 181.74 21.7161C182.11 20.6506 182.655 19.7472 183.373 19.0059C184.091 18.2415 184.948 17.6624 185.944 17.2686C186.963 16.8748 188.11 16.6779 189.384 16.6779C190.218 16.6779 191.087 16.8053 191.99 17.0601C192.893 17.3149 193.716 17.755 194.457 18.3805C194.689 18.5426 194.839 18.7395 194.909 18.9711C194.978 19.2028 194.978 19.4344 194.909 19.6661C194.839 19.8746 194.723 20.0599 194.561 20.222C194.399 20.361 194.191 20.4421 193.936 20.4653C193.704 20.4884 193.461 20.4073 193.206 20.222C192.604 19.7587 191.99 19.4344 191.365 19.2491C190.739 19.0638 190.137 18.9711 189.558 18.9711C188.654 18.9711 187.867 19.1217 187.195 19.4229C186.523 19.7008 185.956 20.1062 185.492 20.639C185.029 21.1718 184.67 21.8319 184.415 22.6195C184.184 23.4071 184.068 24.3221 184.068 25.3645C184.068 27.3798 184.543 28.9781 185.492 30.1595C186.442 31.3177 187.797 31.8969 189.558 31.8969C190.137 31.8969 190.728 31.8042 191.33 31.6189C191.955 31.4336 192.581 31.1093 193.206 30.646C193.461 30.4607 193.704 30.3796 193.936 30.4028C194.167 30.4259 194.364 30.5186 194.526 30.6807C194.689 30.8197 194.793 31.005 194.839 31.2367C194.909 31.4683 194.909 31.7 194.839 31.9316C194.77 32.1401 194.619 32.3254 194.387 32.4875C193.646 33.0898 192.835 33.5299 191.955 33.8079C191.075 34.0627 190.218 34.1901 189.384 34.1901Z" fill="black"/>
<path d="M211.939 34.1901C210.294 34.1901 208.87 33.8311 207.665 33.113C206.46 32.3949 205.522 31.3872 204.851 30.09C204.202 28.7697 203.878 27.2177 203.878 25.434C203.878 24.0905 204.063 22.8859 204.434 21.8204C204.804 20.7316 205.349 19.8051 206.067 19.0406C206.785 18.2762 207.63 17.6971 208.603 17.3033C209.599 16.8864 210.711 16.6779 211.939 16.6779C213.583 16.6779 215.008 17.0369 216.213 17.755C217.417 18.4731 218.344 19.4923 218.992 20.8127C219.664 22.1099 220 23.6503 220 25.434C220 26.7775 219.815 27.9821 219.444 29.0476C219.073 30.1132 218.529 31.0398 217.811 31.8274C217.093 32.5918 216.236 33.1825 215.24 33.5994C214.267 33.9932 213.167 34.1901 211.939 34.1901ZM211.939 31.9316C212.981 31.9316 213.896 31.6768 214.684 31.1672C215.471 30.6576 216.074 29.9163 216.491 28.9434C216.931 27.9705 217.151 26.8007 217.151 25.434C217.151 23.326 216.676 21.7161 215.726 20.6042C214.8 19.4923 213.537 18.9364 211.939 18.9364C210.873 18.9364 209.947 19.1912 209.159 19.7008C208.395 20.1873 207.792 20.917 207.352 21.8899C206.935 22.8396 206.727 24.021 206.727 25.434C206.727 27.5188 207.202 29.1287 208.151 30.2638C209.101 31.3757 210.364 31.9316 211.939 31.9316Z" fill="black"/>
</g>
</g>
<defs>
<filter id="filter0_d_0_179" x="59.1133" y="24.1875" width="25.8075" height="12.4346" filterUnits="userSpaceOnUse" color-interpolation-filters="sRGB">
<feFlood flood-opacity="0" result="BackgroundImageFix"/>
<feColorMatrix in="SourceAlpha" type="matrix" values="0 0 0 0 0 0 0 0 0 0 0 0 0 0 0 0 0 0 127 0" result="hardAlpha"/>
<feMorphology radius="1" operator="dilate" in="SourceAlpha" result="effect1_dropShadow_0_179"/>
<feOffset/>
<feGaussianBlur stdDeviation="2.5"/>
<feComposite in2="hardAlpha" operator="out"/>
<feColorMatrix type="matrix" values="0 0 0 0 0 0 0 0 0 0 0 0 0 0 0 0 0 0 0.25 0"/>
<feBlend mode="normal" in2="BackgroundImageFix" result="effect1_dropShadow_0_179"/>
<feBlend mode="normal" in="SourceGraphic" in2="effect1_dropShadow_0_179" result="shape"/>
</filter>
<filter id="filter1_d_0_179" x="58.6953" y="8.76758" width="25.8986" height="12.4346" filterUnits="userSpaceOnUse" color-interpolation-filters="sRGB">
<feFlood flood-opacity="0" result="BackgroundImageFix"/>
<feColorMatrix in="SourceAlpha" type="matrix" values="0 0 0 0 0 0 0 0 0 0 0 0 0 0 0 0 0 0 127 0" result="hardAlpha"/>
<feMorphology radius="1" operator="dilate" in="SourceAlpha" result="effect1_dropShadow_0_179"/>
<feOffset/>
<feGaussianBlur stdDeviation="2.5"/>
<feComposite in2="hardAlpha" operator="out"/>
<feColorMatrix type="matrix" values="0 0 0 0 0 0 0 0 0 0 0 0 0 0 0 0 0 0 0.25 0"/>
<feBlend mode="normal" in2="BackgroundImageFix" result="effect1_dropShadow_0_179"/>
<feBlend mode="normal" in="SourceGraphic" in2="effect1_dropShadow_0_179" result="shape"/>
</filter>
<filter id="filter2_d_0_179" x="88.6602" y="8.76758" width="25.4642" height="12.4346" filterUnits="userSpaceOnUse" color-interpolation-filters="sRGB">
<feFlood flood-opacity="0" result="BackgroundImageFix"/>
<feColorMatrix in="SourceAlpha" type="matrix" values="0 0 0 0 0 0 0 0 0 0 0 0 0 0 0 0 0 0 127 0" result="hardAlpha"/>
<feMorphology radius="1" operator="dilate" in="SourceAlpha" result="effect1_dropShadow_0_179"/>
<feOffset/>
<feGaussianBlur stdDeviation="2.5"/>
<feComposite in2="hardAlpha" operator="out"/>
<feColorMatrix type="matrix" values="0 0 0 0 0 0 0 0 0 0 0 0 0 0 0 0 0 0 0.25 0"/>
<feBlend mode="normal" in2="BackgroundImageFix" result="effect1_dropShadow_0_179"/>
<feBlend mode="normal" in="SourceGraphic" in2="effect1_dropShadow_0_179" result="shape"/>
</filter>
<linearGradient id="paint0_linear_0_179" x1="68.3804" y1="38.4386" x2="104.647" y2="36.267" gradientUnits="userSpaceOnUse">
<stop stop-color="#274256"/>
<stop offset="1" stop-color="#6497C2"/>
</linearGradient>
<linearGradient id="paint1_linear_0_179" x1="63.8203" y1="23.0201" x2="110.852" y2="23.0201" gradientUnits="userSpaceOnUse">
<stop stop-color="#C64651"/>
<stop offset="1" stop-color="#F77581"/>
</linearGradient>
<linearGradient id="paint2_linear_0_179" x1="68.1668" y1="8.90379" x2="104.433" y2="8.68663" gradientUnits="userSpaceOnUse">
<stop stop-color="#974073"/>
<stop offset="0.565623" stop-color="#BD6199"/>
<stop offset="1" stop-color="#DA7BB6"/>
</linearGradient>
</defs>
</svg>
