<svg width="200" height="85" viewBox="0 0 200 85" fill="none" xmlns="http://www.w3.org/2000/svg">
<path d="M94.7422 16.1279H98.6883V25.3853L103.711 16.1279H107.657L102.957 24.1928L107.728 38.0945H103.603L100.267 28.3037L98.6883 31.0966V38.0945H94.7422V16.1279Z" fill="white"/>
<path d="M111.749 16.1279H115.695V25.0715H119.928V16.1279H123.874V38.0945H119.928V28.2095H115.695V38.0945H111.749V16.1279Z" fill="white"/>
<path d="M132.014 16.1279H137.36L141.449 38.0945H137.503L136.786 33.7326V33.7953H132.301L131.584 38.0945H127.925L132.014 16.1279ZM136.319 30.8142L134.561 19.9564H134.49L132.768 30.8142H136.319Z" fill="white"/>
<path d="M145.516 16.1279H151.364C153.396 16.1279 154.879 16.5463 155.812 17.3832C156.745 18.1991 157.211 19.4648 157.211 21.1802V22.5296C157.211 24.81 156.35 26.2535 154.628 26.8602V26.9229C155.585 27.174 156.254 27.6865 156.637 28.4606C157.044 29.2347 157.247 30.2702 157.247 31.5673V35.4271C157.247 36.0548 157.271 36.5673 157.319 36.9648C157.366 37.3414 157.486 37.7179 157.677 38.0945H153.66C153.516 37.7389 153.42 37.4041 153.373 37.0903C153.325 36.7765 153.301 36.2117 153.301 35.3958V31.379C153.301 30.3748 153.109 29.674 152.727 29.2765C152.368 28.879 151.734 28.6803 150.825 28.6803H149.462V38.0945H145.516V16.1279ZM150.897 25.5422C151.686 25.5422 152.272 25.3644 152.655 25.0087C153.062 24.6531 153.265 24.0568 153.265 23.22V21.5254C153.265 20.7305 153.097 20.1551 152.763 19.7995C152.452 19.4438 151.95 19.266 151.256 19.266H149.462V25.5422H150.897Z" fill="white"/>
<path d="M162.137 16.1279H166.083V25.3853L171.106 16.1279H175.052L170.352 24.1928L175.123 38.0945H170.998L167.662 28.3037L166.083 31.0966V38.0945H162.137V16.1279Z" fill="white"/>
<path d="M179.144 16.1279H183.09V38.0945H179.144V16.1279Z" fill="white"/>
<path d="M187.157 16.1279H191.139L193.722 33.1677H193.794L196.377 16.1279H200L196.197 38.0945H190.96L187.157 16.1279Z" fill="white"/>
<path d="M125.081 65.2171L132.471 49.4761H125.443V46.3405H136.745V49.4134L129.356 65.1544H136.745V68.2901H125.081V65.2171Z" fill="white"/>
<path d="M146.935 68.6036C144.979 68.6036 143.482 68.1228 142.443 67.1612C141.405 66.1996 140.886 64.8409 140.886 63.0849V51.5457C140.886 49.7897 141.405 48.4309 142.443 47.4693C143.482 46.5077 144.979 46.0269 146.935 46.0269C148.891 46.0269 150.388 46.5077 151.427 47.4693C152.465 48.4309 152.984 49.7897 152.984 51.5457V63.0849C152.984 64.8409 152.465 66.1996 151.427 67.1612C150.388 68.1228 148.891 68.6036 146.935 68.6036ZM146.935 65.468C148.311 65.468 149 64.7468 149 63.3044V51.3262C149 49.8837 148.311 49.1625 146.935 49.1625C145.558 49.1625 144.87 49.8837 144.87 51.3262V63.3044C144.87 64.7468 145.558 65.468 146.935 65.468Z" fill="white"/>
<path d="M163.612 68.6036C161.656 68.6036 160.158 68.1228 159.12 67.1612C158.082 66.1996 157.562 64.8409 157.562 63.0849V51.5457C157.562 49.7897 158.082 48.4309 159.12 47.4693C160.158 46.5077 161.656 46.0269 163.612 46.0269C165.568 46.0269 167.065 46.5077 168.103 47.4693C169.142 48.4309 169.661 49.7897 169.661 51.5457V63.0849C169.661 64.8409 169.142 66.1996 168.103 67.1612C167.065 68.1228 165.568 68.6036 163.612 68.6036ZM163.612 65.468C164.988 65.468 165.676 64.7468 165.676 63.3044V51.3262C165.676 49.8837 164.988 49.1625 163.612 49.1625C162.235 49.1625 161.547 49.8837 161.547 51.3262V63.3044C161.547 64.7468 162.235 65.468 163.612 65.468Z" fill="white"/>
<path fill-rule="evenodd" clip-rule="evenodd" d="M7.72863 0.85914C5.00973 2.04656 2.57071 4.52146 1.21157 7.4723C0.0784319 9.93195 0.0152718 11.7741 0.0022686 42.5798C-0.0125922 78.054 -0.055942 77.5878 3.58185 81.3611C6.61655 84.5097 7.85866 84.8154 17.6179 84.8154H26.6396L25.3715 82.3661C24.6743 81.0188 22.0581 76.4199 19.5578 72.1456C15.0531 64.4438 9.89583 54.7157 9.89583 53.92C9.89583 53.693 10.3831 53.9261 10.9794 54.4387C13.9856 57.0222 14.7993 56.6195 12.0005 53.9334C7.80851 49.9093 6.54349 46.5923 6.93111 40.6412C7.26114 35.5724 9.94722 29.1313 14.0005 23.6897C16.0538 20.9342 16.2928 20.7859 17.0668 21.7915C17.8389 22.7946 17.9077 22.7488 17.9256 21.2179C17.938 20.1635 18.4736 19.2128 19.3869 18.6234C21.2049 17.4494 27.4848 16.2778 29.1566 16.8008C30.3604 17.1773 30.3697 17.2505 29.3461 18.3647C28.756 19.0072 28.4173 19.6753 28.5938 19.8492C28.7703 20.0231 29.2669 19.7467 29.6978 19.2354C30.1288 18.7241 30.9183 18.3055 31.4526 18.3055C32.231 18.3055 32.1851 18.4849 31.2217 19.2098C30.1022 20.0524 30.1597 20.0884 32.07 19.7364C33.8235 19.413 34.4353 19.657 36.3034 21.4254C37.5041 22.5621 39.0502 24.2633 39.7394 25.206C40.9511 26.8639 40.9549 26.9475 39.8521 27.742C38.8075 28.4949 38.8483 28.5376 40.348 28.2551C42.1716 27.9116 43.6261 29.6555 42.9543 31.3805C42.4843 32.5868 42.1543 32.5825 40.7728 31.3506C40.1629 30.8063 39.2248 30.5268 38.6892 30.7294C37.909 31.0247 37.7926 31.6813 38.1072 34.0183C38.4304 36.4163 38.2762 37.2089 37.2452 38.4525C35.7127 40.3014 35.1808 39.8553 33.7548 35.5242C31.5889 28.9458 27.5319 26.6406 22.626 29.2009C19.608 30.7758 18.7077 30.8258 17.2203 29.4993C16.5974 28.944 16.0878 28.7866 16.0878 29.1497C16.0878 29.5133 16.7968 30.3596 17.6631 31.0315L19.2383 32.2524L18.2117 35.3448C16.8748 39.3727 17.3838 42.6634 20.2036 48.2179C23.0916 53.906 28.0446 59.0639 34.8811 63.5023L40.4607 67.1244L36.4787 66.8278C32.8 66.5545 32.6855 66.5813 34.9734 67.1811C49.9153 71.0973 57.0943 74.8944 62.8374 81.917L65.2077 84.8154H71.6381C78.6183 84.8154 80.2598 84.3187 83.0455 81.3611C86.4251 77.7733 86.6765 76.6176 86.6765 64.6446C86.6765 54.3337 86.6016 53.596 85.5929 54.0018C84.9973 54.2416 80.6084 54.5625 75.8405 54.7145C68.0956 54.9616 66.6108 55.1929 61.9086 56.88C56.1977 58.9296 54.4094 59.8608 51.9413 62.0696C51.0565 62.861 49.524 63.5664 48.5357 63.6366C46.9902 63.7464 46.7103 63.5249 46.54 62.0605C46.1239 58.4909 51.1029 52.5337 55.5896 51.2322C56.8516 50.8661 59.69 49.8281 61.898 48.9251C65.2454 47.5558 66.1501 46.859 67.3408 44.7319C68.1259 43.3291 68.9315 40.8249 69.1309 39.1676C69.4888 36.1912 69.4554 36.1179 66.4151 33.1793C64.7222 31.5428 62.0213 29.301 60.4126 28.1972L57.4881 26.1909L55.3921 27.4674C54.2392 28.1697 52.6528 29.8959 51.8664 31.3042C50.7785 33.2537 50.0119 33.9133 48.6552 34.0665C46.4249 34.3185 45.68 33.2666 46.1369 30.5091C46.9506 25.5978 47.5376 24.7588 52.3147 21.6792C54.867 20.0341 56.955 18.4647 56.955 18.1914C56.955 17.0583 60.6287 17.821 63.3439 19.5179C66.6826 21.6041 71.1965 23.9387 71.1965 23.5787C71.1965 23.445 69.664 22.4206 67.791 21.3021C65.9179 20.183 64.3854 19.0517 64.3854 18.7869C64.3854 17.8381 66.1222 18.3397 70.1742 20.4588C74.5458 22.7452 75.6269 22.9288 72.2802 20.8164C69.5024 19.0633 71.2058 19.2006 74.8566 21.0238C76.5068 21.8476 78.0158 22.3656 78.2102 22.174C78.404 21.9831 80.409 22.8434 82.6654 24.087L86.7676 26.3477L86.5669 17.1901C86.3694 8.13923 86.3453 8.00193 84.5093 5.43612C83.4877 4.00768 81.4239 2.20032 79.9229 1.41989L77.1935 0L43.3902 0.023798C16.6538 0.0427137 9.19799 0.217228 7.72863 0.85914Z" fill="#D94100"/>
</svg>
