<svg width="220" height="49" viewBox="0 0 220 49" fill="none" xmlns="http://www.w3.org/2000/svg">
<g id="marludesign">
<g id="MARLU DESIGN">
<path d="M0 48.3997V0.411328H1.45899L11.0466 38.5964L20.6342 0.411328H22.0932V48.3997H18.4458V15.0135L11.7761 41.5443H10.3171L3.64747 15.0135V48.3997H0Z" fill="black"/>
<path d="M26.3586 48.3997L34.4873 0.411328H35.9463L43.137 48.3997H39.4895L37.301 32.6321H30.423L27.8176 48.3997H26.3586ZM30.6314 31.6038H37.1968L34.2789 10.2832L30.6314 31.6038Z" fill="black"/>
<path d="M55.8738 0.411328C60.5287 0.594141 62.8561 2.01094 62.8561 4.66173V19.8124C62.8561 21.8233 61.7097 23.1258 59.4171 23.72C61.7097 24.3598 62.8561 25.5938 62.8561 27.4219V48.3997H59.2086V27.6962C59.2086 26.4622 58.9307 25.6167 58.3749 25.1596C57.8191 24.6569 56.8465 24.3598 55.457 24.2684H50.7673V48.3997H47.1199V0.411328H55.8738ZM50.7673 1.43965V23.2401H55.2485C56.9159 23.2401 57.9928 22.9659 58.4791 22.4174C58.9655 21.869 59.2086 20.9321 59.2086 19.6067V4.86739C59.2086 3.63341 58.9307 2.7879 58.3749 2.33086C57.8191 1.82813 56.8465 1.53106 55.457 1.43965H50.7673Z" fill="black"/>
<path d="M67.1687 0.411328H70.8162V47.3714H80.9249V48.3997H67.1687V0.411328Z" fill="black"/>
<path d="M100.613 44.4921C100.613 47.3257 97.973 48.7425 92.6929 48.7425C87.4822 48.7425 84.8769 47.28 84.8769 44.355V0.411328H88.5243V44.1493C88.5243 45.4747 88.7675 46.4116 89.2538 46.9601C89.7401 47.5085 90.817 47.7827 92.4844 47.7827C94.1518 47.7827 95.2982 47.5314 95.9235 47.0286C96.6182 46.5259 96.9656 45.6118 96.9656 44.2864V0.411328H100.613V44.4921Z" fill="black"/>
<path d="M124.06 0.411328C128.715 0.594141 131.043 2.01094 131.043 4.66173V44.0122C131.043 46.9372 128.507 48.3997 123.435 48.3997H115.306V0.411328H124.06ZM118.954 1.43965V47.44H123.435C125.102 47.44 126.179 47.1657 126.666 46.6173C127.152 46.0689 127.395 45.132 127.395 43.8066V4.86739C127.395 3.63341 127.117 2.7879 126.561 2.33086C126.006 1.82813 125.033 1.53106 123.643 1.43965H118.954Z" fill="black"/>
<path d="M151.508 0.411328V1.43965H139.003V22.2803H149.424V23.3087H139.003V47.3714H151.508V48.3997H135.355V0.411328H151.508Z" fill="black"/>
<path d="M155.915 4.31896C155.915 1.43965 158.521 0 163.731 0C169.011 0 171.652 1.50821 171.652 4.52462V14.1223H168.004V4.59317C168.004 3.26778 167.726 2.30801 167.17 1.71387C166.615 1.07402 165.503 0.754102 163.836 0.754102C162.168 0.754102 161.022 1.07402 160.396 1.71387C159.841 2.30801 159.563 3.26778 159.563 4.59317V12.8198C159.563 14.5565 159.91 15.8362 160.605 16.6588C161.578 17.8928 162.759 19.0126 164.148 20.018C165.607 21.0235 166.719 21.869 167.483 22.5546C168.247 23.1944 168.942 23.9485 169.567 24.8169C170.957 26.7364 171.652 28.9987 171.652 31.6038V44.4236C171.652 47.3029 169.011 48.7425 163.731 48.7425C158.521 48.7425 155.915 47.2343 155.915 44.2179V34.6888H159.563V44.1493C159.563 45.4747 159.841 46.4574 160.396 47.0972C160.952 47.6913 162.064 47.9884 163.731 47.9884C165.399 47.9884 166.51 47.6913 167.066 47.0972C167.691 46.4574 168.004 45.4747 168.004 44.1493V32.1522C168.004 29.5471 167.657 27.719 166.962 26.6678C165.989 25.1139 164.773 23.8114 163.314 22.7602C161.925 21.709 160.848 20.8864 160.084 20.2922C159.32 19.6981 158.625 19.0583 158 18.3727C156.61 16.7731 155.915 15.0364 155.915 13.1625V4.31896Z" fill="black"/>
<path d="M179.507 0.411328V48.3997H175.86V0.411328H179.507Z" fill="black"/>
<path d="M183.798 4.2504C183.798 1.4168 186.403 0 191.614 0C196.894 0 199.534 1.4625 199.534 4.38751V14.1223H195.887V4.66173C195.887 3.29063 195.644 2.35372 195.157 1.85098C194.671 1.30254 193.594 1.02832 191.927 1.02832C190.259 1.02832 189.078 1.27969 188.383 1.78243C187.758 2.23946 187.446 3.13067 187.446 4.45607V44.1493C187.446 45.4747 187.689 46.4116 188.175 46.9601C188.661 47.5085 189.738 47.7827 191.406 47.7827C193.073 47.7827 194.219 47.5314 194.845 47.0286C195.539 46.5259 195.887 45.6118 195.887 44.2864V27.7647H191.718V26.7364H199.534V44.4921C199.534 47.3257 196.894 48.7425 191.614 48.7425C186.403 48.7425 183.798 47.28 183.798 44.355V4.2504Z" fill="black"/>
<path d="M203.847 48.3997V0.411328H205.306L216.353 34.1403V0.411328H220V48.3997H216.353V38.7335L207.494 11.5858V48.3997H203.847Z" fill="black"/>
</g>
</g>
</svg>
