<svg width="221" height="66" viewBox="0 0 221 66" fill="none" xmlns="http://www.w3.org/2000/svg">
<g id="Group 2257">
<g id="nika tech family">
<mask id="path-1-outside-1_0_197" maskUnits="userSpaceOnUse" x="71.5352" y="17.9092" width="150" height="48" fill="black">
<rect fill="white" x="71.5352" y="17.9092" width="150" height="48"/>
<path d="M72.5352 37.9309V19.2298H75.9548L84.7443 32.4007V19.2298H88.164V37.9309H84.7443L75.9548 24.7867V37.9309H72.5352Z"/>
<path d="M93.3923 37.9309V19.2298H96.812V37.9309H93.3923Z"/>
<path d="M102.04 37.9309V19.2298H105.459V26.7904L112.379 19.2298H116.6L109.707 26.6568L116.787 37.9309H112.592L107.249 29.2749L105.459 31.2252V37.9309H102.04Z"/>
<path d="M119.529 37.9309L126.368 19.2298H130.215L137.055 37.9309H133.421L131.925 33.6029H124.632L123.109 37.9309H119.529ZM125.567 30.9313H130.99L128.265 23.157L125.567 30.9313Z"/>
<path d="M153.39 37.9309V21.9815H147.94V19.2298H162.287V21.9815H156.81V37.9309H153.39Z"/>
<path d="M166.423 37.9309V19.2298H178.632V21.9815H169.842V27.111H177.83V29.7825H169.842V35.1792H178.632V37.9309H166.423Z"/>
<path d="M191.94 38.2515C190.052 38.2515 188.431 37.8507 187.077 37.0493C185.724 36.23 184.682 35.099 183.952 33.6563C183.221 32.1959 182.856 30.5128 182.856 28.607C182.856 26.7013 183.221 25.0182 183.952 23.5577C184.682 22.0973 185.724 20.9574 187.077 20.1381C188.431 19.3188 190.052 18.9092 191.94 18.9092C194.184 18.9092 196.018 19.4702 197.443 20.5923C198.886 21.6965 199.785 23.255 200.142 25.2676H196.375C196.143 24.2524 195.644 23.4598 194.878 22.8898C194.13 22.3021 193.133 22.0082 191.886 22.0082C190.159 22.0082 188.805 22.596 187.825 23.7715C186.846 24.947 186.356 26.5588 186.356 28.607C186.356 30.6553 186.846 32.2671 187.825 33.4426C188.805 34.6003 190.159 35.1792 191.886 35.1792C193.133 35.1792 194.13 34.912 194.878 34.3777C195.644 33.8256 196.143 33.0686 196.375 32.1068H200.142C199.785 34.0304 198.886 35.5354 197.443 36.6218C196.018 37.7083 194.184 38.2515 191.94 38.2515Z"/>
<path d="M204.771 37.9309V19.2298H208.191V27.0041H216.58V19.2298H220V37.9309H216.58V29.7825H208.191V37.9309H204.771Z"/>
<path d="M72.5352 64.6468V45.9457H84.6107V48.6974H75.9548V53.9337H82.9544V56.632H75.9548V64.6468H72.5352Z"/>
<path d="M85.6155 64.6468L92.4548 45.9457H96.3019L103.141 64.6468H99.5078L98.0117 60.3188H90.7182L89.1954 64.6468H85.6155ZM91.6533 57.6472H97.0766L94.3516 49.8729L91.6533 57.6472Z"/>
<path d="M107.153 64.6468V45.9457H111.214L117.172 57.8075L123.049 45.9457H127.11V64.6468H123.69V51.743L118.481 61.9752H115.782L110.573 51.743V64.6468H107.153Z"/>
<path d="M132.341 64.6468V45.9457H135.761V64.6468H132.341Z"/>
<path d="M140.988 64.6468V45.9457H144.408V61.9752H152.69V64.6468H140.988Z"/>
<path d="M159.48 64.6468V57.9945L153.202 45.9457H157.076L161.217 54.5749L165.331 45.9457H169.151L162.9 57.9945V64.6468H159.48Z"/>
</mask>
<path d="M72.5352 37.9309V19.2298H75.9548L84.7443 32.4007V19.2298H88.164V37.9309H84.7443L75.9548 24.7867V37.9309H72.5352Z" fill="#1B1F39"/>
<path d="M93.3923 37.9309V19.2298H96.812V37.9309H93.3923Z" fill="#1B1F39"/>
<path d="M102.04 37.9309V19.2298H105.459V26.7904L112.379 19.2298H116.6L109.707 26.6568L116.787 37.9309H112.592L107.249 29.2749L105.459 31.2252V37.9309H102.04Z" fill="#1B1F39"/>
<path d="M119.529 37.9309L126.368 19.2298H130.215L137.055 37.9309H133.421L131.925 33.6029H124.632L123.109 37.9309H119.529ZM125.567 30.9313H130.99L128.265 23.157L125.567 30.9313Z" fill="#1B1F39"/>
<path d="M153.39 37.9309V21.9815H147.94V19.2298H162.287V21.9815H156.81V37.9309H153.39Z" fill="#1B1F39"/>
<path d="M166.423 37.9309V19.2298H178.632V21.9815H169.842V27.111H177.83V29.7825H169.842V35.1792H178.632V37.9309H166.423Z" fill="#1B1F39"/>
<path d="M191.94 38.2515C190.052 38.2515 188.431 37.8507 187.077 37.0493C185.724 36.23 184.682 35.099 183.952 33.6563C183.221 32.1959 182.856 30.5128 182.856 28.607C182.856 26.7013 183.221 25.0182 183.952 23.5577C184.682 22.0973 185.724 20.9574 187.077 20.1381C188.431 19.3188 190.052 18.9092 191.94 18.9092C194.184 18.9092 196.018 19.4702 197.443 20.5923C198.886 21.6965 199.785 23.255 200.142 25.2676H196.375C196.143 24.2524 195.644 23.4598 194.878 22.8898C194.13 22.3021 193.133 22.0082 191.886 22.0082C190.159 22.0082 188.805 22.596 187.825 23.7715C186.846 24.947 186.356 26.5588 186.356 28.607C186.356 30.6553 186.846 32.2671 187.825 33.4426C188.805 34.6003 190.159 35.1792 191.886 35.1792C193.133 35.1792 194.13 34.912 194.878 34.3777C195.644 33.8256 196.143 33.0686 196.375 32.1068H200.142C199.785 34.0304 198.886 35.5354 197.443 36.6218C196.018 37.7083 194.184 38.2515 191.94 38.2515Z" fill="#1B1F39"/>
<path d="M204.771 37.9309V19.2298H208.191V27.0041H216.58V19.2298H220V37.9309H216.58V29.7825H208.191V37.9309H204.771Z" fill="#1B1F39"/>
<path d="M72.5352 64.6468V45.9457H84.6107V48.6974H75.9548V53.9337H82.9544V56.632H75.9548V64.6468H72.5352Z" fill="#1B1F39"/>
<path d="M85.6155 64.6468L92.4548 45.9457H96.3019L103.141 64.6468H99.5078L98.0117 60.3188H90.7182L89.1954 64.6468H85.6155ZM91.6533 57.6472H97.0766L94.3516 49.8729L91.6533 57.6472Z" fill="#1B1F39"/>
<path d="M107.153 64.6468V45.9457H111.214L117.172 57.8075L123.049 45.9457H127.11V64.6468H123.69V51.743L118.481 61.9752H115.782L110.573 51.743V64.6468H107.153Z" fill="#1B1F39"/>
<path d="M132.341 64.6468V45.9457H135.761V64.6468H132.341Z" fill="#1B1F39"/>
<path d="M140.988 64.6468V45.9457H144.408V61.9752H152.69V64.6468H140.988Z" fill="#1B1F39"/>
<path d="M159.48 64.6468V57.9945L153.202 45.9457H157.076L161.217 54.5749L165.331 45.9457H169.151L162.9 57.9945V64.6468H159.48Z" fill="#1B1F39"/>
<path d="M72.5352 37.9309V19.2298H75.9548L84.7443 32.4007V19.2298H88.164V37.9309H84.7443L75.9548 24.7867V37.9309H72.5352Z" stroke="#1B1F39" stroke-width="1.4" mask="url(#path-1-outside-1_0_197)"/>
<path d="M93.3923 37.9309V19.2298H96.812V37.9309H93.3923Z" stroke="#1B1F39" stroke-width="1.4" mask="url(#path-1-outside-1_0_197)"/>
<path d="M102.04 37.9309V19.2298H105.459V26.7904L112.379 19.2298H116.6L109.707 26.6568L116.787 37.9309H112.592L107.249 29.2749L105.459 31.2252V37.9309H102.04Z" stroke="#1B1F39" stroke-width="1.4" mask="url(#path-1-outside-1_0_197)"/>
<path d="M119.529 37.9309L126.368 19.2298H130.215L137.055 37.9309H133.421L131.925 33.6029H124.632L123.109 37.9309H119.529ZM125.567 30.9313H130.99L128.265 23.157L125.567 30.9313Z" stroke="#1B1F39" stroke-width="1.4" mask="url(#path-1-outside-1_0_197)"/>
<path d="M153.39 37.9309V21.9815H147.94V19.2298H162.287V21.9815H156.81V37.9309H153.39Z" stroke="#1B1F39" stroke-width="1.4" mask="url(#path-1-outside-1_0_197)"/>
<path d="M166.423 37.9309V19.2298H178.632V21.9815H169.842V27.111H177.83V29.7825H169.842V35.1792H178.632V37.9309H166.423Z" stroke="#1B1F39" stroke-width="1.4" mask="url(#path-1-outside-1_0_197)"/>
<path d="M191.94 38.2515C190.052 38.2515 188.431 37.8507 187.077 37.0493C185.724 36.23 184.682 35.099 183.952 33.6563C183.221 32.1959 182.856 30.5128 182.856 28.607C182.856 26.7013 183.221 25.0182 183.952 23.5577C184.682 22.0973 185.724 20.9574 187.077 20.1381C188.431 19.3188 190.052 18.9092 191.94 18.9092C194.184 18.9092 196.018 19.4702 197.443 20.5923C198.886 21.6965 199.785 23.255 200.142 25.2676H196.375C196.143 24.2524 195.644 23.4598 194.878 22.8898C194.13 22.3021 193.133 22.0082 191.886 22.0082C190.159 22.0082 188.805 22.596 187.825 23.7715C186.846 24.947 186.356 26.5588 186.356 28.607C186.356 30.6553 186.846 32.2671 187.825 33.4426C188.805 34.6003 190.159 35.1792 191.886 35.1792C193.133 35.1792 194.13 34.912 194.878 34.3777C195.644 33.8256 196.143 33.0686 196.375 32.1068H200.142C199.785 34.0304 198.886 35.5354 197.443 36.6218C196.018 37.7083 194.184 38.2515 191.94 38.2515Z" stroke="#1B1F39" stroke-width="1.4" mask="url(#path-1-outside-1_0_197)"/>
<path d="M204.771 37.9309V19.2298H208.191V27.0041H216.58V19.2298H220V37.9309H216.58V29.7825H208.191V37.9309H204.771Z" stroke="#1B1F39" stroke-width="1.4" mask="url(#path-1-outside-1_0_197)"/>
<path d="M72.5352 64.6468V45.9457H84.6107V48.6974H75.9548V53.9337H82.9544V56.632H75.9548V64.6468H72.5352Z" stroke="#1B1F39" stroke-width="1.4" mask="url(#path-1-outside-1_0_197)"/>
<path d="M85.6155 64.6468L92.4548 45.9457H96.3019L103.141 64.6468H99.5078L98.0117 60.3188H90.7182L89.1954 64.6468H85.6155ZM91.6533 57.6472H97.0766L94.3516 49.8729L91.6533 57.6472Z" stroke="#1B1F39" stroke-width="1.4" mask="url(#path-1-outside-1_0_197)"/>
<path d="M107.153 64.6468V45.9457H111.214L117.172 57.8075L123.049 45.9457H127.11V64.6468H123.69V51.743L118.481 61.9752H115.782L110.573 51.743V64.6468H107.153Z" stroke="#1B1F39" stroke-width="1.4" mask="url(#path-1-outside-1_0_197)"/>
<path d="M132.341 64.6468V45.9457H135.761V64.6468H132.341Z" stroke="#1B1F39" stroke-width="1.4" mask="url(#path-1-outside-1_0_197)"/>
<path d="M140.988 64.6468V45.9457H144.408V61.9752H152.69V64.6468H140.988Z" stroke="#1B1F39" stroke-width="1.4" mask="url(#path-1-outside-1_0_197)"/>
<path d="M159.48 64.6468V57.9945L153.202 45.9457H157.076L161.217 54.5749L165.331 45.9457H169.151L162.9 57.9945V64.6468H159.48Z" stroke="#1B1F39" stroke-width="1.4" mask="url(#path-1-outside-1_0_197)"/>
</g>
<path id="Vector 21" d="M47.9299 12.786L29.8574 23.66V64.6462H25.9286V23.66L7.07031 12.786L10.9991 10.4287L27.5001 19.8578L44.0011 10.4287L47.9299 12.786Z" fill="#1B1F39" stroke="#1B1F39"/>
<path id="Vector 20" d="M0 16.7148L17.2868 26.144V64.6463H12.9651V29.6799L4.32169 24.5725L4.71457 64.6463H0.392881L0 16.7148Z" fill="#1B1F39"/>
<path id="Vector 22" d="M43.2179 45.788V64.6463H39.2891V26.9297L56.5758 16.7148V22.2152L43.2179 30.0728V40.2877L56.5758 32.4301V37.9304L43.2179 45.788Z" fill="#1B1F39" stroke="#1B1F39"/>
<path id="Vector 23" d="M37.715 6.50033L27.5001 12.0007L17.2852 6.50033L27.5001 1L37.715 6.50033Z" fill="#EB2128" stroke="#EB2128"/>
</g>
</svg>
