<svg width="182" height="71" viewBox="0 0 182 71" fill="none" xmlns="http://www.w3.org/2000/svg">
<g id="SPRIBE">
<mask id="path-1-outside-1_0_203" maskUnits="userSpaceOnUse" x="0" y="0" width="182" height="71" fill="black">
<rect fill="white" width="182" height="71"/>
<path d="M16.3367 62.0473C13.6739 62.0473 11.3781 61.3891 9.44924 60.0728C7.53749 58.7565 6.05247 56.7686 4.99419 54.1091C3.95297 51.4228 3.43236 48.1051 3.43236 44.1562C3.43236 43.6458 3.43236 43.2025 3.43236 42.8265C3.43236 42.4504 3.43236 42.0206 3.43236 41.537H8.98837C8.98837 41.9937 8.98837 42.3966 8.98837 42.7459C8.98837 43.0682 8.98837 43.4846 8.98837 43.995C8.98837 47.6485 9.6114 50.3348 10.8574 52.0541C12.1035 53.7465 13.9214 54.5927 16.311 54.5927C18.7519 54.5927 20.6125 53.9479 21.8927 52.6585C23.1729 51.3422 23.8129 49.2334 23.8129 46.3321C23.8129 44.2637 23.4118 42.531 22.6096 41.1341C21.8244 39.7103 20.732 38.488 19.3323 37.4672C17.9497 36.4464 16.3537 35.4927 14.5444 34.6062C12.5132 33.6123 10.6782 32.3497 9.03958 30.8185C7.40094 29.2604 6.09515 27.3262 5.12221 25.016C4.16633 22.6788 3.68839 19.8313 3.68839 16.4734C3.68839 13.1692 4.21754 10.3619 5.27583 8.05167C6.33412 5.74141 7.80206 3.99528 9.67967 2.81328C11.5573 1.60443 13.708 1 16.1318 1C18.7093 1 20.9539 1.63129 22.8656 2.89388C24.7944 4.1296 26.288 6.01004 27.3463 8.53521C28.4216 11.0335 28.9593 14.19 28.9593 18.0046C28.9593 18.5419 28.9593 19.012 28.9593 19.4149C28.9593 19.791 28.9593 20.2611 28.9593 20.8253H23.3777C23.3777 20.3686 23.3777 19.9522 23.3777 19.5761C23.3777 19.2 23.3777 18.7971 23.3777 18.3672C23.3777 14.875 22.7717 12.3498 21.5598 10.7917C20.365 9.23366 18.5898 8.45462 16.2342 8.45462C13.947 8.45462 12.1803 9.08591 10.9343 10.3485C9.70528 11.6111 9.09079 13.6527 9.09079 16.4734C9.09079 18.5687 9.48338 20.3149 10.2686 21.7118C11.0708 23.1087 12.1632 24.3041 13.5458 25.298C14.9455 26.292 16.5329 27.2591 18.3081 28.1993C20.5613 29.3813 22.4986 30.711 24.1202 32.1885C25.7588 33.666 27.022 35.5062 27.9095 37.709C28.7971 39.9118 29.2409 42.6921 29.2409 46.0501C29.2409 49.4349 28.7118 52.3227 27.6535 54.7136C26.5952 57.1044 25.1017 58.9311 23.1729 60.1937C21.244 61.4294 18.9653 62.0473 16.3367 62.0473Z"/>
<path d="M43.7395 61.2011H38.1835V1.76561H49.5515C52.4533 1.76561 54.8856 2.62524 56.8486 4.34451C58.8286 6.06377 60.3136 8.38746 61.3037 11.3156C62.3107 14.2168 62.8143 17.4673 62.8143 21.067C62.8143 24.6667 62.3022 27.9844 61.278 31.02C60.271 34.0287 58.7774 36.4464 56.7974 38.2731C54.8174 40.0998 52.4021 41.0132 49.5515 41.0132H43.7395V61.2011ZM43.7395 38.0313L41.2303 33.76H48.9114C50.7208 33.76 52.2399 33.2496 53.4689 32.2288C54.715 31.1811 55.6538 29.7036 56.2853 27.7963C56.9169 25.889 57.2327 23.6459 57.2327 21.067C57.2327 18.4881 56.9254 16.2988 56.3109 14.4989C55.6964 12.6991 54.7747 11.3424 53.5457 10.4291C52.3167 9.48886 50.772 9.01875 48.9114 9.01875H41.2303L43.7395 4.4251V38.0313Z"/>
<path d="M71.4603 61.2011V1.76561H85.2864C88.9221 1.76561 91.6702 3.09535 93.5308 5.75484C95.3913 8.41432 96.3216 12.4036 96.3216 17.7225C96.3216 20.8387 95.9375 23.4982 95.1694 25.701C94.4184 27.9038 93.5052 29.6096 92.4298 30.8185C91.3715 32.0005 90.373 32.6721 89.4342 32.8332C90.3901 32.9407 91.3203 33.3436 92.225 34.0421C93.1296 34.7405 93.8807 35.8151 94.4781 37.2657C95.0755 38.7163 95.3743 40.6774 95.3743 43.1488C95.3743 45.2442 95.3743 47.3664 95.3743 49.5155C95.3743 51.6645 95.3743 53.8002 95.3743 55.9224C95.3743 57.1313 95.434 58.2327 95.5535 59.2266C95.69 60.1937 95.8522 60.8519 96.0399 61.2011H90.4327C90.2791 60.7981 90.1425 60.1265 90.0231 59.1863C89.9036 58.2461 89.8438 57.1581 89.8438 55.9224C89.8438 53.9882 89.8438 52.0406 89.8438 50.0796C89.8438 48.1186 89.8438 46.1575 89.8438 44.1965C89.8438 41.6445 89.3574 39.7372 88.3844 38.4746C87.4286 37.1851 86.0289 36.5404 84.1854 36.5404H75.3777L76.8883 33.4377V61.2011H71.4603ZM76.8883 32.7124L75.3777 29.2873H84.2366C85.4314 29.2873 86.5068 28.844 87.4627 27.9575C88.4186 27.0442 89.1781 25.7816 89.7414 24.1698C90.3218 22.5311 90.6119 20.6238 90.6119 18.4478C90.6119 15.1705 90.0401 12.7796 88.8965 11.2753C87.7529 9.77093 86.1142 9.01875 83.9806 9.01875H75.2497L76.8883 5.67425V32.7124Z"/>
<path d="M105.84 61.2011V1.76561H111.319V61.2011H105.84Z"/>
<path d="M134.751 1.76561C137.192 1.76561 139.232 2.30288 140.871 3.37742C142.526 4.4251 143.781 6.01004 144.634 8.13226C145.488 10.2276 145.914 12.8468 145.914 15.9898C145.914 18.9985 145.522 21.5371 144.737 23.6056C143.969 25.6473 142.979 27.2053 141.767 28.2799C140.572 29.3544 139.343 29.9588 138.08 30.0932C139.445 30.1469 140.794 30.6573 142.125 31.6244C143.474 32.5646 144.583 34.0958 145.454 36.218C146.324 38.3134 146.759 41.1206 146.759 44.6397C146.759 48.0245 146.324 50.9661 145.454 53.4644C144.6 55.9358 143.277 57.8432 141.485 59.1863C139.693 60.5295 137.388 61.2011 134.572 61.2011H121.412V1.76561H134.751ZM126.763 29.4887L124.894 26.7487H132.575C135.067 26.7487 136.987 25.9428 138.336 24.3309C139.684 22.7191 140.358 20.4089 140.358 17.4002C140.358 15.3585 140.077 13.7333 139.514 12.5244C138.95 11.2887 138.139 10.4022 137.081 9.86495C136.04 9.30082 134.802 9.01875 133.369 9.01875H124.254L126.763 4.4251V29.4887ZM133.497 53.9479C135.886 53.9479 137.747 53.1152 139.078 51.4496C140.427 49.7572 141.101 47.3261 141.101 44.1562C141.101 42.2489 140.879 40.6505 140.435 39.3611C140.009 38.0448 139.42 36.9971 138.669 36.218C137.918 35.439 137.047 34.8749 136.057 34.5256C135.067 34.1495 134.009 33.9615 132.882 33.9615H124.894L126.763 31.2214V58.5416L124.254 53.9479H133.497Z"/>
<path d="M159.211 9.01875L161.72 4.4251V30.5364L160.389 27.756H174.701V35.0092H160.389L161.72 32.2288V58.5416L159.211 53.9479H177.544V61.2011H156.139V1.76561H177.544V9.01875H159.211Z"/>
<path d="M1 66.238H181V70.2308H1V66.238Z"/>
</mask>
<path d="M16.3367 62.0473C13.6739 62.0473 11.3781 61.3891 9.44924 60.0728C7.53749 58.7565 6.05247 56.7686 4.99419 54.1091C3.95297 51.4228 3.43236 48.1051 3.43236 44.1562C3.43236 43.6458 3.43236 43.2025 3.43236 42.8265C3.43236 42.4504 3.43236 42.0206 3.43236 41.537H8.98837C8.98837 41.9937 8.98837 42.3966 8.98837 42.7459C8.98837 43.0682 8.98837 43.4846 8.98837 43.995C8.98837 47.6485 9.6114 50.3348 10.8574 52.0541C12.1035 53.7465 13.9214 54.5927 16.311 54.5927C18.7519 54.5927 20.6125 53.9479 21.8927 52.6585C23.1729 51.3422 23.8129 49.2334 23.8129 46.3321C23.8129 44.2637 23.4118 42.531 22.6096 41.1341C21.8244 39.7103 20.732 38.488 19.3323 37.4672C17.9497 36.4464 16.3537 35.4927 14.5444 34.6062C12.5132 33.6123 10.6782 32.3497 9.03958 30.8185C7.40094 29.2604 6.09515 27.3262 5.12221 25.016C4.16633 22.6788 3.68839 19.8313 3.68839 16.4734C3.68839 13.1692 4.21754 10.3619 5.27583 8.05167C6.33412 5.74141 7.80206 3.99528 9.67967 2.81328C11.5573 1.60443 13.708 1 16.1318 1C18.7093 1 20.9539 1.63129 22.8656 2.89388C24.7944 4.1296 26.288 6.01004 27.3463 8.53521C28.4216 11.0335 28.9593 14.19 28.9593 18.0046C28.9593 18.5419 28.9593 19.012 28.9593 19.4149C28.9593 19.791 28.9593 20.2611 28.9593 20.8253H23.3777C23.3777 20.3686 23.3777 19.9522 23.3777 19.5761C23.3777 19.2 23.3777 18.7971 23.3777 18.3672C23.3777 14.875 22.7717 12.3498 21.5598 10.7917C20.365 9.23366 18.5898 8.45462 16.2342 8.45462C13.947 8.45462 12.1803 9.08591 10.9343 10.3485C9.70528 11.6111 9.09079 13.6527 9.09079 16.4734C9.09079 18.5687 9.48338 20.3149 10.2686 21.7118C11.0708 23.1087 12.1632 24.3041 13.5458 25.298C14.9455 26.292 16.5329 27.2591 18.3081 28.1993C20.5613 29.3813 22.4986 30.711 24.1202 32.1885C25.7588 33.666 27.022 35.5062 27.9095 37.709C28.7971 39.9118 29.2409 42.6921 29.2409 46.0501C29.2409 49.4349 28.7118 52.3227 27.6535 54.7136C26.5952 57.1044 25.1017 58.9311 23.1729 60.1937C21.244 61.4294 18.9653 62.0473 16.3367 62.0473Z" fill="black"/>
<path d="M43.7395 61.2011H38.1835V1.76561H49.5515C52.4533 1.76561 54.8856 2.62524 56.8486 4.34451C58.8286 6.06377 60.3136 8.38746 61.3037 11.3156C62.3107 14.2168 62.8143 17.4673 62.8143 21.067C62.8143 24.6667 62.3022 27.9844 61.278 31.02C60.271 34.0287 58.7774 36.4464 56.7974 38.2731C54.8174 40.0998 52.4021 41.0132 49.5515 41.0132H43.7395V61.2011ZM43.7395 38.0313L41.2303 33.76H48.9114C50.7208 33.76 52.2399 33.2496 53.4689 32.2288C54.715 31.1811 55.6538 29.7036 56.2853 27.7963C56.9169 25.889 57.2327 23.6459 57.2327 21.067C57.2327 18.4881 56.9254 16.2988 56.3109 14.4989C55.6964 12.6991 54.7747 11.3424 53.5457 10.4291C52.3167 9.48886 50.772 9.01875 48.9114 9.01875H41.2303L43.7395 4.4251V38.0313Z" fill="black"/>
<path d="M71.4603 61.2011V1.76561H85.2864C88.9221 1.76561 91.6702 3.09535 93.5308 5.75484C95.3913 8.41432 96.3216 12.4036 96.3216 17.7225C96.3216 20.8387 95.9375 23.4982 95.1694 25.701C94.4184 27.9038 93.5052 29.6096 92.4298 30.8185C91.3715 32.0005 90.373 32.6721 89.4342 32.8332C90.3901 32.9407 91.3203 33.3436 92.225 34.0421C93.1296 34.7405 93.8807 35.8151 94.4781 37.2657C95.0755 38.7163 95.3743 40.6774 95.3743 43.1488C95.3743 45.2442 95.3743 47.3664 95.3743 49.5155C95.3743 51.6645 95.3743 53.8002 95.3743 55.9224C95.3743 57.1313 95.434 58.2327 95.5535 59.2266C95.69 60.1937 95.8522 60.8519 96.0399 61.2011H90.4327C90.2791 60.7981 90.1425 60.1265 90.0231 59.1863C89.9036 58.2461 89.8438 57.1581 89.8438 55.9224C89.8438 53.9882 89.8438 52.0406 89.8438 50.0796C89.8438 48.1186 89.8438 46.1575 89.8438 44.1965C89.8438 41.6445 89.3574 39.7372 88.3844 38.4746C87.4286 37.1851 86.0289 36.5404 84.1854 36.5404H75.3777L76.8883 33.4377V61.2011H71.4603ZM76.8883 32.7124L75.3777 29.2873H84.2366C85.4314 29.2873 86.5068 28.844 87.4627 27.9575C88.4186 27.0442 89.1781 25.7816 89.7414 24.1698C90.3218 22.5311 90.6119 20.6238 90.6119 18.4478C90.6119 15.1705 90.0401 12.7796 88.8965 11.2753C87.7529 9.77093 86.1142 9.01875 83.9806 9.01875H75.2497L76.8883 5.67425V32.7124Z" fill="black"/>
<path d="M105.84 61.2011V1.76561H111.319V61.2011H105.84Z" fill="black"/>
<path d="M134.751 1.76561C137.192 1.76561 139.232 2.30288 140.871 3.37742C142.526 4.4251 143.781 6.01004 144.634 8.13226C145.488 10.2276 145.914 12.8468 145.914 15.9898C145.914 18.9985 145.522 21.5371 144.737 23.6056C143.969 25.6473 142.979 27.2053 141.767 28.2799C140.572 29.3544 139.343 29.9588 138.08 30.0932C139.445 30.1469 140.794 30.6573 142.125 31.6244C143.474 32.5646 144.583 34.0958 145.454 36.218C146.324 38.3134 146.759 41.1206 146.759 44.6397C146.759 48.0245 146.324 50.9661 145.454 53.4644C144.6 55.9358 143.277 57.8432 141.485 59.1863C139.693 60.5295 137.388 61.2011 134.572 61.2011H121.412V1.76561H134.751ZM126.763 29.4887L124.894 26.7487H132.575C135.067 26.7487 136.987 25.9428 138.336 24.3309C139.684 22.7191 140.358 20.4089 140.358 17.4002C140.358 15.3585 140.077 13.7333 139.514 12.5244C138.95 11.2887 138.139 10.4022 137.081 9.86495C136.04 9.30082 134.802 9.01875 133.369 9.01875H124.254L126.763 4.4251V29.4887ZM133.497 53.9479C135.886 53.9479 137.747 53.1152 139.078 51.4496C140.427 49.7572 141.101 47.3261 141.101 44.1562C141.101 42.2489 140.879 40.6505 140.435 39.3611C140.009 38.0448 139.42 36.9971 138.669 36.218C137.918 35.439 137.047 34.8749 136.057 34.5256C135.067 34.1495 134.009 33.9615 132.882 33.9615H124.894L126.763 31.2214V58.5416L124.254 53.9479H133.497Z" fill="black"/>
<path d="M159.211 9.01875L161.72 4.4251V30.5364L160.389 27.756H174.701V35.0092H160.389L161.72 32.2288V58.5416L159.211 53.9479H177.544V61.2011H156.139V1.76561H177.544V9.01875H159.211Z" fill="black"/>
<path d="M1 66.238H181V70.2308H1V66.238Z" fill="black"/>
<path d="M16.3367 62.0473C13.6739 62.0473 11.3781 61.3891 9.44924 60.0728C7.53749 58.7565 6.05247 56.7686 4.99419 54.1091C3.95297 51.4228 3.43236 48.1051 3.43236 44.1562C3.43236 43.6458 3.43236 43.2025 3.43236 42.8265C3.43236 42.4504 3.43236 42.0206 3.43236 41.537H8.98837C8.98837 41.9937 8.98837 42.3966 8.98837 42.7459C8.98837 43.0682 8.98837 43.4846 8.98837 43.995C8.98837 47.6485 9.6114 50.3348 10.8574 52.0541C12.1035 53.7465 13.9214 54.5927 16.311 54.5927C18.7519 54.5927 20.6125 53.9479 21.8927 52.6585C23.1729 51.3422 23.8129 49.2334 23.8129 46.3321C23.8129 44.2637 23.4118 42.531 22.6096 41.1341C21.8244 39.7103 20.732 38.488 19.3323 37.4672C17.9497 36.4464 16.3537 35.4927 14.5444 34.6062C12.5132 33.6123 10.6782 32.3497 9.03958 30.8185C7.40094 29.2604 6.09515 27.3262 5.12221 25.016C4.16633 22.6788 3.68839 19.8313 3.68839 16.4734C3.68839 13.1692 4.21754 10.3619 5.27583 8.05167C6.33412 5.74141 7.80206 3.99528 9.67967 2.81328C11.5573 1.60443 13.708 1 16.1318 1C18.7093 1 20.9539 1.63129 22.8656 2.89388C24.7944 4.1296 26.288 6.01004 27.3463 8.53521C28.4216 11.0335 28.9593 14.19 28.9593 18.0046C28.9593 18.5419 28.9593 19.012 28.9593 19.4149C28.9593 19.791 28.9593 20.2611 28.9593 20.8253H23.3777C23.3777 20.3686 23.3777 19.9522 23.3777 19.5761C23.3777 19.2 23.3777 18.7971 23.3777 18.3672C23.3777 14.875 22.7717 12.3498 21.5598 10.7917C20.365 9.23366 18.5898 8.45462 16.2342 8.45462C13.947 8.45462 12.1803 9.08591 10.9343 10.3485C9.70528 11.6111 9.09079 13.6527 9.09079 16.4734C9.09079 18.5687 9.48338 20.3149 10.2686 21.7118C11.0708 23.1087 12.1632 24.3041 13.5458 25.298C14.9455 26.292 16.5329 27.2591 18.3081 28.1993C20.5613 29.3813 22.4986 30.711 24.1202 32.1885C25.7588 33.666 27.022 35.5062 27.9095 37.709C28.7971 39.9118 29.2409 42.6921 29.2409 46.0501C29.2409 49.4349 28.7118 52.3227 27.6535 54.7136C26.5952 57.1044 25.1017 58.9311 23.1729 60.1937C21.244 61.4294 18.9653 62.0473 16.3367 62.0473Z" stroke="black" mask="url(#path-1-outside-1_0_203)"/>
<path d="M43.7395 61.2011H38.1835V1.76561H49.5515C52.4533 1.76561 54.8856 2.62524 56.8486 4.34451C58.8286 6.06377 60.3136 8.38746 61.3037 11.3156C62.3107 14.2168 62.8143 17.4673 62.8143 21.067C62.8143 24.6667 62.3022 27.9844 61.278 31.02C60.271 34.0287 58.7774 36.4464 56.7974 38.2731C54.8174 40.0998 52.4021 41.0132 49.5515 41.0132H43.7395V61.2011ZM43.7395 38.0313L41.2303 33.76H48.9114C50.7208 33.76 52.2399 33.2496 53.4689 32.2288C54.715 31.1811 55.6538 29.7036 56.2853 27.7963C56.9169 25.889 57.2327 23.6459 57.2327 21.067C57.2327 18.4881 56.9254 16.2988 56.3109 14.4989C55.6964 12.6991 54.7747 11.3424 53.5457 10.4291C52.3167 9.48886 50.772 9.01875 48.9114 9.01875H41.2303L43.7395 4.4251V38.0313Z" stroke="black" mask="url(#path-1-outside-1_0_203)"/>
<path d="M71.4603 61.2011V1.76561H85.2864C88.9221 1.76561 91.6702 3.09535 93.5308 5.75484C95.3913 8.41432 96.3216 12.4036 96.3216 17.7225C96.3216 20.8387 95.9375 23.4982 95.1694 25.701C94.4184 27.9038 93.5052 29.6096 92.4298 30.8185C91.3715 32.0005 90.373 32.6721 89.4342 32.8332C90.3901 32.9407 91.3203 33.3436 92.225 34.0421C93.1296 34.7405 93.8807 35.8151 94.4781 37.2657C95.0755 38.7163 95.3743 40.6774 95.3743 43.1488C95.3743 45.2442 95.3743 47.3664 95.3743 49.5155C95.3743 51.6645 95.3743 53.8002 95.3743 55.9224C95.3743 57.1313 95.434 58.2327 95.5535 59.2266C95.69 60.1937 95.8522 60.8519 96.0399 61.2011H90.4327C90.2791 60.7981 90.1425 60.1265 90.0231 59.1863C89.9036 58.2461 89.8438 57.1581 89.8438 55.9224C89.8438 53.9882 89.8438 52.0406 89.8438 50.0796C89.8438 48.1186 89.8438 46.1575 89.8438 44.1965C89.8438 41.6445 89.3574 39.7372 88.3844 38.4746C87.4286 37.1851 86.0289 36.5404 84.1854 36.5404H75.3777L76.8883 33.4377V61.2011H71.4603ZM76.8883 32.7124L75.3777 29.2873H84.2366C85.4314 29.2873 86.5068 28.844 87.4627 27.9575C88.4186 27.0442 89.1781 25.7816 89.7414 24.1698C90.3218 22.5311 90.6119 20.6238 90.6119 18.4478C90.6119 15.1705 90.0401 12.7796 88.8965 11.2753C87.7529 9.77093 86.1142 9.01875 83.9806 9.01875H75.2497L76.8883 5.67425V32.7124Z" stroke="black" mask="url(#path-1-outside-1_0_203)"/>
<path d="M105.84 61.2011V1.76561H111.319V61.2011H105.84Z" stroke="black" mask="url(#path-1-outside-1_0_203)"/>
<path d="M134.751 1.76561C137.192 1.76561 139.232 2.30288 140.871 3.37742C142.526 4.4251 143.781 6.01004 144.634 8.13226C145.488 10.2276 145.914 12.8468 145.914 15.9898C145.914 18.9985 145.522 21.5371 144.737 23.6056C143.969 25.6473 142.979 27.2053 141.767 28.2799C140.572 29.3544 139.343 29.9588 138.08 30.0932C139.445 30.1469 140.794 30.6573 142.125 31.6244C143.474 32.5646 144.583 34.0958 145.454 36.218C146.324 38.3134 146.759 41.1206 146.759 44.6397C146.759 48.0245 146.324 50.9661 145.454 53.4644C144.6 55.9358 143.277 57.8432 141.485 59.1863C139.693 60.5295 137.388 61.2011 134.572 61.2011H121.412V1.76561H134.751ZM126.763 29.4887L124.894 26.7487H132.575C135.067 26.7487 136.987 25.9428 138.336 24.3309C139.684 22.7191 140.358 20.4089 140.358 17.4002C140.358 15.3585 140.077 13.7333 139.514 12.5244C138.95 11.2887 138.139 10.4022 137.081 9.86495C136.04 9.30082 134.802 9.01875 133.369 9.01875H124.254L126.763 4.4251V29.4887ZM133.497 53.9479C135.886 53.9479 137.747 53.1152 139.078 51.4496C140.427 49.7572 141.101 47.3261 141.101 44.1562C141.101 42.2489 140.879 40.6505 140.435 39.3611C140.009 38.0448 139.42 36.9971 138.669 36.218C137.918 35.439 137.047 34.8749 136.057 34.5256C135.067 34.1495 134.009 33.9615 132.882 33.9615H124.894L126.763 31.2214V58.5416L124.254 53.9479H133.497Z" stroke="black" mask="url(#path-1-outside-1_0_203)"/>
<path d="M159.211 9.01875L161.72 4.4251V30.5364L160.389 27.756H174.701V35.0092H160.389L161.72 32.2288V58.5416L159.211 53.9479H177.544V61.2011H156.139V1.76561H177.544V9.01875H159.211Z" stroke="black" mask="url(#path-1-outside-1_0_203)"/>
<path d="M1 66.238H181V70.2308H1V66.238Z" stroke="black" mask="url(#path-1-outside-1_0_203)"/>
</g>
</svg>
