<svg width="220" height="31" viewBox="0 0 220 31" fill="none" xmlns="http://www.w3.org/2000/svg">
<g id="startupinc">
<g id="startup.inc">
<path d="M9.11779 28.6975C7.39227 28.6975 5.72558 28.3599 4.11771 27.6847C2.54906 27.0094 1.33335 26.0416 0.470595 24.7811C0.156865 24.286 0 23.7908 0 23.2956C0 22.7104 0.196081 22.2153 0.588244 21.8101C1.01962 21.36 1.49022 21.1349 2.00003 21.1349C2.27454 21.1349 2.54906 21.2024 2.82357 21.3374C3.09809 21.4275 3.31378 21.6075 3.47064 21.8776C4.0981 22.7329 4.94125 23.4082 6.00009 23.9033C7.09815 24.3985 8.23542 24.6461 9.41191 24.6461C10.7845 24.6461 11.9021 24.2635 12.7649 23.4982C13.6669 22.7329 14.1179 21.7201 14.1179 20.4596C14.1179 19.0191 13.5884 18.0063 12.5296 17.4211C11.51 16.7909 10.3139 16.3407 8.94131 16.0706C7.68639 15.8005 6.41186 15.4179 5.11772 14.9227C3.82359 14.3825 2.74514 13.6173 1.88238 12.6269C1.01962 11.5915 0.588244 10.1961 0.588244 8.44044C0.588244 6.05461 1.37257 4.16395 2.94122 2.76847C4.54909 1.37298 6.68638 0.675237 9.35308 0.675237C10.7649 0.675237 12.059 0.922823 13.2355 1.418C14.412 1.86815 15.3924 2.49837 16.1767 3.30866C16.6473 3.75881 16.8826 4.32151 16.8826 4.99674C16.8826 5.53693 16.7061 6.0096 16.3532 6.41474C16.0002 6.81988 15.5885 7.02245 15.1179 7.02245C14.6473 7.02245 14.1963 6.84239 13.7649 6.48226C12.51 5.31185 10.961 4.72665 9.11779 4.72665C5.98048 4.72665 4.41183 5.94207 4.41183 8.37292C4.41183 9.54333 4.88243 10.3536 5.82362 10.8038C6.80402 11.2089 8.11777 11.6366 9.76485 12.0867C10.5492 12.2668 11.3923 12.5369 12.2943 12.897C13.2355 13.2121 14.1375 13.6848 15.0002 14.315C15.863 14.9002 16.5689 15.7105 17.1179 16.7458C17.6669 17.7362 17.9414 18.9966 17.9414 20.5272C17.9414 22.958 17.1179 24.9387 15.4708 26.4692C13.863 27.9548 11.7453 28.6975 9.11779 28.6975Z" fill="#3A3A3A"/>
<path d="M29.0951 28.6975C28.4676 28.6975 27.9578 28.4949 27.5657 28.0898C27.2127 27.6847 27.0363 27.167 27.0363 26.5368V6.8874C27.0363 5.76201 26.5264 5.19931 25.5068 5.19931H21.8009C20.5852 5.19931 19.9773 4.50157 19.9773 3.10609C19.9773 1.7106 20.5852 1.01286 21.8009 1.01286H36.3305C36.8795 1.01286 37.3305 1.21543 37.6835 1.62057C38.0364 1.98069 38.2129 2.47587 38.2129 3.10609C38.2129 3.7363 38.0364 4.25399 37.6835 4.65913C37.3305 5.01925 36.8795 5.19931 36.3305 5.19931H32.6834C31.6638 5.19931 31.154 5.76201 31.154 6.8874V26.5368C31.154 27.167 30.9579 27.6847 30.5657 28.0898C30.2128 28.4949 29.7226 28.6975 29.0951 28.6975Z" fill="#3A3A3A"/>
<path d="M72.8541 28.1816C72.3443 28.1816 71.8737 27.9565 71.4423 27.5064C71.0502 27.1012 70.8541 26.606 70.8541 26.0208V4.21073C70.8541 2.9953 71.207 2.07248 71.9129 1.44226C72.658 0.812044 73.4424 0.496934 74.2659 0.496934H80.0307C81.3641 0.496934 82.5994 0.834551 83.7366 1.50979C84.9131 2.14001 85.8543 3.06283 86.5602 4.27825C87.2661 5.44866 87.619 6.86665 87.619 8.53223C87.619 10.1078 87.2073 11.6158 86.3837 13.0563C85.5994 14.4518 84.5798 15.3971 83.3249 15.8923C83.8739 16.1624 84.3837 16.6126 84.8543 17.2428C85.3641 17.828 85.8151 18.6157 86.2073 19.6061L88.3249 25.0755C88.4426 25.3456 88.5014 25.6382 88.5014 25.9533C88.5014 26.7636 88.2661 27.3488 87.7955 27.7089C87.3641 28.069 86.9132 28.2491 86.4426 28.2491C85.6582 28.2491 85.1092 27.8215 84.7955 26.9662L82.3837 20.4839C81.8739 19.1784 81.2268 18.2781 80.4425 17.783C79.6581 17.2878 78.7954 17.0402 77.8542 17.0402H76.3836C75.364 17.0402 74.8542 17.7154 74.8542 19.0659V26.0208C74.8542 26.606 74.6581 27.1012 74.2659 27.5064C73.8737 27.9565 73.4032 28.1816 72.8541 28.1816ZM76.1483 12.9888H79.4425C80.4229 12.9888 81.3641 12.6287 82.266 11.9084C83.2072 11.1431 83.6778 10.0628 83.6778 8.66728C83.6778 7.31681 83.2464 6.30396 82.3837 5.62872C81.5601 4.95349 80.6582 4.61587 79.6777 4.61587H76.3248C75.3444 4.61587 74.8542 5.17857 74.8542 6.30396V11.4357C74.8542 12.4711 75.2855 12.9888 76.1483 12.9888Z" fill="#3A3A3A"/>
<path d="M101.105 28.5625C100.477 28.5625 99.9675 28.3599 99.5753 27.9547C99.2224 27.5496 99.0459 27.0319 99.0459 26.4017V6.75235C99.0459 5.62696 98.5361 5.06427 97.5165 5.06427H93.8105C92.5948 5.06427 91.987 4.36652 91.987 2.97104C91.987 1.57555 92.5948 0.877807 93.8105 0.877807H108.34C108.889 0.877807 109.34 1.08038 109.693 1.48552C110.046 1.84564 110.223 2.34082 110.223 2.97104C110.223 3.60126 110.046 4.11894 109.693 4.52408C109.34 4.8842 108.889 5.06427 108.34 5.06427H104.693C103.673 5.06427 103.164 5.62696 103.164 6.75235V26.4017C103.164 27.0319 102.968 27.5496 102.575 27.9547C102.222 28.3599 101.732 28.5625 101.105 28.5625Z" fill="#3A3A3A"/>
<path d="M129.65 2.5659C129.65 1.84564 129.866 1.30546 130.298 0.945329C130.729 0.540188 131.2 0.337617 131.709 0.337617C132.219 0.337617 132.67 0.517681 133.062 0.877807C133.494 1.23793 133.709 1.80063 133.709 2.5659V17.3536C133.709 20.0095 133.219 22.1477 132.239 23.7683C131.258 25.3889 130.003 26.5593 128.474 27.2795C126.945 27.9998 125.337 28.3599 123.65 28.3599C121.768 28.3599 120.062 27.9998 118.533 27.2795C117.042 26.5593 115.866 25.3889 115.003 23.7683C114.14 22.1027 113.709 19.942 113.709 17.286V2.5659C113.709 1.80063 113.925 1.26044 114.356 0.945329C114.788 0.585205 115.258 0.405142 115.768 0.405142C116.278 0.405142 116.729 0.585205 117.121 0.945329C117.552 1.26044 117.768 1.80063 117.768 2.5659V17.286C117.768 19.6719 118.278 21.4275 119.297 22.5529C120.356 23.6332 121.807 24.1734 123.65 24.1734C125.297 24.1734 126.709 23.6332 127.886 22.5529C129.062 21.4275 129.65 19.6944 129.65 17.3536V2.5659Z" fill="#3A3A3A"/>
<path d="M139.478 28.3599C138.968 28.3599 138.498 28.1348 138.066 27.6847C137.635 27.2795 137.419 26.7843 137.419 26.1991V4.38903C137.419 3.17361 137.753 2.25079 138.419 1.62057C139.086 0.990347 139.831 0.675237 140.655 0.675237H146.89C148.223 0.675237 149.459 0.990347 150.596 1.62057C151.773 2.20577 152.714 3.08358 153.42 4.25398C154.125 5.42439 154.478 6.86489 154.478 8.57549C154.478 11.2314 153.733 13.3472 152.243 14.9227C150.792 16.4983 149.027 17.286 146.949 17.286H143.008C142.027 17.286 141.537 17.9613 141.537 19.3117V26.1991C141.537 26.7843 141.321 27.2795 140.89 27.6847C140.498 28.1348 140.027 28.3599 139.478 28.3599ZM142.714 13.2346H146.302C147.282 13.2346 148.223 12.897 149.125 12.2218C150.067 11.5465 150.537 10.3761 150.537 8.71054C150.537 7.40508 150.106 6.43725 149.243 5.80703C148.42 5.13179 147.518 4.79417 146.537 4.79417H142.89C141.91 4.79417 141.419 5.33436 141.419 6.41474V11.4115C141.419 12.6269 141.851 13.2346 142.714 13.2346Z" fill="#3A3A3A"/>
<path d="M169.034 28.3599C168.524 28.3599 168.053 28.1573 167.622 27.7522C167.19 27.3921 166.975 26.8519 166.975 26.1316V2.5659C166.975 1.80063 167.19 1.23793 167.622 0.877807C168.053 0.517681 168.524 0.337617 169.034 0.337617C169.583 0.337617 170.053 0.517681 170.445 0.877807C170.877 1.23793 171.092 1.80063 171.092 2.5659V26.1316C171.092 26.8519 170.877 27.3921 170.445 27.7522C170.053 28.1573 169.583 28.3599 169.034 28.3599Z" fill="#3A3A3A"/>
<path d="M178.735 28.3599C178.225 28.3599 177.755 28.1798 177.323 27.8197C176.892 27.4596 176.676 26.9194 176.676 26.1991V3.4437C176.676 2.40834 176.951 1.64307 177.5 1.1479C178.088 0.607712 178.715 0.337617 179.382 0.337617C180.402 0.337617 181.147 0.787775 181.617 1.68809L191.323 19.1767C191.519 19.5368 191.735 19.7169 191.97 19.7169C192.323 19.7169 192.5 19.4018 192.5 18.7715L192.265 2.49837C192.265 1.77812 192.48 1.23793 192.912 0.877807C193.343 0.517681 193.814 0.337617 194.323 0.337617C194.833 0.337617 195.304 0.517681 195.735 0.877807C196.167 1.23793 196.382 1.77812 196.382 2.49837V25.3889C196.382 26.3792 196.127 27.122 195.618 27.6171C195.108 28.1123 194.52 28.3599 193.853 28.3599C193.382 28.3599 192.912 28.2248 192.441 27.9548C192.01 27.7297 191.637 27.347 191.323 26.8068L181.794 9.79091C181.598 9.43079 181.382 9.25073 181.147 9.25073C180.794 9.25073 180.617 9.56584 180.617 10.1961L180.794 26.1991C180.794 26.9194 180.578 27.4596 180.147 27.8197C179.755 28.1798 179.284 28.3599 178.735 28.3599Z" fill="#3A3A3A"/>
<path d="M219 26.1991C218.333 26.7843 217.294 27.2795 215.882 27.6847C214.471 28.1348 213.078 28.3599 211.706 28.3599C209.431 28.3599 207.392 27.7522 205.588 26.5368C203.784 25.3213 202.353 23.6332 201.294 21.4725C200.235 19.3117 199.706 16.8359 199.706 14.0449C199.706 11.2989 200.215 8.86809 201.235 6.75236C202.255 4.63662 203.686 2.99354 205.529 1.82314C207.412 0.607712 209.588 0 212.059 0C213.039 0 214 0.0900316 214.941 0.270095C215.921 0.450158 216.902 0.765268 217.882 1.21542C218.274 1.4405 218.549 1.75561 218.706 2.16075C218.902 2.52088 219 2.88101 219 3.24113C219 3.82634 218.824 4.34402 218.471 4.79417C218.157 5.24433 217.725 5.46941 217.176 5.46941C216.941 5.46941 216.667 5.40188 216.353 5.26684C215.725 4.99674 214.98 4.74916 214.118 4.52408C213.294 4.299 212.47 4.18646 211.647 4.18646C210.078 4.18646 208.706 4.65913 207.529 5.60445C206.353 6.50477 205.431 7.72019 204.764 9.25073C204.137 10.7813 203.823 12.4693 203.823 14.315C203.823 17.0609 204.549 19.4018 206 21.3374C207.451 23.2731 209.372 24.241 211.765 24.241C212.823 24.241 213.863 24.0609 214.882 23.7008C215.902 23.2956 216.667 22.868 217.176 22.4178C217.608 22.1477 217.98 22.0127 218.294 22.0127C218.804 22.0127 219.216 22.2378 219.529 22.6879C219.843 23.0931 220 23.5657 220 24.1059C220 24.9162 219.667 25.6139 219 26.1991Z" fill="#3A3A3A"/>
</g>
<path id="Subtract" fill-rule="evenodd" clip-rule="evenodd" d="M56.6243 3.66712C54.9739 -0.589553 48.951 -0.589563 47.3006 3.66711L39.6853 23.3084C38.4147 26.5854 40.8325 30.1159 44.3471 30.1159H59.5778C63.0925 30.1159 65.5102 26.5854 64.2397 23.3084L56.6243 3.66712ZM51.9631 23.0309C54.5575 23.0309 56.6606 20.6218 56.6606 17.6501C56.6606 14.6784 54.5575 12.2693 51.9631 12.2693C49.3688 12.2693 47.2656 14.6784 47.2656 17.6501C47.2656 20.6218 49.3688 23.0309 51.9631 23.0309Z" fill="#00CDCD"/>
<ellipse id="Ellipse 58" cx="158.149" cy="24.2135" rx="3.91459" ry="4.48399" fill="#00CDCD"/>
</g>
</svg>
