<svg width="222" height="64" viewBox="0 0 222 64" fill="none" xmlns="http://www.w3.org/2000/svg">
<path d="M83.591 33.0064L83.5919 33.0056C85.7957 30.9854 86.8951 28.2997 86.8951 24.9592V10.1723C86.8951 9.28358 86.5898 8.552 85.9771 7.98642C85.3666 7.4229 84.615 7.14219 83.7287 7.14219C82.8408 7.14219 82.0886 7.44685 81.4789 8.05593C80.8684 8.62015 80.5623 9.32793 80.5623 10.1723V24.9592C80.5623 26.5235 80.0273 27.7906 78.9595 28.7695C77.9374 29.7027 76.5554 30.1743 74.8021 30.1743C73.0955 30.1743 71.7361 29.7034 70.7137 28.7702C69.6912 27.7918 69.1781 26.5245 69.1781 24.9592V10.1723C69.1781 9.28512 68.8737 8.5752 68.26 8.05439C67.6932 7.48915 66.9401 7.21033 66.0117 7.21033C65.0816 7.21033 64.3068 7.49008 63.6953 8.05444C63.1261 8.57629 62.8453 9.28634 62.8453 10.1723V24.9592C62.8453 28.2991 63.9215 30.9845 66.0797 33.0049L66.0813 33.0064C68.2841 34.9797 71.1944 35.962 74.8021 35.962C78.4548 35.962 81.388 34.9799 83.591 33.0064ZM109.514 33.0064L109.515 33.0056C111.719 30.9854 112.819 28.2997 112.819 24.9592V10.1723C112.819 9.28358 112.513 8.552 111.901 7.98642C111.29 7.4229 110.538 7.14219 109.652 7.14219C108.764 7.14219 108.012 7.44684 107.402 8.05589C106.792 8.62011 106.486 9.32791 106.486 10.1723V24.9592C106.486 26.5235 105.951 27.7906 104.883 28.7695C103.861 29.7027 102.479 30.1743 100.725 30.1743C99.0188 30.1743 97.6595 29.7034 96.637 28.7702C95.6146 27.7918 95.1015 26.5245 95.1015 24.9592V10.1723C95.1015 9.28512 94.7971 8.5752 94.1834 8.05439C93.6166 7.48915 92.8635 7.21033 91.9351 7.21033C91.005 7.21033 90.2302 7.49008 89.6187 8.05444C89.0495 8.57629 88.7687 9.28634 88.7687 10.1723V24.9592C88.7687 28.2991 89.8449 30.9845 92.003 33.0049L92.0047 33.0064C94.2075 34.9797 97.1178 35.962 100.725 35.962C104.378 35.962 107.311 34.9799 109.514 33.0064ZM135.438 33.0064L135.439 33.0056C137.642 30.9854 138.742 28.2997 138.742 24.9592V10.1723C138.742 9.28358 138.437 8.552 137.824 7.98642C137.213 7.4229 136.462 7.14219 135.576 7.14219C134.688 7.14219 133.935 7.44685 133.326 8.05593C132.715 8.62015 132.409 9.32793 132.409 10.1723V24.9592C132.409 26.5235 131.874 27.7906 130.806 28.7695C129.784 29.7027 128.402 30.1743 126.649 30.1743C124.942 30.1743 123.583 29.7034 122.56 28.7702C121.538 27.7918 121.025 26.5245 121.025 24.9592V10.1723C121.025 9.28511 120.72 8.57519 120.107 8.05438C119.54 7.48915 118.787 7.21033 117.858 7.21033C116.928 7.21033 116.154 7.49008 115.542 8.05444C114.973 8.57629 114.692 9.28634 114.692 10.1723V24.9592C114.692 28.2991 115.768 30.9845 117.926 33.0049L117.928 33.0064C120.131 34.9797 123.041 35.962 126.649 35.962C130.302 35.962 133.235 34.9799 135.438 33.0064Z" fill="black" stroke="black" stroke-width="0.2"/>
<path d="M144.666 15.3823H155.688H158.94C160.024 15.3823 160.897 15.0705 161.56 14.447C162.283 13.8235 162.644 13.0299 162.644 12.0663C162.644 11.1027 162.283 10.2807 161.56 9.60053C160.897 8.92032 160.054 8.58022 159.03 8.58022H155.688C154.135 8.58022 153.803 8.41407 153.803 7.84723V2.59802C153.803 1.57771 153.517 1.27932 152.771 0.532023C152.257 0.017498 151.854 0.0175019 150.722 0.0175128L150.706 0.0175129C149.562 0.0175129 148.848 -0.14711 148.125 0.533099C147.402 1.21331 146.925 1.63439 146.925 2.59802V7.72996C146.925 8.2968 146.624 8.58022 146.021 8.58022H144.666C143.582 8.58022 142.769 8.92032 142.227 9.60053C141.685 10.2241 141.414 11.046 141.414 12.0663C141.414 13.0299 141.685 13.8235 142.227 14.447C142.769 15.0705 143.582 15.3823 144.666 15.3823Z" fill="#FA6A00"/>
<path d="M172.248 33.2931L172.247 33.2933L172.258 33.2995C174.322 34.5032 176.619 35.1022 179.138 35.1022C181.658 35.1022 183.917 34.5033 185.903 33.2947L185.906 33.2931C187.918 32.0511 189.506 30.3992 190.663 28.3428L190.665 28.339C191.824 26.2361 192.4 23.9014 192.4 21.3454C192.4 18.7522 191.825 16.436 190.664 14.4114C189.547 12.3526 187.977 10.7389 185.959 9.57856C183.974 8.37142 181.695 7.77441 179.138 7.77441C176.581 7.77441 174.283 8.37187 172.258 9.57736C170.24 10.7369 168.631 12.3484 167.432 14.4031L167.432 14.4031L167.43 14.406C166.267 16.4319 165.691 18.7499 165.691 21.3454C165.691 23.8616 166.268 26.1754 167.426 28.277L167.426 28.277L167.43 28.2838C168.627 30.3783 170.234 32.0506 172.248 33.2931ZM183.903 26.9645L183.903 26.9645L183.898 26.9703C182.674 28.4234 181.102 29.1463 179.138 29.1463C177.131 29.1463 175.493 28.4208 174.186 26.9617C172.916 25.4975 172.267 23.6382 172.267 21.3454C172.267 19.0522 172.916 17.2167 174.182 15.7959C175.487 14.3767 177.127 13.6683 179.138 13.6683C181.107 13.6683 182.68 14.3744 183.902 15.7874L183.902 15.7875L183.907 15.7931C185.175 17.2143 185.824 19.0507 185.824 21.3454C185.824 23.6397 185.175 25.4998 183.903 26.9645ZM201.346 33.2931L201.346 33.2933L201.357 33.2995C203.42 34.5032 205.717 35.1022 208.237 35.1022C210.756 35.1022 213.016 34.5033 215.001 33.2947L215.004 33.2931C217.017 32.0511 218.605 30.3992 219.761 28.3428L219.763 28.339C220.922 26.2361 221.498 23.9014 221.498 21.3454C221.498 18.7523 220.924 16.4361 219.762 14.4115C218.646 12.3526 217.076 10.7389 215.058 9.57854C213.072 8.37142 210.793 7.77441 208.237 7.77441C205.679 7.77441 203.381 8.37187 201.356 9.57736C199.339 10.7369 197.729 12.3484 196.531 14.4031L196.529 14.406C195.365 16.4319 194.79 18.7499 194.79 21.3454C194.79 23.8616 195.366 26.1754 196.525 28.277L196.524 28.277L196.528 28.2838C197.725 30.3783 199.332 32.0506 201.346 33.2931ZM213.001 26.9645L213.001 26.9645L212.996 26.9703C211.772 28.4234 210.2 29.1463 208.237 29.1463C206.23 29.1463 204.591 28.4208 203.285 26.9618C202.014 25.4976 201.365 23.6383 201.365 21.3454C201.365 19.0522 202.014 17.2168 203.28 15.796C204.585 14.3768 206.225 13.6683 208.237 13.6683C210.205 13.6683 211.778 14.3744 213 15.7874L213 15.7875L213.005 15.7931C214.273 17.2143 214.923 19.0507 214.923 21.3454C214.923 23.6397 214.273 25.4998 213.001 26.9645Z" fill="#FA6A00" stroke="#FA6A00"/>
<path d="M150.706 20.6491C149.873 29.5741 153.362 31.4998 161.242 31.8983" stroke="#FA6A00" stroke-width="7" stroke-linecap="round"/>
<path d="M67.3628 59.1808C66.0523 59.1808 64.9923 58.805 64.1828 58.0534C64.0479 57.9185 63.9805 57.7643 63.9805 57.5909C63.9805 57.3981 64.0576 57.244 64.2117 57.1283C64.3659 57.0127 64.4912 56.9549 64.5876 56.9549C64.7417 56.9549 64.9345 57.0512 65.1657 57.244C65.4548 57.4945 65.7825 57.6872 66.1486 57.8221C66.5341 57.957 66.9677 58.0245 67.4495 58.0245C68.1241 58.0245 68.6252 57.8992 68.9528 57.6487C69.2997 57.3981 69.4732 57.0609 69.4732 56.6369C69.4732 56.1936 69.2901 55.8756 68.9239 55.6829C68.5577 55.4709 68.0374 55.3263 67.3628 55.2492C66.9966 55.2107 66.5534 55.1432 66.033 55.0469C65.5319 54.9505 65.0886 54.7578 64.7032 54.4687C64.3177 54.1603 64.125 53.6978 64.125 53.0811C64.125 52.2909 64.4141 51.6645 64.9923 51.202C65.5705 50.7395 66.3799 50.5082 67.4206 50.5082C68.0181 50.5082 68.577 50.5853 69.0973 50.7395C69.6177 50.8744 69.9935 51.0478 70.2248 51.2598C70.379 51.3754 70.4561 51.5296 70.4561 51.7224C70.4561 51.8573 70.3982 52.0018 70.2826 52.156C70.167 52.2909 70.0321 52.3584 69.8779 52.3584C69.8008 52.3584 69.7237 52.3391 69.6466 52.3005C69.5695 52.262 69.4924 52.2234 69.4153 52.1849C69.0684 51.9922 68.7504 51.8573 68.4613 51.7802C68.1915 51.7031 67.8639 51.6645 67.4784 51.6645C66.8617 51.6645 66.3606 51.7802 65.9752 52.0114C65.609 52.2234 65.4259 52.5511 65.4259 52.9943C65.4259 53.3027 65.5512 53.534 65.8017 53.6882C66.0715 53.8231 66.5919 53.9387 67.3628 54.0351C67.6326 54.0736 67.9603 54.1314 68.3457 54.2085C68.7312 54.2856 69.107 54.4109 69.4732 54.5843C69.8393 54.7385 70.1477 54.9794 70.3982 55.3071C70.6488 55.6154 70.7741 56.0298 70.7741 56.5501C70.7741 57.3403 70.4753 57.9763 69.8779 58.4581C69.2804 58.9399 68.4421 59.1808 67.3628 59.1808Z" fill="black"/>
<path d="M76.7304 59.1808C75.8824 59.1808 75.1404 58.9881 74.5044 58.6027C73.8684 58.1979 73.377 57.668 73.0301 57.0127C72.6832 56.3381 72.5097 55.5961 72.5097 54.7867C72.5097 53.958 72.6928 53.2256 73.059 52.5896C73.4444 51.9344 73.9552 51.4236 74.5912 51.0575C75.2272 50.6913 75.9402 50.5082 76.7304 50.5082C77.906 50.5082 78.8504 50.7684 79.5635 51.2887C79.7369 51.4044 79.8237 51.5778 79.8237 51.8091C79.8237 52.1945 79.6309 52.3873 79.2455 52.3873C79.2069 52.3873 79.1588 52.3873 79.1009 52.3873C79.0431 52.368 78.9853 52.3487 78.9275 52.3294C78.677 52.1753 78.3686 52.0211 78.0024 51.8669C77.6555 51.7127 77.2604 51.6356 76.8171 51.6356C75.9306 51.6356 75.2079 51.944 74.649 52.5607C74.0901 53.1582 73.8106 53.9098 73.8106 54.8156C73.8106 55.7021 74.0708 56.4345 74.5912 57.0127C75.1308 57.5716 75.815 57.8992 76.6437 57.9956C77.1641 58.0149 77.6651 57.9185 78.147 57.7065C78.648 57.4945 79.0624 57.2343 79.39 56.926C79.5057 56.8296 79.6309 56.7814 79.7659 56.7814C79.92 56.7814 80.0453 56.8489 80.1417 56.9838C80.2573 57.0994 80.3151 57.2343 80.3151 57.3885C80.3151 57.5427 80.2284 57.7258 80.0549 57.9378C79.6309 58.3232 79.1491 58.6316 78.6095 58.8629C78.0699 59.0749 77.4435 59.1808 76.7304 59.1808Z" fill="black"/>
<path d="M83.6453 54.8156V58.5159C83.6453 58.7087 83.5875 58.8629 83.4718 58.9785C83.3562 59.1134 83.202 59.1808 83.0093 59.1808C82.8166 59.1808 82.6528 59.1134 82.5178 58.9785C82.4022 58.8629 82.3444 58.7087 82.3444 58.5159V51.2887C82.3444 51.0767 82.4118 50.9225 82.5468 50.8262C82.6817 50.7105 82.8358 50.6527 83.0093 50.6527C83.1635 50.6527 83.308 50.7105 83.4429 50.8262C83.5778 50.9225 83.6453 51.0767 83.6453 51.2887V51.9825C83.8766 51.5007 84.262 51.1345 84.8016 50.884C85.3413 50.6335 85.852 50.5082 86.3338 50.5082C86.6229 50.5082 86.912 50.5564 87.2011 50.6527C87.3938 50.7105 87.5287 50.8165 87.6058 50.9707C87.7022 51.1249 87.7214 51.2984 87.6636 51.4911C87.5287 51.8765 87.2685 52.0307 86.8831 51.9536C86.5362 51.8573 86.2471 51.8091 86.0158 51.8091C85.2642 51.8091 84.6764 52.0982 84.2524 52.6763C83.8477 53.2353 83.6453 53.9483 83.6453 54.8156Z" fill="black"/>
<path d="M92.823 59.1808C92.0135 59.1808 91.2908 58.9881 90.6548 58.6027C90.0188 58.2172 89.5081 57.6969 89.1226 57.0416C88.7564 56.3671 88.5734 55.6154 88.5734 54.7867C88.5734 53.958 88.7564 53.2256 89.1226 52.5896C89.5081 51.9536 90.0188 51.4525 90.6548 51.0864C91.2908 50.7009 92.0135 50.5082 92.823 50.5082C93.6324 50.5082 94.3551 50.7009 94.9911 51.0864C95.6464 51.4525 96.1571 51.9536 96.5233 52.5896C96.9088 53.2256 97.1015 53.958 97.1015 54.7867C97.1015 55.6154 96.9088 56.3671 96.5233 57.0416C96.1571 57.6969 95.6464 58.2172 94.9911 58.6027C94.3551 58.9881 93.6324 59.1808 92.823 59.1808ZM92.823 57.9956C93.7288 57.9956 94.4515 57.6872 94.9911 57.0705C95.5308 56.4538 95.8006 55.6925 95.8006 54.7867C95.8006 53.9194 95.5308 53.1871 94.9911 52.5896C94.4515 51.9922 93.7288 51.6934 92.823 51.6934C91.9364 51.6934 91.2233 51.9922 90.6837 52.5896C90.1633 53.1871 89.9032 53.9194 89.9032 54.7867C89.9032 55.6925 90.1633 56.4538 90.6837 57.0705C91.2233 57.6872 91.9364 57.9956 92.823 57.9956Z" fill="black"/>
<path d="M99.9481 59.1808C99.7554 59.1808 99.5916 59.1134 99.4566 58.9785C99.341 58.8629 99.2832 58.7087 99.2832 58.5159V47.0969C99.2832 46.8849 99.3507 46.7308 99.4856 46.6344C99.6205 46.5188 99.7746 46.4609 99.9481 46.4609C100.102 46.4609 100.247 46.5188 100.382 46.6344C100.517 46.7308 100.584 46.8849 100.584 47.0969V58.5159C100.584 58.7087 100.526 58.8629 100.411 58.9785C100.295 59.1134 100.141 59.1808 99.9481 59.1808Z" fill="black"/>
<path d="M103.844 59.1808C103.651 59.1808 103.487 59.1134 103.353 58.9785C103.237 58.8629 103.179 58.7087 103.179 58.5159V47.0969C103.179 46.8849 103.247 46.7308 103.381 46.6344C103.516 46.5188 103.671 46.4609 103.844 46.4609C103.998 46.4609 104.143 46.5188 104.278 46.6344C104.413 46.7308 104.48 46.8849 104.48 47.0969V58.5159C104.48 58.7087 104.422 58.8629 104.307 58.9785C104.191 59.1134 104.037 59.1808 103.844 59.1808Z" fill="black"/>
<path d="M125.179 59.1808C123.869 59.1808 122.809 58.805 121.999 58.0534C121.864 57.9185 121.797 57.7643 121.797 57.5909C121.797 57.3981 121.874 57.244 122.028 57.1283C122.182 57.0127 122.308 56.9549 122.404 56.9549C122.558 56.9549 122.751 57.0512 122.982 57.244C123.271 57.4945 123.599 57.6872 123.965 57.8221C124.35 57.957 124.784 58.0245 125.266 58.0245C125.94 58.0245 126.442 57.8992 126.769 57.6487C127.116 57.3981 127.29 57.0609 127.29 56.6369C127.29 56.1936 127.106 55.8756 126.74 55.6829C126.374 55.4709 125.854 55.3263 125.179 55.2492C124.813 55.2107 124.37 55.1432 123.849 55.0469C123.348 54.9505 122.905 54.7578 122.52 54.4687C122.134 54.1603 121.941 53.6978 121.941 53.0811C121.941 52.2909 122.231 51.6645 122.809 51.202C123.387 50.7395 124.196 50.5082 125.237 50.5082C125.834 50.5082 126.393 50.5853 126.914 50.7395C127.434 50.8744 127.81 51.0478 128.041 51.2598C128.195 51.3754 128.272 51.5296 128.272 51.7224C128.272 51.8573 128.215 52.0018 128.099 52.156C127.983 52.2909 127.848 52.3584 127.694 52.3584C127.617 52.3584 127.54 52.3391 127.463 52.3005C127.386 52.262 127.309 52.2234 127.232 52.1849C126.885 51.9922 126.567 51.8573 126.278 51.7802C126.008 51.7031 125.68 51.6645 125.295 51.6645C124.678 51.6645 124.177 51.7802 123.792 52.0114C123.425 52.2234 123.242 52.5511 123.242 52.9943C123.242 53.3027 123.368 53.534 123.618 53.6882C123.888 53.8231 124.408 53.9387 125.179 54.0351C125.449 54.0736 125.777 54.1314 126.162 54.2085C126.548 54.2856 126.923 54.4109 127.29 54.5843C127.656 54.7385 127.964 54.9794 128.215 55.3071C128.465 55.6154 128.59 56.0298 128.59 56.5501C128.59 57.3403 128.292 57.9763 127.694 58.4581C127.097 58.9399 126.258 59.1808 125.179 59.1808Z" fill="black"/>
<path d="M131.425 59.1808C131.232 59.1808 131.068 59.1134 130.933 58.9785C130.818 58.8629 130.76 58.7087 130.76 58.5159V47.0969C130.76 46.8849 130.827 46.7308 130.962 46.6344C131.097 46.5188 131.251 46.4609 131.425 46.4609C131.579 46.4609 131.723 46.5188 131.858 46.6344C131.993 46.7308 132.061 46.8849 132.061 47.0969V51.9247C132.889 50.9804 133.911 50.5082 135.125 50.5082C136.108 50.5082 136.927 50.8358 137.582 51.4911C138.238 52.1271 138.565 53.1196 138.565 54.4687V58.5159C138.565 58.7087 138.507 58.8629 138.392 58.9785C138.276 59.1134 138.122 59.1808 137.929 59.1808C137.736 59.1808 137.573 59.1134 137.438 58.9785C137.322 58.8629 137.264 58.7087 137.264 58.5159V54.6422C137.264 53.6785 137.062 52.9654 136.657 52.5029C136.252 52.0404 135.684 51.8091 134.952 51.8091C134.277 51.8091 133.718 51.9633 133.275 52.2716C132.851 52.58 132.542 52.9654 132.35 53.428C132.157 53.8905 132.061 54.3531 132.061 54.8156V58.5159C132.061 58.7087 132.003 58.8629 131.887 58.9785C131.772 59.1134 131.617 59.1808 131.425 59.1808Z" fill="black"/>
<path d="M144.707 59.1808C143.512 59.1808 142.53 58.7761 141.759 57.9667C140.988 57.138 140.602 56.078 140.602 54.7867C140.602 53.534 140.988 52.5125 141.759 51.7224C142.53 50.9129 143.512 50.5082 144.707 50.5082C145.941 50.5082 146.933 50.9418 147.685 51.8091V51.2887C147.685 51.0767 147.752 50.9225 147.887 50.8262C148.022 50.7105 148.167 50.6527 148.321 50.6527C148.494 50.6527 148.649 50.7105 148.784 50.8262C148.918 50.9225 148.986 51.0767 148.986 51.2887V58.5159C148.986 58.7087 148.918 58.8629 148.784 58.9785C148.668 59.1134 148.514 59.1808 148.321 59.1808C148.128 59.1808 147.974 59.1134 147.858 58.9785C147.743 58.8629 147.685 58.7087 147.685 58.5159V57.8221C147.338 58.2461 146.904 58.5834 146.384 58.8339C145.883 59.0652 145.324 59.1808 144.707 59.1808ZM144.707 57.9956C145.613 57.9956 146.336 57.7258 146.876 57.1861C147.415 56.6465 147.685 55.8467 147.685 54.7867C147.685 53.7653 147.415 52.9943 146.876 52.474C146.336 51.9536 145.613 51.6934 144.707 51.6934C143.879 51.6934 143.204 51.9922 142.684 52.5896C142.183 53.1871 141.932 53.9194 141.932 54.7867C141.932 55.6925 142.183 56.4538 142.684 57.0705C143.204 57.6872 143.879 57.9956 144.707 57.9956Z" fill="black"/>
<path d="M152.754 54.8156V58.5159C152.754 58.7087 152.696 58.8629 152.581 58.9785C152.465 59.1134 152.311 59.1808 152.118 59.1808C151.926 59.1808 151.762 59.1134 151.627 58.9785C151.511 58.8629 151.453 58.7087 151.453 58.5159V51.2887C151.453 51.0767 151.521 50.9225 151.656 50.8262C151.791 50.7105 151.945 50.6527 152.118 50.6527C152.272 50.6527 152.417 50.7105 152.552 50.8262C152.687 50.9225 152.754 51.0767 152.754 51.2887V51.9825C152.986 51.5007 153.371 51.1345 153.911 50.884C154.45 50.6335 154.961 50.5082 155.443 50.5082C155.732 50.5082 156.021 50.5564 156.31 50.6527C156.503 50.7105 156.638 50.8165 156.715 50.9707C156.811 51.1249 156.83 51.2984 156.773 51.4911C156.638 51.8765 156.377 52.0307 155.992 51.9536C155.645 51.8573 155.356 51.8091 155.125 51.8091C154.373 51.8091 153.785 52.0982 153.361 52.6763C152.957 53.2353 152.754 53.9483 152.754 54.8156Z" fill="black"/>
<path d="M162.134 59.1808C160.785 59.1808 159.706 58.7858 158.896 57.9956C158.087 57.1861 157.682 56.078 157.682 54.6711C157.682 53.9002 157.856 53.2063 158.203 52.5896C158.55 51.9536 159.031 51.4525 159.648 51.0864C160.284 50.7009 161.026 50.5082 161.874 50.5082C162.761 50.5082 163.493 50.7009 164.071 51.0864C164.649 51.4525 165.073 51.9151 165.343 52.474C165.632 53.0136 165.777 53.5533 165.777 54.0929C165.777 54.4205 165.7 54.6903 165.546 54.9023C165.411 55.1143 165.208 55.2203 164.938 55.2203H159.388C159.272 55.2203 159.186 55.23 159.128 55.2492C159.089 55.2685 159.07 55.336 159.07 55.4516C159.07 55.7792 159.176 56.1358 159.388 56.5212C159.6 56.9067 159.899 57.244 160.284 57.533C160.689 57.8029 161.151 57.957 161.672 57.9956C162.231 58.0341 162.78 57.9763 163.32 57.8221C163.859 57.6679 164.341 57.427 164.765 57.0994C164.861 57.0223 164.967 56.9838 165.083 56.9838C165.218 56.9838 165.343 57.0416 165.459 57.1572C165.594 57.2729 165.661 57.4174 165.661 57.5909C165.661 57.7643 165.574 57.9378 165.401 58.1112C164.938 58.4774 164.418 58.7472 163.84 58.9207C163.262 59.0941 162.693 59.1808 162.134 59.1808ZM163.956 54.2085C164.11 54.2085 164.225 54.1507 164.302 54.0351C164.38 53.9002 164.399 53.7363 164.36 53.5436C164.302 53.0425 164.042 52.5993 163.58 52.2138C163.117 51.8091 162.549 51.6067 161.874 51.6067C161.373 51.6067 160.91 51.732 160.486 51.9825C160.082 52.2138 159.754 52.5125 159.504 52.8787C159.253 53.2449 159.128 53.6303 159.128 54.0351C159.128 54.1314 159.214 54.1796 159.388 54.1796L163.956 54.2085Z" fill="black"/>
<path d="M186.128 59.2625C184.779 59.2625 183.699 58.8674 182.89 58.0772C182.081 57.2678 181.676 56.1596 181.676 54.7527C181.676 53.9818 181.849 53.288 182.196 52.6713C182.543 52.0353 183.025 51.5342 183.642 51.168C184.278 50.7826 185.02 50.5898 185.868 50.5898C186.754 50.5898 187.486 50.7826 188.065 51.168C188.643 51.5342 189.067 51.9967 189.337 52.5556C189.626 53.0953 189.77 53.6349 189.77 54.1745C189.77 54.5022 189.693 54.772 189.539 54.984C189.404 55.196 189.202 55.302 188.932 55.302H183.381C183.266 55.302 183.179 55.3116 183.121 55.3309C183.083 55.3502 183.063 55.4176 183.063 55.5333C183.063 55.8609 183.169 56.2174 183.381 56.6029C183.593 56.9883 183.892 57.3256 184.278 57.6147C184.682 57.8845 185.145 58.0387 185.665 58.0772C186.224 58.1158 186.773 58.058 187.313 57.9038C187.853 57.7496 188.334 57.5087 188.758 57.1811C188.855 57.104 188.961 57.0654 189.076 57.0654C189.211 57.0654 189.337 57.1233 189.452 57.2389C189.587 57.3545 189.655 57.4991 189.655 57.6725C189.655 57.846 189.568 58.0194 189.394 58.1929C188.932 58.5591 188.412 58.8289 187.833 59.0023C187.255 59.1758 186.687 59.2625 186.128 59.2625ZM187.949 54.2902C188.103 54.2902 188.219 54.2324 188.296 54.1167C188.373 53.9818 188.392 53.818 188.354 53.6253C188.296 53.1242 188.036 52.6809 187.573 52.2955C187.111 51.8907 186.542 51.6884 185.868 51.6884C185.366 51.6884 184.904 51.8137 184.48 52.0642C184.075 52.2955 183.748 52.5942 183.497 52.9604C183.246 53.3266 183.121 53.712 183.121 54.1167C183.121 54.2131 183.208 54.2613 183.381 54.2613L187.949 54.2902Z" fill="black"/>
<path d="M195.888 59.2625C194.693 59.2625 193.71 58.8578 192.939 58.0483C192.168 57.2196 191.783 56.1596 191.783 54.8684C191.783 53.6156 192.168 52.5942 192.939 51.804C193.71 50.9946 194.693 50.5898 195.888 50.5898C197.121 50.5898 198.114 51.0235 198.865 51.8907V51.3704C198.865 51.1584 198.933 51.0042 199.068 50.9078C199.203 50.7922 199.347 50.7344 199.501 50.7344C199.675 50.7344 199.829 50.7922 199.964 50.9078C200.099 51.0042 200.166 51.1584 200.166 51.3704V58.5976C200.166 58.7903 200.099 58.9445 199.964 59.0601C199.848 59.1951 199.694 59.2625 199.501 59.2625C199.309 59.2625 199.154 59.1951 199.039 59.0601C198.923 58.9445 198.865 58.7903 198.865 58.5976V57.9038C198.518 58.3278 198.085 58.6651 197.564 58.9156C197.063 59.1469 196.504 59.2625 195.888 59.2625ZM195.888 58.0772C196.793 58.0772 197.516 57.8074 198.056 57.2678C198.595 56.7282 198.865 55.9284 198.865 54.8684C198.865 53.8469 198.595 53.076 198.056 52.5556C197.516 52.0353 196.793 51.7751 195.888 51.7751C195.059 51.7751 194.384 52.0738 193.864 52.6713C193.363 53.2687 193.112 54.0011 193.112 54.8684C193.112 55.7742 193.363 56.5354 193.864 57.1522C194.384 57.7689 195.059 58.0772 195.888 58.0772Z" fill="black"/>
<path d="M203.934 54.8973V58.5976C203.934 58.7903 203.877 58.9445 203.761 59.0601C203.645 59.1951 203.491 59.2625 203.299 59.2625C203.106 59.2625 202.942 59.1951 202.807 59.0601C202.691 58.9445 202.634 58.7903 202.634 58.5976V51.3704C202.634 51.1584 202.701 51.0042 202.836 50.9078C202.971 50.7922 203.125 50.7344 203.299 50.7344C203.453 50.7344 203.597 50.7922 203.732 50.9078C203.867 51.0042 203.934 51.1584 203.934 51.3704V52.0642C204.166 51.5824 204.551 51.2162 205.091 50.9657C205.63 50.7151 206.141 50.5898 206.623 50.5898C206.912 50.5898 207.201 50.638 207.49 50.7344C207.683 50.7922 207.818 50.8982 207.895 51.0524C207.991 51.2066 208.011 51.38 207.953 51.5727C207.818 51.9582 207.558 52.1124 207.172 52.0353C206.825 51.9389 206.536 51.8907 206.305 51.8907C205.553 51.8907 204.966 52.1798 204.542 52.758C204.137 53.3169 203.934 54.03 203.934 54.8973Z" fill="black"/>
<path d="M216.748 59.2625C216.555 59.2625 216.391 59.1951 216.256 59.0601C216.141 58.9445 216.083 58.7903 216.083 58.5976V54.666C216.083 53.7024 215.881 52.9893 215.476 52.5267C215.071 52.0642 214.503 51.8329 213.77 51.8329C213.096 51.8329 212.537 51.9967 212.094 52.3244C211.67 52.6327 211.361 53.0278 211.168 53.5096C210.976 53.9722 210.879 54.4347 210.879 54.8973V58.5976C210.879 58.7903 210.822 58.9445 210.706 59.0601C210.59 59.1951 210.436 59.2625 210.243 59.2625C210.051 59.2625 209.887 59.1951 209.752 59.0601C209.636 58.9445 209.579 58.7903 209.579 58.5976V51.3704C209.579 51.1584 209.646 51.0042 209.781 50.9078C209.916 50.7922 210.07 50.7344 210.243 50.7344C210.398 50.7344 210.542 50.7922 210.677 50.9078C210.812 51.0042 210.879 51.1584 210.879 51.3704V52.0064C211.265 51.5631 211.727 51.2162 212.267 50.9657C212.807 50.7151 213.366 50.5898 213.944 50.5898C214.927 50.5898 215.746 50.9175 216.401 51.5727C217.056 52.2087 217.384 53.2013 217.384 54.5504V58.5976C217.384 58.7903 217.326 58.9445 217.21 59.0601C217.095 59.1951 216.941 59.2625 216.748 59.2625Z" fill="black"/>
<circle cx="113.017" cy="53.1717" r="1.54869" fill="black"/>
<circle cx="172.904" cy="53.1717" r="1.54869" fill="black"/>
<path d="M19.1164 23.0657L19.1164 23.0657L19.1208 23.0623C21.1336 21.5248 22.1492 19.4599 22.1492 16.9127V6.24397C22.1492 5.45959 21.8163 4.80755 21.1871 4.32355C20.575 3.85267 19.8337 3.62988 18.9943 3.62988C18.1488 3.62988 17.4046 3.87272 16.7938 4.3787C16.1775 4.85578 15.8394 5.48598 15.8394 6.24397V16.9127C15.8394 17.8974 15.4454 18.6869 14.6207 19.3172C13.829 19.9195 12.728 20.2476 11.2656 20.2476C9.84861 20.2476 8.76725 19.9223 7.97398 19.3206C7.19018 18.694 6.8098 17.9043 6.8098 16.9127V6.24397C6.8098 5.46448 6.48009 4.8251 5.84738 4.37206C5.26503 3.89392 4.51735 3.67905 3.6549 3.67905C2.78314 3.67905 2.02022 3.89829 1.40379 4.3722C0.801578 4.83252 0.5 5.47449 0.5 6.24397V16.9127C0.5 19.4558 1.49242 21.5201 3.46535 23.0592L3.46528 23.0593L3.47379 23.0657C5.47202 24.5574 8.08484 25.2791 11.2656 25.2791C14.4841 25.2791 17.1172 24.5581 19.1164 23.0657Z" fill="#FA6A00" stroke="#FA6A00"/>
<path d="M33.9618 23.3795L33.9723 23.3859L33.9829 23.3919C35.577 24.2999 37.3467 24.7474 39.2695 24.7474C41.1917 24.7474 42.939 24.3 44.4825 23.3826L44.4825 23.3826L44.4876 23.3795C46.0338 22.448 47.2599 21.2035 48.1519 19.6551L48.1519 19.6551L48.1562 19.6474C49.0526 18.059 49.4944 16.2991 49.4944 14.3896C49.4944 12.4593 49.0562 10.7097 48.1537 9.17091C47.2893 7.61732 46.0716 6.3963 44.5164 5.52143C42.973 4.60686 41.2137 4.16309 39.2695 4.16309C37.3231 4.16309 35.5514 4.60774 33.9818 5.51914C32.4274 6.3926 31.1837 7.60927 30.2608 9.1542L30.2608 9.15418L30.2573 9.15997C29.3505 10.7015 28.9102 12.4547 28.9102 14.3896C28.9102 16.2731 29.3535 18.0179 30.2483 19.6037L30.2522 19.6105L30.2562 19.6173C31.1756 21.1885 32.4139 22.4469 33.9618 23.3795ZM42.2391 17.9229L42.234 17.9286L42.229 17.9344C41.4724 18.8118 40.5148 19.2492 39.2695 19.2492C37.9895 19.2492 36.9783 18.8071 36.1606 17.9174C35.3643 17.0193 34.9405 15.8692 34.9405 14.3896C34.9405 12.9096 35.3643 11.7802 36.1516 10.9154C36.9668 10.0518 37.9806 9.61758 39.2695 9.61758C40.5242 9.61758 41.4841 10.0476 42.2377 10.8985L42.2428 10.9043L42.248 10.9099C43.0385 11.7755 43.4641 12.9065 43.4641 14.3896C43.4641 15.8722 43.0386 17.024 42.2391 17.9229Z" fill="#FA6A00" stroke="#FA6A00" stroke-width="2"/>
<path d="M4.09766 35.1035H12.7623M19.8978 35.1035H12.7623M12.7623 35.1035C5.6267 67.2508 43.8474 70.2072 39.7754 35.1035" stroke="#FA6A00" stroke-width="6" stroke-linecap="round"/>
</svg>
