<svg width="220" height="49" viewBox="0 0 220 49" fill="none" xmlns="http://www.w3.org/2000/svg">
<path fill-rule="evenodd" clip-rule="evenodd" d="M56.8398 0H10C4.47715 0 0 4.47716 0 10V38.8146C0 44.3374 4.47716 48.8146 10 48.8146H210C215.523 48.8146 220 44.3374 220 38.8146V10C220 4.47715 215.523 0 210 0H69.545V3.34375H207.987C212.406 3.34375 215.987 6.92547 215.987 11.3438V38.1401C215.987 42.5584 212.406 46.1401 207.987 46.1401H12.0117C7.59344 46.1401 4.01172 42.5584 4.01172 38.1401V11.3437C4.01172 6.92547 7.59344 3.34375 12.0117 3.34375H56.8398V0Z" fill="#404040"/>
<rect x="58.8438" width="8.69301" height="3.34347" fill="#DD0000"/>
<path d="M53.8976 7.03063L39.2575 31.1873H26.6753L12.0352 7.03063H22.736L32.9664 25.2686L43.2556 7.03063H53.8976Z" fill="#404040"/>
<path d="M68.1537 7.03063V31.1873H58.0997V7.03063H68.1537Z" fill="#404040"/>
<path d="M99.3696 31.1873L85.4939 20.5198V31.1873H75.4398V7.03063H85.4939V17.6293L99.252 7.03063H111.07L95.0775 18.8681L111.658 31.1873H99.3696Z" fill="#404040"/>
<path d="M153.36 31.1873H143.306L126.49 16.2872V31.1873H116.436V7.03063H126.49L143.306 21.9995V7.03063H153.36V31.1873Z" fill="#404040"/>
<path d="M180.168 31.4282C176.287 31.4282 172.72 30.9005 169.467 29.8453C166.253 28.79 163.685 27.3218 161.765 25.4406C159.883 23.5365 158.942 21.403 158.942 19.0401C158.942 16.6772 159.883 14.5552 161.765 12.6741C163.685 10.7929 166.253 9.32471 169.467 8.26944C172.72 7.21416 176.287 6.68652 180.168 6.68652C184.048 6.68652 187.596 7.21416 190.81 8.26944C194.063 9.32471 196.611 10.7929 198.453 12.6741C200.335 14.5552 201.275 16.6772 201.275 19.0401C201.275 21.403 200.335 23.5365 198.453 25.4406C196.572 27.3218 194.024 28.79 190.81 29.8453C187.596 30.9005 184.048 31.4282 180.168 31.4282ZM180.168 26.06C183.46 26.06 186.086 25.4177 188.046 24.133C190.045 22.8483 191.045 21.1507 191.045 19.0401C191.045 16.9066 190.045 15.209 188.046 13.9473C186.086 12.6626 183.46 12.0203 180.168 12.0203C176.836 12.0203 174.171 12.6511 172.171 13.9129C170.212 15.1746 169.232 16.8837 169.232 19.0401C169.232 21.1736 170.212 22.8827 172.171 24.1674C174.171 25.4291 176.836 26.06 180.168 26.06Z" fill="#404040"/>
<path d="M27.9355 42.1281C26.8359 42.1281 25.8506 42.0428 24.9795 41.8723C24.1084 41.7018 23.4087 41.4495 22.8804 41.1153C22.3663 40.7811 22.095 40.3787 22.0664 39.9081H25.9648C26.022 40.1741 26.2147 40.3787 26.5432 40.5219C26.8716 40.6583 27.3 40.7265 27.8284 40.7265C28.371 40.7265 28.7994 40.6686 29.1136 40.5526C29.4277 40.4298 29.5848 40.2627 29.5848 40.0513C29.5848 39.874 29.4563 39.7274 29.1993 39.6114C28.9565 39.4955 28.6495 39.4 28.2782 39.325C27.9212 39.2499 27.4071 39.1647 26.736 39.0692C25.7649 38.926 24.9724 38.7828 24.3583 38.6395C23.7443 38.4963 23.2159 38.2849 22.7733 38.0053C22.3306 37.7256 22.1092 37.3607 22.1092 36.9106C22.1092 36.2422 22.6162 35.7205 23.6301 35.3454C24.6439 34.9634 25.9648 34.7725 27.5928 34.7725C29.2492 34.7725 30.5844 34.9634 31.5983 35.3454C32.6122 35.7205 33.1548 36.2456 33.2262 36.9208H29.2635C29.235 36.6889 29.0565 36.5082 28.728 36.3786C28.3996 36.2422 27.9783 36.174 27.4642 36.174C27.0216 36.174 26.6646 36.232 26.3932 36.3479C26.1219 36.4571 25.9863 36.6173 25.9863 36.8288C25.9863 37.0606 26.2147 37.2414 26.6717 37.371C27.1287 37.5006 27.8427 37.6404 28.8137 37.7904C29.7847 37.9473 30.5701 38.0973 31.1699 38.2406C31.7839 38.3838 32.3123 38.5918 32.755 38.8646C33.1977 39.1374 33.419 39.4887 33.419 39.9183C33.419 40.3275 33.1977 40.6992 32.755 41.0334C32.3266 41.3676 31.6983 41.6336 30.87 41.8314C30.0418 42.0292 29.0636 42.1281 27.9355 42.1281Z" fill="#404040"/>
<path d="M65.9181 34.8748L60.7131 39.683V42.0565H57.0502V39.683L51.8452 34.8748H56.0007L58.9138 37.8825L61.8055 34.8748H65.9181Z" fill="#404040"/>
<path d="M90.1848 42.1281C89.0852 42.1281 88.0999 42.0428 87.2288 41.8723C86.3577 41.7018 85.658 41.4495 85.1297 41.1153C84.6156 40.7811 84.3443 40.3787 84.3157 39.9081H88.2141C88.2713 40.1741 88.464 40.3787 88.7925 40.5219C89.1209 40.6583 89.5493 40.7265 90.0777 40.7265C90.6203 40.7265 91.0487 40.6686 91.3629 40.5526C91.677 40.4298 91.8341 40.2627 91.8341 40.0513C91.8341 39.874 91.7056 39.7274 91.4486 39.6114C91.2058 39.4955 90.8988 39.4 90.5275 39.325C90.1705 39.2499 89.6564 39.1647 88.9853 39.0692C88.0142 38.926 87.2217 38.7828 86.6076 38.6395C85.9936 38.4963 85.4652 38.2849 85.0226 38.0053C84.5799 37.7256 84.3585 37.3607 84.3585 36.9106C84.3585 36.2422 84.8655 35.7205 85.8794 35.3454C86.8932 34.9634 88.2141 34.7725 89.8421 34.7725C91.4985 34.7725 92.8337 34.9634 93.8476 35.3454C94.8615 35.7205 95.4041 36.2456 95.4755 36.9208H91.5128C91.4843 36.6889 91.3058 36.5082 90.9773 36.3786C90.6489 36.2422 90.2276 36.174 89.7135 36.174C89.2709 36.174 88.9139 36.232 88.6425 36.3479C88.3712 36.4571 88.2356 36.6173 88.2356 36.8288C88.2356 37.0606 88.464 37.2414 88.921 37.371C89.378 37.5006 90.092 37.6404 91.063 37.7904C92.034 37.9473 92.8194 38.0973 93.4192 38.2406C94.0332 38.3838 94.5616 38.5918 95.0043 38.8646C95.447 39.1374 95.6683 39.4887 95.6683 39.9183C95.6683 40.3275 95.447 40.6992 95.0043 41.0334C94.5759 41.3676 93.9476 41.6336 93.1193 41.8314C92.2911 42.0292 91.3129 42.1281 90.1848 42.1281Z" fill="#404040"/>
<path d="M126.09 34.8748V36.2763H122.106V42.0565H118.443V36.2763H114.459V34.8748H126.09Z" fill="#404040"/>
<path d="M148.941 36.2763V37.729H153.846V39.0794H148.941V40.6549H154.489V42.0565H145.278V34.8748H154.489V36.2763H148.941Z" fill="#404040"/>
<path d="M191.246 34.8748V42.0565H187.583V37.7495L184.22 42.0565H181.264L177.88 37.7393V42.0565H174.217V34.8748H178.544L182.763 39.8467L186.94 34.8748H191.246Z" fill="#404040"/>
</svg>
