<svg width="31" height="20" viewBox="0 0 31 20" fill="none" xmlns="http://www.w3.org/2000/svg">
<path d="M10.296 9.32091C11.3187 9.52194 12.1593 10.0611 12.818 10.9384C13.4767 11.8156 13.806 12.8208 13.806 13.9539C13.806 14.9774 13.5633 15.8821 13.078 16.668C12.61 17.4356 11.9253 18.0387 11.024 18.4773C10.1227 18.916 9.05667 19.1353 7.826 19.1353H0V0H7.488C8.71867 0 9.776 0.210177 10.66 0.630532C11.5613 1.05089 12.2373 1.63573 12.688 2.38506C13.156 3.13438 13.39 3.98423 13.39 4.9346C13.39 6.04945 13.104 6.98154 12.532 7.73087C11.9773 8.4802 11.232 9.01021 10.296 9.32091ZM3.64 7.89535H6.968C7.83467 7.89535 8.502 7.69432 8.97 7.29224C9.438 6.87188 9.672 6.2779 9.672 5.5103C9.672 4.7427 9.438 4.14872 8.97 3.72836C8.502 3.30801 7.83467 3.09783 6.968 3.09783H3.64V7.89535ZM7.306 16.01C8.19 16.01 8.87467 15.7907 9.36 15.3521C9.86267 14.9134 10.114 14.2921 10.114 13.4879C10.114 12.6655 9.854 12.0258 9.334 11.5689C8.814 11.0937 8.112 10.8561 7.228 10.8561H3.64V16.01H7.306Z" fill="#283340"/>
<path d="M30.097 11.2125C30.097 11.7608 30.0624 12.2542 29.993 12.6929H19.463C19.5497 13.7895 19.9137 14.6484 20.555 15.2698C21.1964 15.8912 21.985 16.2019 22.921 16.2019C24.273 16.2019 25.235 15.5897 25.807 14.3652H29.733C29.317 15.8273 28.5197 17.0335 27.341 17.9839C26.1624 18.916 24.715 19.382 22.999 19.382C21.6124 19.382 20.3644 19.0622 19.255 18.4225C18.163 17.7645 17.305 16.8416 16.681 15.6536C16.0744 14.4657 15.771 13.095 15.771 11.5415C15.771 9.96971 16.0744 8.58985 16.681 7.40189C17.2877 6.21394 18.137 5.30012 19.229 4.66045C20.321 4.02078 21.5777 3.70095 22.999 3.70095C24.3684 3.70095 25.5904 4.01164 26.665 4.63304C27.757 5.25443 28.5977 6.14083 29.187 7.29224C29.7937 8.42537 30.097 9.73212 30.097 11.2125ZM26.327 10.1159C26.3097 9.129 25.9717 8.34312 25.313 7.75828C24.6544 7.15517 23.8484 6.85361 22.895 6.85361C21.9937 6.85361 21.231 7.14603 20.607 7.73087C20.0004 8.29743 19.6277 9.09245 19.489 10.1159H26.327Z" fill="#283340"/>
<rect x="18.3008" y="0.148438" width="9" height="2.5" fill="#283340"/>
</svg>
