<svg width="24" height="25" viewBox="0 0 24 25" fill="none" xmlns="http://www.w3.org/2000/svg">
<path d="M22.68 0H1.32C0.969914 0 0.634167 0.144866 0.386619 0.402728C0.139071 0.660591 0 1.01033 0 1.375V23.625C0 23.8056 0.0341429 23.9844 0.100479 24.1512C0.166815 24.318 0.264046 24.4696 0.386619 24.5973C0.509193 24.725 0.654708 24.8262 0.814858 24.8953C0.975008 24.9644 1.14666 25 1.32 25H12.816V15.3125H9.696V11.5625H12.816V8.75C12.7514 8.0897 12.8262 7.42266 13.0353 6.79567C13.2443 6.16868 13.5825 5.59693 14.0262 5.12051C14.4698 4.6441 15.0081 4.27455 15.6034 4.0378C16.1987 3.80104 16.8364 3.70281 17.472 3.75C18.406 3.74401 19.3395 3.7941 20.268 3.9V7.275H18.36C16.848 7.275 16.56 8.025 16.56 9.1125V11.525H20.16L19.692 15.275H16.56V25H22.68C22.8533 25 23.025 24.9644 23.1851 24.8953C23.3453 24.8262 23.4908 24.725 23.6134 24.5973C23.736 24.4696 23.8332 24.318 23.8995 24.1512C23.9659 23.9844 24 23.8056 24 23.625V1.375C24 1.19443 23.9659 1.01563 23.8995 0.84881C23.8332 0.681988 23.736 0.530409 23.6134 0.402728C23.4908 0.275048 23.3453 0.173766 23.1851 0.104666C23.025 0.0355655 22.8533 0 22.68 0Z" fill="#283340"/>
</svg>
