<svg width="24" height="25" viewBox="0 0 24 25" fill="none" xmlns="http://www.w3.org/2000/svg">
<path d="M16.9998 2.08315C18.3248 2.08727 19.5943 2.63737 20.5312 3.61329C21.4681 4.58922 21.9962 5.91169 22.0002 7.29185V17.7081C21.9962 19.0883 21.4681 20.4108 20.5312 21.3867C19.5943 22.3626 18.3248 22.9127 16.9998 22.9169H7.00018C5.67522 22.9127 4.40566 22.3626 3.46876 21.3867C2.53187 20.4108 2.00378 19.0883 1.99982 17.7081V7.29185C2.00378 5.91169 2.53187 4.58922 3.46876 3.61329C4.40566 2.63737 5.67522 2.08727 7.00018 2.08315H16.9998ZM16.9998 0H7.00018C3.15 0 0 3.28125 0 7.29185V17.7081C0 21.7188 3.15 25 7.00018 25H16.9998C20.85 25 24 21.7188 24 17.7081V7.29185C24 3.28125 20.85 0 16.9998 0Z" fill="#283340"/>
<path d="M18.4998 7.29185C18.2031 7.29185 17.9131 7.20022 17.6665 7.02853C17.4198 6.85684 17.2275 6.61281 17.114 6.3273C17.0005 6.04179 16.9708 5.72762 17.0286 5.42452C17.0865 5.12143 17.2294 4.84302 17.4391 4.6245C17.6489 4.40598 17.9162 4.25716 18.2072 4.19688C18.4981 4.13659 18.7997 4.16753 19.0738 4.28579C19.3479 4.40405 19.5822 4.60432 19.747 4.86127C19.9118 5.11823 19.9998 5.42032 19.9998 5.72935C20.0002 5.93467 19.9617 6.13805 19.8865 6.32782C19.8113 6.51759 19.7008 6.69001 19.5614 6.83519C19.422 6.98037 19.2565 7.09545 19.0743 7.17381C18.8921 7.25218 18.6969 7.2923 18.4998 7.29185ZM12 8.33315C12.7912 8.33315 13.5645 8.57753 14.2224 9.03539C14.8802 9.49325 15.3929 10.144 15.6957 10.9054C15.9984 11.6668 16.0777 12.5046 15.9233 13.3129C15.769 14.1212 15.388 14.8637 14.8285 15.4464C14.2691 16.0292 13.5563 16.426 12.7804 16.5868C12.0044 16.7476 11.2001 16.6651 10.4692 16.3497C9.73826 16.0343 9.11351 15.5002 8.67397 14.815C8.23443 14.1298 7.99982 13.3241 7.99982 12.5C8.00095 11.3952 8.42276 10.3361 9.1727 9.5549C9.92263 8.77372 10.9394 8.33433 12 8.33315ZM12 6.25C10.8133 6.25 9.65327 6.61656 8.66658 7.30332C7.67988 7.99008 6.91085 8.96619 6.45672 10.1082C6.0026 11.2503 5.88378 12.5069 6.11529 13.7193C6.3468 14.9317 6.91824 16.0453 7.75736 16.9194C8.59647 17.7935 9.66557 18.3888 10.8295 18.6299C11.9933 18.8711 13.1997 18.7473 14.2961 18.2743C15.3924 17.8012 16.3295 17.0001 16.9888 15.9723C17.6481 14.9445 18 13.7361 18 12.5C18 10.8424 17.3678 9.25269 16.2426 8.08059C15.1174 6.90848 13.5913 6.25 12 6.25Z" fill="#283340"/>
</svg>
