<svg width="26" height="26" viewBox="0 0 26 26" fill="none" xmlns="http://www.w3.org/2000/svg">
<path d="M3.65766 6.75069C2.75766 6.75069 2.01766 6.47987 1.43766 5.93823C0.877656 5.37576 0.597656 4.68829 0.597656 3.87583C0.597656 3.04254 0.877656 2.35507 1.43766 1.81343C2.01766 1.25096 2.75766 0.969727 3.65766 0.969727C4.53766 0.969727 5.25766 1.25096 5.81766 1.81343C6.39766 2.35507 6.68766 3.04254 6.68766 3.87583C6.68766 4.68829 6.39766 5.37576 5.81766 5.93823C5.25766 6.47987 4.53766 6.75069 3.65766 6.75069ZM6.20766 8.5631V25.9997H1.07766V8.5631H6.20766Z" fill="#283340"/>
<path d="M18.6253 8.37561C20.5853 8.37561 22.1453 9.04224 23.3053 10.3755C24.4853 11.6879 25.0753 13.5004 25.0753 15.8127V25.9997H19.9753V16.5315C19.9753 15.3648 19.6853 14.4586 19.1053 13.8128C18.5253 13.167 17.7453 12.8441 16.7653 12.8441C15.7853 12.8441 15.0053 13.167 14.4253 13.8128C13.8453 14.4586 13.5553 15.3648 13.5553 16.5315V25.9997H8.42531V8.5631H13.5553V10.8755C14.0753 10.1047 14.7753 9.50055 15.6553 9.06307C16.5353 8.60476 17.5253 8.37561 18.6253 8.37561Z" fill="#283340"/>
</svg>
