<svg width="26" height="22" viewBox="0 0 26 22" fill="none" xmlns="http://www.w3.org/2000/svg">
<path d="M22.1 0H3.9C2.86566 0 1.87368 0.430646 1.14228 1.1972C0.410892 1.96376 0 3.00343 0 4.0875V17.7125C0 18.7966 0.410892 19.8362 1.14228 20.6028C1.87368 21.3694 2.86566 21.8 3.9 21.8H22.1C23.1343 21.8 24.1263 21.3694 24.8577 20.6028C25.5891 19.8362 26 18.7966 26 17.7125V4.0875C26 3.00343 25.5891 1.96376 24.8577 1.1972C24.1263 0.430646 23.1343 0 22.1 0ZM21.229 2.725L13.78 8.58375C13.555 8.76063 13.2813 8.85625 13 8.85625C12.7187 8.85625 12.445 8.76063 12.22 8.58375L4.771 2.725H21.229ZM22.1 19.075H3.9C3.55522 19.075 3.22456 18.9315 2.98076 18.6759C2.73696 18.4204 2.6 18.0739 2.6 17.7125V4.42812L10.66 10.7637C11.3351 11.2944 12.1562 11.5812 13 11.5812C13.8438 11.5812 14.6649 11.2944 15.34 10.7637L23.4 4.42812V17.7125C23.4 18.0739 23.263 18.4204 23.0192 18.6759C22.7754 18.9315 22.4448 19.075 22.1 19.075Z" fill="#283340"/>
</svg>
