<svg width="26" height="22" viewBox="0 0 26 22" fill="none" xmlns="http://www.w3.org/2000/svg">
<path d="M26 2.61179C25.0228 3.04842 23.9895 3.33706 22.932 3.46872C24.0476 2.78226 24.8837 1.70234 25.285 0.429273C24.2366 1.07206 23.089 1.52494 21.892 1.76824C21.0919 0.874575 20.0265 0.279705 18.8628 0.0769259C17.699 -0.125854 16.5029 0.0749268 15.4619 0.647778C14.4209 1.22063 13.594 2.13315 13.1108 3.24222C12.6276 4.35129 12.5155 5.59418 12.792 6.77597C10.6723 6.66554 8.59877 6.09705 6.70625 5.10743C4.81373 4.11782 3.1445 2.7292 1.807 1.03181C1.33788 1.87558 1.09137 2.83114 1.092 3.80347C1.09034 4.70644 1.30548 5.59583 1.71828 6.39244C2.13108 7.18906 2.72872 7.86818 3.458 8.36934C2.61037 8.34558 1.78085 8.11132 1.04 7.68647V7.75341C1.04635 9.01859 1.47679 10.2427 2.25851 11.2186C3.04023 12.1945 4.12523 12.8624 5.33 13.1093C4.86623 13.2546 4.38474 13.3313 3.9 13.3369C3.56446 13.3329 3.22975 13.3015 2.899 13.2432C3.24208 14.3315 3.90601 15.2826 4.7984 15.9642C5.69078 16.6457 6.76725 17.0238 7.878 17.0458C6.00236 18.5659 3.68665 19.3955 1.3 19.4024C0.865456 19.4039 0.431256 19.3771 0 19.3221C2.43676 20.9426 5.27646 21.8028 8.177 21.7992C10.1786 21.8206 12.1643 21.431 14.018 20.6531C15.8718 19.8753 17.5565 18.7247 18.9738 17.2688C20.391 15.8128 21.5124 14.0806 22.2723 12.1732C23.0323 10.2659 23.4157 8.22169 23.4 6.16004C23.4 5.93242 23.4 5.69141 23.4 5.45039C24.4201 4.66685 25.2999 3.70629 26 2.61179Z" fill="#283340"/>
</svg>
