<svg width="26" height="28" viewBox="0 0 26 28" fill="none" xmlns="http://www.w3.org/2000/svg">
<path fill-rule="evenodd" clip-rule="evenodd" d="M22.212 3.9293C21.0101 2.67875 19.5822 1.68777 18.0106 1.01343C16.439 0.339082 14.7547 -0.00531529 13.0545 6.20106e-05C5.91963 6.20106e-05 0.111428 6.01041 0.108527 13.3993C0.10537 15.7521 0.701706 18.0638 1.83683 20.0989L0 27.04L6.86271 25.1768C8.76234 26.2471 10.8888 26.8072 13.0493 26.8064H13.0545C20.1889 26.8064 25.9965 20.7955 26 13.4072C26.0043 11.6451 25.6716 9.89969 25.0213 8.27255C24.371 6.64542 23.416 5.16904 22.212 3.9293ZM13.0545 24.5448H13.0499C11.1239 24.5454 9.23295 24.0094 7.57365 22.9925L7.18075 22.751L3.10839 23.8568L4.1954 19.7471L3.93946 19.3246C2.86254 17.5514 2.29197 15.4966 2.29415 13.3993C2.29415 7.2592 7.12329 2.26345 13.0586 2.26345C15.9058 2.25816 18.6385 3.42927 20.6555 5.51918C22.6726 7.60909 23.8088 10.4467 23.8143 13.4078C23.812 19.5485 18.9852 24.5448 13.0545 24.5448ZM18.9562 16.2041C18.6329 16.0363 17.041 15.2263 16.7462 15.1147C16.4514 15.003 16.2337 14.9469 16.0184 15.2825C15.8031 15.618 15.1827 16.3689 14.9941 16.5952C14.8055 16.8216 14.6169 16.8463 14.2936 16.6785C13.9703 16.5107 12.9274 16.1576 11.6919 15.0169C10.7302 14.129 10.0814 13.033 9.89275 12.698C9.70414 12.363 9.87244 12.1813 10.0344 12.0147C10.18 11.8644 10.3576 11.6236 10.5195 11.4281C10.6815 11.2325 10.7354 11.0925 10.8428 10.8692C10.9502 10.6458 10.8968 10.4503 10.8161 10.2831C10.7354 10.1159 10.0883 8.46755 9.81905 7.79698C9.55615 7.14392 9.28976 7.23264 9.09128 7.22238C8.90266 7.21272 8.68503 7.21031 8.47088 7.21031C8.30717 7.21474 8.14609 7.25423 7.99771 7.3263C7.84933 7.39837 7.71682 7.50148 7.60847 7.62919C7.31191 7.96477 6.47619 8.77597 6.47619 10.4225C6.47619 12.069 7.63691 13.6625 7.79709 13.8858C7.95726 14.1091 10.0779 17.4909 13.3227 18.9413C13.9252 19.2097 14.5408 19.445 15.167 19.6463C15.9418 19.901 16.6469 19.8654 17.2041 19.7791C17.8256 19.6831 19.1193 18.9691 19.388 18.1868C19.6567 17.4046 19.6572 16.7346 19.5766 16.5952C19.4959 16.4558 19.28 16.3713 18.9562 16.2041Z" fill="#283340"/>
</svg>
